<?xml version="1.0" encoding="utf-8"?>
<!-- Generator: Adobe Illustrator 21.1.0, SVG Export Plug-In . SVG Version: 6.00 Build 0)  -->
<svg version="1.1" id="Layer_1" xmlns="http://www.w3.org/2000/svg" xmlns:xlink="http://www.w3.org/1999/xlink" x="0px" y="0px"
	 viewBox="0 0 1275.5 490.2" style="enable-background:new 0 0 1275.5 490.2;" xml:space="preserve">
<style type="text/css">
	.st0{fill:#FFFFFF;}
</style>
<g>
	<path class="st0" d="M159,111.2c-6.3,7.2-13.8,12.8-22.6,16.7c-8.8,3.9-18,5.9-27.5,5.9c-8.7,0-17.1-1.7-25.4-5.1
		s-15.4-8.2-21.6-14.4c-6.1-6.1-10.9-13.3-14.3-21.6c-3.4-8.2-5.2-16.8-5.2-25.5c0-8.3,1.5-16.3,4.5-23.9c3-7.6,7.2-14.5,12.6-20.7
		c6.3-7,13.7-12.4,22.4-16.2S99.6,0.5,109,0.5c1.9,0,4.5,0.2,7.7,0.4c3.2,0.3,6.7,1,10.6,2.2c3.9,1.1,7.9,2.8,12.3,4.9
		c4.3,2.1,8.6,5,12.8,8.6c7.3,6.3,13.1,13.8,17.1,22.7c4.1,8.9,6.1,18.2,6.1,28c0,7.9-1.4,15.7-4.2,23.3
		C168.5,98.2,164.4,105,159,111.2z M136.4,44.6c-2.4-2.9-4.9-5.2-7.6-6.9c-2.7-1.7-5.2-3-7.8-3.9c-2.5-0.9-4.9-1.5-7-1.7
		c-2.2-0.2-3.9-0.4-5.1-0.4c-5,0-9.9,1.1-14.6,3.3c-6.3,2.8-11.3,7.1-15.2,12.9c-3.9,5.8-5.8,12.3-5.8,19.4c0,1.1,0.1,2.6,0.3,4.5
		c0.2,1.9,0.6,4,1.4,6.2c0.7,2.2,1.8,4.6,3.2,7.1c1.4,2.5,3.3,5,5.7,7.4c3.5,3.4,7.4,5.9,11.7,7.7c4.3,1.7,8.8,2.6,13.4,2.6
		c1.1,0,2.4-0.1,4.1-0.3c1.6-0.2,3.5-0.5,5.5-1.1c2-0.5,4.2-1.4,6.5-2.5c2.3-1.1,4.5-2.6,6.7-4.4c2.9-2.3,5.2-4.8,6.9-7.5
		s3-5.3,3.9-7.9c0.9-2.5,1.5-4.8,1.7-6.9c0.2-2.1,0.4-3.8,0.4-5.1C144.6,58.6,141.9,51.1,136.4,44.6z"/>
	<path class="st0" d="M259.7,88.1l-28.2,42.8H192l30-38.6c-3.4,0.2-6.2,0.3-8.6,0.2c-2.3-0.1-4.7-0.5-7.1-1.3
		c-4.6-1.2-8.6-3.3-12.2-6.1c-3.6-2.9-6.6-6.3-9.1-10.1c-2.5-3.8-4.5-8-5.8-12.5c-1.3-4.5-2-9.1-2-13.8c0-6.6,1.3-12.8,3.9-18.6
		s6-10.8,10.4-15.2c4.3-4.3,9.4-7.7,15.3-10.2c5.8-2.5,12-3.7,18.5-3.7c2.7,0,6.4,0.4,11.4,1.4c4.9,0.9,10.2,3.3,15.7,7.1
		c1.8,1.3,3.9,3.1,6.3,5.3c2.4,2.2,4.7,5,6.9,8.3c2.2,3.3,4,7.2,5.4,11.7c1.4,4.5,2.2,9.7,2.2,15.6c0,3.9-0.3,7.4-0.9,10.6
		c-0.6,3.3-1.5,6.4-2.7,9.4c-1.2,3-2.6,6-4.2,8.8C263.6,82.1,261.8,85.1,259.7,88.1z M236.8,37.2c-0.8-0.8-2.2-1.9-4.2-3.1
		c-1.9-1.2-4.4-1.8-7.6-1.8c-2.3,0-4.5,0.5-6.5,1.4c-2,0.9-3.8,2.1-5.3,3.6c-1.5,1.5-2.7,3.3-3.5,5.2c-0.8,2-1.3,4.1-1.3,6.4
		c0,2.4,0.5,4.6,1.4,6.7c0.9,2,2.1,3.8,3.6,5.2c1.5,1.4,3.3,2.6,5.3,3.4c2,0.8,4.2,1.3,6.5,1.3c4.8,0,8.8-1.6,11.9-4.9
		c3.1-3.2,4.7-7.2,4.7-11.9c0-1.1-0.2-2.7-0.7-5C240.6,41.5,239.2,39.3,236.8,37.2z"/>
	<path class="st0" d="M309.2,97.1v-30h85.7v30H309.2z"/>
	<path class="st0" d="M445.6,130.9V27.8H431V3.4h46.6v127.4H445.6z"/>
	<path class="st0" d="M567.6,108.8v22H536v-22H483V84.1l52.3-80.7h32.1v79.2h10.5v26.2H567.6z M516.7,82.7l19.3-0.2
		c0-3.4,0-6.3,0-8.9c0-2.6,0.1-5.2,0.2-7.9l0.5-18.2L516.7,82.7z"/>
	<path class="st0" d="M696.7,130.9l-6.3-17.9h-42.8l-6,17.9H605L656.1,2.7h26.5l51.6,128.1H696.7z M668.5,46.9l-12.6,39.5h26
		L668.5,46.9z"/>
	<path class="st0" d="M820.8,98.9c-0.4,1.3-0.8,3-1.4,5c-0.6,2-1.5,4.1-2.8,6.4c-1.3,2.3-2.9,4.7-5,7.1c-2,2.5-4.7,4.8-7.9,7.1
		c-2.8,2-6.4,4-11,6c-4.6,1.9-10.8,2.9-18.6,2.9c-7.5,0-13.8-1-18.9-3c-5.2-2-9.5-4.4-13.1-7.4c-3.6-2.9-6.3-6.1-8.3-9.6
		c-2-3.4-3.4-6.6-4.2-9.7c-0.5-1.4-0.9-2.9-1.2-4.4c-0.3-1.5-0.5-3.1-0.7-4.9c-0.2-1.7-0.3-3.8-0.4-6c-0.1-2.3-0.2-5-0.2-8.1V3.4
		h32.5v80.9c0,3.1,0.4,6,1.2,8.7c0.8,2.6,2.5,5,5.3,7c0.8,0.5,1.7,0.9,2.5,1.3c0.8,0.4,1.7,0.6,2.5,0.7c0.7,0.1,1.4,0.2,2.1,0.2
		c0.7,0,1.2,0,1.5,0c4.3,0,8-1.4,11-4.1c3-2.7,4.5-6.2,4.5-10.4v-4.2V3.4h32.5v72.4c0,3.7-0.1,7.6-0.2,11.6
		C822.3,91.5,821.8,95.3,820.8,98.9z"/>
	<path class="st0" d="M944.1,108.3c-6.5,7.9-14.3,14.1-23.4,18.4c-9.1,4.3-18.7,6.5-29,6.5c-2,0-4.5-0.2-7.5-0.5c-3-0.3-6.2-1-9.7-2
		c-3.5-1-7.3-2.5-11.3-4.3s-8-4.4-12.1-7.7c-2-1.6-4.5-3.8-7.4-6.8c-2.9-2.9-5.6-6.6-8.2-10.8s-4.8-9.2-6.6-14.9
		c-1.8-5.7-2.7-12-2.7-19.1c0-7.6,1-14.3,3-20.2c2-5.9,4.4-11,7.2-15.4c2.8-4.4,5.8-8,8.9-10.9s5.8-5.2,7.9-6.8
		c11.4-8.5,24.4-12.7,38.8-12.7c7.8,0,14.8,1,20.8,3.1c6.1,2.1,11.4,4.6,15.9,7.6c4.5,3,8.2,6.1,11.2,9.3c2.9,3.2,5.2,6,6.8,8.3
		c0.7,1.1,1.4,2.1,2,3.1c0.6,1,1.2,2,1.8,3.2s1.2,2.6,1.9,4.2c0.7,1.6,1.5,3.6,2.4,6h-36.8l-1.4-2l-0.5-0.5l-0.4-0.7l-1.4-1.4
		c-3-2.8-6.4-4.7-10.3-5.9c-3.9-1.2-7.7-1.8-11.5-1.8c-1.3,0-3.1,0.1-5.4,0.4c-2.3,0.2-4.9,1-7.9,2.3c-3.1,1.3-5.9,3-8.4,5.1
		c-2.5,2.1-4.6,4.5-6.4,7.2c-1.8,2.7-3.2,5.7-4.1,8.9c-1,3.3-1.4,6.6-1.4,9.9c0,2.3,0.4,5.3,1.2,8.9c0.8,3.7,2.9,7.6,6.2,11.8
		c0.7,1,1.9,2.2,3.4,3.6c1.6,1.4,3.5,2.8,5.7,4.2c2.2,1.3,4.8,2.5,7.7,3.4c2.9,1,6.1,1.4,9.6,1.4c3,0,5.8-0.3,8.3-1
		c2.5-0.7,4.7-1.4,6.7-2.3c1.9-0.9,3.6-1.9,5-3c1.4-1.1,2.4-2,3.2-2.7c0.6-0.6,1.1-1.2,1.6-1.9c0.5-0.7,1.2-1.8,2.2-3.5h-35.2V59.4
		h75.1c-0.2,4.9-0.6,9.6-1.2,13.9c-0.5,4.3-1.4,8.5-2.4,12.5c-1.1,4-2.5,7.8-4.3,11.5C949.5,100.9,947.1,104.6,944.1,108.3z"/>
	<path class="st0" d="M1056.7,98.9c-0.4,1.3-0.8,3-1.4,5c-0.6,2-1.5,4.1-2.8,6.4c-1.3,2.3-2.9,4.7-5,7.1c-2,2.5-4.7,4.8-7.9,7.1
		c-2.8,2-6.4,4-11,6c-4.6,1.9-10.8,2.9-18.6,2.9c-7.5,0-13.8-1-18.9-3c-5.2-2-9.5-4.4-13.1-7.4c-3.6-2.9-6.3-6.1-8.3-9.6
		c-2-3.4-3.4-6.6-4.2-9.7c-0.5-1.4-0.9-2.9-1.2-4.4c-0.3-1.5-0.5-3.1-0.7-4.9c-0.2-1.7-0.3-3.8-0.4-6c-0.1-2.3-0.2-5-0.2-8.1V3.4
		h32.5v80.9c0,3.1,0.4,6,1.2,8.7c0.8,2.6,2.5,5,5.3,7c0.8,0.5,1.7,0.9,2.5,1.3c0.8,0.4,1.7,0.6,2.5,0.7c0.7,0.1,1.4,0.2,2.1,0.2
		c0.7,0,1.2,0,1.5,0c4.3,0,8-1.4,11-4.1c3-2.7,4.5-6.2,4.5-10.4v-4.2V3.4h32.5v72.4c0,3.7-0.1,7.6-0.2,11.6
		C1058.2,91.5,1057.7,95.3,1056.7,98.9z"/>
	<path class="st0" d="M1132.7,124.7c-2.9,2.2-5.7,3.8-8.4,5c-2.7,1.1-5.2,2-7.6,2.5c-2.3,0.5-4.5,0.9-6.5,1c-2,0.1-3.7,0.2-5.1,0.2
		c-6.4,0-11.9-0.8-16.5-2.5c-4.6-1.7-8.5-3.8-11.7-6.2c-3.2-2.5-5.8-5.1-7.7-7.9c-1.9-2.8-3.3-5.4-4.1-7.9c-1.1-3.1-1.8-6.3-2.2-9.4
		c-0.4-3.1-0.6-6.7-0.7-10.6h31c0,3.1,0.3,6,0.8,8.8c0.5,2.7,2.2,4.8,5,6.4c0.6,0.4,1.4,0.7,2.3,1.1c1,0.4,2.2,0.5,3.8,0.5
		c3.2,0,5.9-1,7.9-3.1c2-2,3.1-4.6,3.1-7.8c0-3.8-1.2-6.8-3.5-8.8c-2.3-2-5-3.8-8-5.3l-6-2.3c-2.4-1-4.7-2-6.9-3
		c-2.2-1-4.5-2.1-6.8-3.3c-1.4-0.8-3.3-2.1-5.7-3.7c-2.3-1.6-4.6-3.8-6.8-6.5c-2.2-2.7-4.1-6-5.7-9.7c-1.6-3.8-2.4-8.2-2.4-13.3
		c0-1.4,0.1-3.2,0.3-5.1c0.2-2,0.7-4.2,1.4-6.5c0.8-2.3,1.9-4.8,3.4-7.3c1.5-2.5,3.6-5.1,6.2-7.6c2.9-2.8,5.9-5,9-6.6
		c3.1-1.6,6.1-2.9,9-3.7c2.9-0.8,5.5-1.4,7.9-1.6c2.3-0.2,4.2-0.4,5.7-0.4s3.4,0.1,5.9,0.3c2.5,0.2,5.3,0.8,8.4,1.9
		c3.8,1.3,7.2,2.9,10,4.9c2.8,1.9,5.2,4,7,6.1c1.9,2.2,3.4,4.3,4.6,6.4c1.2,2.1,2.1,3.9,2.7,5.3c0.2,0.7,0.5,1.4,0.7,2
		c0.2,0.6,0.4,1.2,0.5,1.8c0.2,0.6,0.4,1.2,0.5,1.9c0.1,0.7,0.2,1.3,0.5,1.9c0.2,1.3,0.3,2.6,0.3,3.7c-0.1,1.1,0,2.6,0.3,4.2h-30.1
		c0-1.7,0-2.9-0.1-3.6c-0.1-0.7-0.2-1.4-0.5-2c-0.6-2.2-1.8-3.8-3.6-5.1c-1.8-1.2-3.9-1.8-6.1-1.8c-3,0-5.4,0.9-7.2,2.7
		c-1.8,1.8-2.7,4.3-2.7,7.4c0,1.3,0.2,2.4,0.6,3.3c0.4,0.9,0.8,1.6,1.2,2.1c1.4,1.8,3.4,3.4,6,4.9c1.4,0.7,3,1.4,4.6,2.2
		c1.6,0.7,3.6,1.6,5.9,2.5c5.5,2.5,10,4.8,13.4,6.8c3.4,2,5.9,3.8,7.6,5.3c1,0.7,1.8,1.5,2.5,2.3c1.1,1,2.2,2.2,3.2,3.8
		c3.1,4.2,5,8.1,5.5,11.6c0.5,3.6,0.8,6.3,0.8,8.4c0,1.9-0.2,4.2-0.5,6.9c-0.3,2.7-1,5.4-2.2,8.4c-1.1,2.9-2.8,6-5.1,9.1
		C1139.6,118.8,1136.6,121.8,1132.7,124.7z"/>
	<path class="st0" d="M1207.6,32.3v98.5h-32.3V32.1h-24.9V3.4h82.7v28.9H1207.6z"/>
	<path class="st0" d="M204.3,197.4V296H172v-98.7h-24.9v-28.7h82.7v28.9H204.3z"/>
	<path class="st0" d="M306.8,296v-48h-39v48h-32.7V168.6h32.7v48.4h38.8v-48.4h32.5V296H306.8z"/>
	<path class="st0" d="M344.5,296V168.6h72.4v28.5h-38.8v19h38.8v30.1h-38.6v20.6h39V296H344.5z"/>
	<path class="st0" d="M564,273.4c-6.5,7.9-14.3,14.1-23.4,18.4c-9.1,4.3-18.7,6.5-29,6.5c-2,0-4.5-0.2-7.5-0.5c-3-0.3-6.2-1-9.7-2
		c-3.6-1-7.3-2.5-11.3-4.3c-4-1.9-8-4.4-12.1-7.7c-2-1.6-4.5-3.8-7.4-6.8c-2.9-2.9-5.6-6.6-8.2-10.8c-2.6-4.3-4.8-9.2-6.6-14.9
		c-1.8-5.7-2.7-12-2.7-19.1c0-7.6,1-14.3,3-20.2c2-5.9,4.4-11,7.2-15.4c2.8-4.4,5.8-8,8.9-10.9c3.1-2.9,5.8-5.2,7.9-6.8
		c11.4-8.5,24.4-12.7,38.8-12.7c7.8,0,14.8,1,20.8,3.1c6.1,2.1,11.4,4.6,15.9,7.6c4.5,3,8.2,6.1,11.2,9.3c2.9,3.2,5.2,6,6.8,8.3
		c0.7,1.1,1.4,2.1,2,3.1c0.6,1,1.2,2,1.8,3.2c0.6,1.2,1.2,2.6,1.9,4.2c0.7,1.6,1.5,3.6,2.4,6H538l-1.4-2l-0.5-0.5l-0.4-0.7l-1.4-1.4
		c-3-2.8-6.4-4.7-10.3-5.9c-3.9-1.2-7.7-1.8-11.6-1.8c-1.3,0-3.1,0.1-5.4,0.4c-2.3,0.2-4.9,1-7.9,2.3c-3.1,1.3-5.9,3-8.4,5.1
		c-2.5,2.1-4.6,4.5-6.4,7.2c-1.8,2.7-3.2,5.7-4.2,8.9c-1,3.3-1.4,6.6-1.4,9.9c0,2.3,0.4,5.3,1.2,8.9c0.8,3.7,2.9,7.6,6.2,11.8
		c0.7,1,1.9,2.2,3.4,3.6c1.6,1.4,3.5,2.8,5.7,4.2c2.2,1.3,4.8,2.5,7.7,3.4c2.9,1,6.1,1.4,9.6,1.4c3,0,5.8-0.3,8.3-1
		c2.5-0.7,4.8-1.4,6.7-2.3c1.9-0.9,3.6-1.9,5-3s2.4-2,3.2-2.7c0.6-0.6,1.1-1.2,1.6-1.9c0.5-0.7,1.2-1.8,2.2-3.5h-35.2v-27.1h75.1
		c-0.2,4.9-0.6,9.6-1.2,13.9c-0.5,4.3-1.4,8.5-2.4,12.5c-1.1,4-2.5,7.8-4.3,11.5C569.4,266,567,269.7,564,273.4z"/>
	<path class="st0" d="M656.4,296l-6.3-17.9h-42.8l-6,17.9h-36.6l51.1-128.1h26.5L694,296H656.4z M628.3,212.1l-12.6,39.5h26
		L628.3,212.1z"/>
	<path class="st0" d="M753.2,296l-26-40.8V296h-32.3V168.6h47.3c6,0,11.6,0.4,16.8,1.3c5.2,0.8,10.3,3.2,15.3,7
		c1.6,1.2,3.2,2.8,5,4.8c1.8,2,3.5,4.4,5.1,7.3c1.6,2.9,3,6.2,4.1,10c1.1,3.8,1.6,8.2,1.6,13.1c0,5.1-0.6,9.5-1.8,13.4
		c-1.2,3.9-2.7,7.2-4.4,10c-1.7,2.8-3.6,5.2-5.6,7c-2,1.9-3.8,3.3-5.3,4.4c-1.3,1-2.7,1.8-4.1,2.5c-1.4,0.7-3.9,1.7-7.2,3.1
		l30.9,43.5H753.2z M755.5,203.9c-2-3.3-4.6-5.2-7.7-5.9c-3.1-0.7-6.3-1-9.8-1h-10.8v35h10.3c0.4-0.1,0.8-0.2,1.4-0.2
		c0.8,0,1.5-0.1,2-0.2c1-0.1,1.9-0.2,2.7-0.4c0.8-0.1,1.7-0.3,2.7-0.5c1.1-0.4,2.3-0.9,3.6-1.7c1.3-0.8,2.6-1.9,3.7-3.2
		c1.1-1.4,2.1-3.1,3-5.1c0.8-2,1.3-4.4,1.3-7.2c0-1.7-0.2-3.3-0.5-4.9C757.1,207.1,756.5,205.5,755.5,203.9z"/>
	<path class="st0" d="M843.4,296H794V168.6h49.8c8.9,0,17.2,1.7,25,5c7.8,3.3,14.5,7.9,20.3,13.6c5.8,5.8,10.3,12.5,13.6,20.3
		c3.3,7.8,5,16,5,24.8c0,8.9-1.7,17.2-5.1,24.9c-3.4,7.7-8,14.4-13.8,20.2c-5.8,5.8-12.7,10.3-20.5,13.6
		C860.5,294.3,852.2,296,843.4,296z M841.4,197.4h-14.8v69.1h14.8c4.7,0,9.1-0.9,13.1-2.7c4-1.8,7.5-4.3,10.6-7.4
		c3-3.1,5.4-6.8,7.1-10.9c1.7-4.2,2.6-8.6,2.6-13.4c0-4.7-0.9-9.1-2.6-13.4c-1.7-4.2-4.1-7.9-7.1-11c-3-3.1-6.5-5.6-10.6-7.5
		C850.5,198.4,846.1,197.4,841.4,197.4z"/>
	<path class="st0" d="M911.3,296V168.6h72.4v28.5h-38.8v19h38.8v30.1H945v20.6h39V296H911.3z"/>
	<path class="st0" d="M1069.2,296l-47.8-69.7V296h-32V168.6h28.3c5.7,8.1,11.2,15.9,16.6,23.6c5.4,7.6,10.8,15.6,16.2,23.7l15,22.9
		v-70.2h32.1V296H1069.2z"/>
	<path class="st0" d="M154.9,461.1l-26-40.8v40.8H96.6V333.7h47.3c6,0,11.6,0.4,16.8,1.3c5.2,0.8,10.3,3.2,15.3,7
		c1.6,1.2,3.2,2.8,5,4.8c1.8,2,3.5,4.4,5.1,7.3c1.6,2.9,3,6.2,4.1,10c1.1,3.8,1.6,8.2,1.6,13.1c0,5.1-0.6,9.5-1.8,13.4
		c-1.2,3.9-2.7,7.2-4.4,10c-1.7,2.8-3.6,5.2-5.6,7c-2,1.9-3.8,3.3-5.3,4.4c-1.3,1-2.7,1.8-4.1,2.5c-1.4,0.7-3.9,1.7-7.2,3.1
		l30.9,43.5H154.9z M157.2,369.1c-2-3.3-4.6-5.2-7.7-5.9c-3.1-0.7-6.3-1-9.8-1h-10.8v35h10.3c0.4-0.1,0.8-0.2,1.4-0.2
		c0.8,0,1.5-0.1,2-0.2c1-0.1,1.9-0.2,2.7-0.4c0.8-0.1,1.7-0.3,2.7-0.5c1.1-0.4,2.3-0.9,3.6-1.7c1.3-0.8,2.6-1.9,3.7-3.2
		c1.1-1.4,2.1-3.1,3-5.1c0.8-2,1.3-4.4,1.3-7.2c0-1.7-0.2-3.3-0.5-4.9C158.8,372.2,158.2,370.6,157.2,369.1z"/>
	<path class="st0" d="M195.6,461.1V333.7H268v28.5h-38.8v19H268v30.1h-38.6v20.6h39v29.2H195.6z"/>
	<path class="st0" d="M342.6,455c-2.9,2.2-5.7,3.8-8.4,5c-2.7,1.1-5.2,2-7.6,2.5c-2.3,0.5-4.5,0.9-6.5,1s-3.7,0.2-5.2,0.2
		c-6.4,0-11.9-0.8-16.5-2.5s-8.5-3.8-11.7-6.2c-3.2-2.5-5.7-5.1-7.7-7.9c-1.9-2.8-3.3-5.4-4.2-7.9c-1.1-3.1-1.8-6.3-2.2-9.4
		c-0.4-3.1-0.6-6.7-0.7-10.6h31c0,3.1,0.3,6,0.8,8.8c0.5,2.7,2.2,4.8,5,6.4c0.6,0.4,1.4,0.7,2.3,1.1c1,0.4,2.2,0.5,3.8,0.5
		c3.3,0,5.9-1,7.9-3.1c2-2,3.1-4.6,3.1-7.8c0-3.8-1.2-6.8-3.5-8.8s-5-3.8-8-5.3l-6-2.3c-2.4-1-4.7-2-6.9-3c-2.2-1-4.5-2.1-6.8-3.3
		c-1.4-0.8-3.3-2.1-5.7-3.7c-2.3-1.6-4.6-3.8-6.8-6.5c-2.2-2.7-4.1-6-5.7-9.7c-1.6-3.8-2.4-8.2-2.4-13.3c0-1.4,0.1-3.2,0.3-5.1
		c0.2-2,0.7-4.2,1.4-6.5c0.8-2.3,1.9-4.8,3.4-7.3c1.5-2.5,3.6-5.1,6.2-7.6c2.9-2.8,5.9-5,9-6.6c3.1-1.6,6.1-2.9,9-3.7
		c2.9-0.8,5.5-1.4,7.9-1.6c2.3-0.2,4.2-0.4,5.7-0.4c1.4,0,3.4,0.1,5.9,0.3c2.5,0.2,5.3,0.8,8.4,1.9c3.8,1.3,7.2,2.9,10,4.9
		c2.8,1.9,5.2,4,7,6.1c1.9,2.2,3.4,4.3,4.6,6.4c1.2,2.1,2.1,3.9,2.7,5.3c0.2,0.7,0.5,1.4,0.7,2c0.2,0.6,0.4,1.2,0.5,1.8
		c0.2,0.6,0.4,1.2,0.5,1.9c0.1,0.7,0.2,1.3,0.5,1.9c0.2,1.3,0.3,2.6,0.3,3.7c-0.1,1.1,0,2.6,0.3,4.2h-30.1c0-1.7,0-2.9-0.1-3.6
		s-0.2-1.4-0.5-2c-0.6-2.2-1.8-3.8-3.6-5.1c-1.8-1.2-3.9-1.8-6.1-1.8c-3,0-5.4,0.9-7.2,2.7c-1.8,1.8-2.7,4.3-2.7,7.4
		c0,1.3,0.2,2.4,0.6,3.3c0.4,0.9,0.8,1.6,1.2,2.1c1.4,1.8,3.4,3.4,6,4.9c1.4,0.7,3,1.4,4.6,2.2c1.6,0.7,3.6,1.6,5.9,2.5
		c5.5,2.5,10,4.8,13.4,6.8c3.4,2,5.9,3.8,7.6,5.3c1,0.7,1.8,1.5,2.5,2.3c1.1,1,2.2,2.2,3.3,3.8c3.1,4.2,5,8.1,5.5,11.6
		c0.5,3.6,0.8,6.3,0.8,8.4c0,1.9-0.2,4.2-0.5,6.9c-0.3,2.7-1,5.4-2.2,8.4c-1.1,2.9-2.8,6-5.1,9.1C349.5,449.1,346.4,452.1,342.6,455
		z"/>
	<path class="st0" d="M478.3,440c-6.1,7.6-13.7,13.4-22.6,17.4c-9,4-18.3,6-28.1,6c-8.7,0-17.1-1.7-25.4-5.1s-15.4-8.2-21.6-14.3
		c-6.1-6.1-10.9-13.3-14.3-21.6c-3.4-8.2-5.2-16.7-5.2-25.4c0-1.9,0.2-4.4,0.5-7.6c0.3-3.1,1-6.6,2.1-10.6c1.1-3.9,2.7-8,4.8-12.3
		c2.1-4.3,5-8.5,8.6-12.7c3-3.6,6.5-6.9,10.4-9.7c3.9-2.9,8-5.3,12.4-7.3s8.9-3.5,13.6-4.6c4.7-1.1,9.5-1.6,14.2-1.6
		c5.4,0,10.4,0.6,15.1,1.8s8.8,2.6,12.5,4.3c3.7,1.7,6.8,3.4,9.5,5.2c2.7,1.8,4.7,3.3,6.1,4.5c7.3,6.3,13.1,13.8,17.1,22.7
		c4.1,8.9,6.1,18.2,6.1,28c0,1.9-0.2,4.5-0.4,7.6c-0.3,3.1-1,6.6-2.1,10.4c-1.1,3.8-2.7,7.8-4.8,12.1
		C484.6,431.5,481.8,435.8,478.3,440z M461.1,384.6c-1.3-3.5-3.1-6.6-5.3-9.5c-2.2-2.8-4.8-5.3-7.8-7.3c-3-2-6.2-3.6-9.7-4.7
		s-7.1-1.6-10.8-1.6c-1.1,0-2.6,0.1-4.5,0.4c-1.9,0.2-4,0.7-6.2,1.4c-2.2,0.7-4.6,1.7-7.1,3.1c-2.5,1.3-4.9,3.1-7.2,5.2
		c-3.5,3.4-6.1,7.3-7.9,11.7c-1.8,4.5-2.7,9.1-2.7,13.9c0,1.1,0.1,2.6,0.3,4.5c0.2,1.9,0.6,4,1.4,6.3c0.7,2.3,1.8,4.7,3.2,7.2
		c1.4,2.5,3.3,4.9,5.7,7.2c3.3,3.4,7.1,6,11.6,7.8c4.5,1.8,9.1,2.7,13.6,2.7c3.5,0,6.6-0.4,9.5-1.3s5.3-1.9,7.5-3.1
		c2.2-1.2,4-2.4,5.5-3.7c1.5-1.3,2.7-2.3,3.5-3.2s1.8-2,3-3.4c1.1-1.4,2.2-3.2,3.2-5.3c1-2.1,1.8-4.4,2.5-7c0.7-2.6,1.1-5.5,1.1-8.8
		C463.3,392.8,462.6,388.6,461.1,384.6z"/>
	<path class="st0" d="M555.9,461.1l-26-40.8v40.8h-32.3V333.7h47.3c6,0,11.6,0.4,16.8,1.3c5.2,0.8,10.3,3.2,15.3,7
		c1.6,1.2,3.2,2.8,5.1,4.8c1.8,2,3.5,4.4,5.1,7.3c1.6,2.9,3,6.2,4.1,10c1.1,3.8,1.6,8.2,1.6,13.1c0,5.1-0.6,9.5-1.8,13.4
		c-1.2,3.9-2.7,7.2-4.4,10c-1.7,2.8-3.6,5.2-5.6,7c-2,1.9-3.8,3.3-5.3,4.4c-1.3,1-2.7,1.8-4.2,2.5s-3.9,1.7-7.2,3.1l30.9,43.5H555.9
		z M558.2,369.1c-2-3.3-4.6-5.2-7.7-5.9c-3.1-0.7-6.3-1-9.8-1h-10.8v35h10.3c0.4-0.1,0.8-0.2,1.4-0.2c0.8,0,1.5-0.1,2-0.2
		c1-0.1,1.9-0.2,2.7-0.4c0.8-0.1,1.7-0.3,2.7-0.5c1.1-0.4,2.3-0.9,3.6-1.7c1.3-0.8,2.5-1.9,3.7-3.2c1.1-1.4,2.1-3.1,3-5.1
		c0.8-2,1.3-4.4,1.3-7.2c0-1.7-0.2-3.3-0.5-4.9C559.8,372.2,559.2,370.6,558.2,369.1z"/>
	<path class="st0" d="M651.2,362.6v98.5h-32.3v-98.7H594v-28.7h82.7v28.9H651.2z"/>
	<path class="st0" d="M688.4,483c-2,2.4-4.4,4.2-7.1,5.2c-2.7,1.1-5.6,1.7-8.8,2h-3.2H664v-15c5.3,0.1,8.7-0.9,10.3-3.2
		c1.6-2.2,2.2-5.9,1.8-10.9H664V431h29.8v32.5c0,3.7-0.3,7.1-0.8,10.2C692.4,476.7,690.9,479.8,688.4,483z"/>
	<path class="st0" d="M779.9,362.6v98.5h-32.3v-98.7h-24.9v-28.7h82.7v28.9H779.9z"/>
	<path class="st0" d="M810.7,461.1V333.7h32.5v127.4H810.7z"/>
	<path class="st0" d="M917.4,455c-2.9,2.2-5.7,3.8-8.4,5c-2.7,1.1-5.2,2-7.6,2.5c-2.3,0.5-4.5,0.9-6.5,1s-3.7,0.2-5.2,0.2
		c-6.4,0-11.9-0.8-16.5-2.5s-8.5-3.8-11.7-6.2c-3.2-2.5-5.7-5.1-7.7-7.9c-1.9-2.8-3.3-5.4-4.2-7.9c-1.1-3.1-1.8-6.3-2.2-9.4
		c-0.4-3.1-0.6-6.7-0.7-10.6h31c0,3.1,0.3,6,0.8,8.8c0.5,2.7,2.2,4.8,5,6.4c0.6,0.4,1.4,0.7,2.3,1.1c1,0.4,2.2,0.5,3.8,0.5
		c3.3,0,5.9-1,7.9-3.1c2-2,3.1-4.6,3.1-7.8c0-3.8-1.2-6.8-3.5-8.8s-5-3.8-8-5.3l-6-2.3c-2.4-1-4.7-2-6.9-3c-2.2-1-4.5-2.1-6.8-3.3
		c-1.4-0.8-3.3-2.1-5.7-3.7c-2.3-1.6-4.6-3.8-6.8-6.5s-4.1-6-5.7-9.7c-1.6-3.8-2.4-8.2-2.4-13.3c0-1.4,0.1-3.2,0.3-5.1
		c0.2-2,0.7-4.2,1.4-6.5s1.9-4.8,3.4-7.3c1.5-2.5,3.6-5.1,6.2-7.6c2.9-2.8,5.9-5,9-6.6c3.1-1.6,6.1-2.9,9-3.7
		c2.9-0.8,5.5-1.4,7.9-1.6c2.3-0.2,4.2-0.4,5.7-0.4c1.4,0,3.4,0.1,5.9,0.3c2.5,0.2,5.3,0.8,8.4,1.9c3.8,1.3,7.2,2.9,10,4.9
		s5.2,4,7,6.1c1.9,2.2,3.4,4.3,4.6,6.4c1.2,2.1,2.1,3.9,2.7,5.3c0.2,0.7,0.5,1.4,0.7,2c0.2,0.6,0.4,1.2,0.5,1.8
		c0.2,0.6,0.4,1.2,0.5,1.9c0.1,0.7,0.2,1.3,0.5,1.9c0.2,1.3,0.3,2.6,0.3,3.7c-0.1,1.1,0,2.6,0.3,4.2h-30.1c0-1.7,0-2.9-0.1-3.6
		s-0.2-1.4-0.5-2c-0.6-2.2-1.8-3.8-3.6-5.1c-1.8-1.2-3.9-1.8-6.1-1.8c-3,0-5.4,0.9-7.2,2.7c-1.8,1.8-2.7,4.3-2.7,7.4
		c0,1.3,0.2,2.4,0.6,3.3c0.4,0.9,0.8,1.6,1.2,2.1c1.4,1.8,3.4,3.4,6,4.9c1.4,0.7,3,1.4,4.6,2.2c1.6,0.7,3.6,1.6,5.9,2.5
		c5.5,2.5,10,4.8,13.4,6.8c3.4,2,5.9,3.8,7.6,5.3c1,0.7,1.8,1.5,2.5,2.3c1.1,1,2.2,2.2,3.3,3.8c3.1,4.2,5,8.1,5.5,11.6
		c0.5,3.6,0.8,6.3,0.8,8.4c0,1.9-0.2,4.2-0.5,6.9c-0.3,2.7-1,5.4-2.2,8.4c-1.1,2.9-2.8,6-5.1,9.1C924.3,449.1,921.2,452.1,917.4,455
		z"/>
	<path class="st0" d="M1017.6,461.1l-47.8-69.7v69.7h-31.9V333.7h28.3c5.7,8.1,11.2,15.9,16.6,23.6c5.4,7.6,10.8,15.6,16.2,23.7
		l15,22.9v-70.2h32.1v127.4H1017.6z"/>
	<path class="st0" d="M1166.8,440c-6.1,7.6-13.7,13.4-22.6,17.4c-9,4-18.3,6-28.1,6c-8.7,0-17.1-1.7-25.4-5.1s-15.4-8.2-21.6-14.3
		c-6.1-6.1-10.9-13.3-14.4-21.6c-3.4-8.2-5.1-16.7-5.1-25.4c0-1.9,0.2-4.4,0.5-7.6c0.3-3.1,1-6.6,2.1-10.6c1.1-3.9,2.7-8,4.8-12.3
		c2.1-4.3,5-8.5,8.6-12.7c3-3.6,6.5-6.9,10.4-9.7c3.9-2.9,8-5.3,12.4-7.3c4.3-2,8.9-3.5,13.6-4.6c4.7-1.1,9.5-1.6,14.2-1.6
		c5.4,0,10.4,0.6,15.1,1.8c4.6,1.2,8.8,2.6,12.5,4.3c3.7,1.7,6.8,3.4,9.5,5.2c2.7,1.8,4.7,3.3,6.1,4.5c7.3,6.3,13.1,13.8,17.1,22.7
		c4.1,8.9,6.1,18.2,6.1,28c0,1.9-0.2,4.5-0.5,7.6c-0.3,3.1-1,6.6-2.1,10.4c-1.1,3.8-2.7,7.8-4.8,12.1
		C1173.1,431.5,1170.3,435.8,1166.8,440z M1149.7,384.6c-1.3-3.5-3.1-6.6-5.3-9.5c-2.2-2.8-4.8-5.3-7.8-7.3c-3-2-6.2-3.6-9.7-4.7
		c-3.5-1.1-7.1-1.6-10.8-1.6c-1.1,0-2.6,0.1-4.5,0.4c-1.9,0.2-4,0.7-6.2,1.4c-2.2,0.7-4.6,1.7-7.1,3.1c-2.5,1.3-4.9,3.1-7.2,5.2
		c-3.5,3.4-6.1,7.3-7.9,11.7c-1.8,4.5-2.7,9.1-2.7,13.9c0,1.1,0.1,2.6,0.3,4.5c0.2,1.9,0.6,4,1.4,6.3c0.7,2.3,1.8,4.7,3.2,7.2
		c1.4,2.5,3.3,4.9,5.7,7.2c3.3,3.4,7.1,6,11.6,7.8c4.5,1.8,9.1,2.7,13.6,2.7c3.5,0,6.7-0.4,9.5-1.3c2.8-0.8,5.3-1.9,7.5-3.1
		c2.2-1.2,4-2.4,5.5-3.7c1.5-1.3,2.7-2.3,3.5-3.2c0.8-0.8,1.8-2,3-3.4c1.1-1.4,2.2-3.2,3.2-5.3c1-2.1,1.8-4.4,2.5-7
		c0.7-2.6,1.1-5.5,1.1-8.8C1151.8,392.8,1151.1,388.6,1149.7,384.6z"/>
</g>
</svg>
