<?xml version="1.0" encoding="utf-8"?>
<!-- Generator: Adobe Illustrator 21.1.0, SVG Export Plug-In . SVG Version: 6.00 Build 0)  -->
<svg version="1.1" id="Layer_1" xmlns="http://www.w3.org/2000/svg" xmlns:xlink="http://www.w3.org/1999/xlink" x="0px" y="0px"
	 viewBox="0 0 1920 486.2" style="enable-background:new 0 0 1920 486.2;" xml:space="preserve">
<style type="text/css">
	.st0{fill:#FFFFFF;}
</style>
<g>
	<path class="st0" d="M515.2,197.6c-5.8,6.7-12.8,11.8-21,15.5c-8.2,3.6-16.7,5.4-25.5,5.4c-8,0-15.8-1.6-23.5-4.8
		c-7.6-3.2-14.3-7.6-20-13.3c-5.7-5.7-10.1-12.3-13.3-20c-3.2-7.6-4.8-15.5-4.8-23.6c0-7.7,1.4-15.1,4.2-22.1
		c2.8-7.1,6.7-13.4,11.7-19.1c5.8-6.5,12.7-11.5,20.7-15c8-3.6,16.4-5.3,25.1-5.3c1.8,0,4.1,0.1,7.1,0.4c3,0.3,6.2,0.9,9.8,2
		c3.6,1.1,7.3,2.6,11.4,4.5c4,2,8,4.6,11.9,7.9c6.8,5.8,12.1,12.8,15.9,21c3.8,8.2,5.7,16.9,5.7,25.9c0,7.3-1.3,14.5-3.9,21.5
		C524.1,185.5,520.3,191.9,515.2,197.6z M494.4,135.9c-2.2-2.7-4.6-4.8-7-6.3c-2.5-1.6-4.8-2.8-7.2-3.6c-2.3-0.8-4.5-1.4-6.5-1.6
		c-2-0.2-3.6-0.3-4.7-0.3c-4.7,0-9.2,1-13.5,3c-5.8,2.6-10.5,6.5-14,11.9c-3.6,5.4-5.3,11.4-5.3,18c0,1,0.1,2.4,0.2,4.2
		c0.2,1.8,0.6,3.7,1.3,5.8c0.7,2.1,1.6,4.3,2.9,6.6c1.3,2.3,3,4.6,5.3,6.9c3.2,3.1,6.9,5.5,10.9,7.1c4,1.6,8.1,2.4,12.4,2.4
		c1,0,2.3-0.1,3.8-0.2c1.5-0.2,3.2-0.5,5.1-1c1.9-0.5,3.9-1.3,6-2.3c2.1-1.1,4.2-2.4,6.2-4.1c2.7-2.1,4.8-4.4,6.3-6.9
		s2.8-4.9,3.6-7.3c0.8-2.3,1.4-4.5,1.6-6.4c0.2-1.9,0.3-3.5,0.3-4.8C501.9,148.9,499.4,141.9,494.4,135.9z"/>
	<path class="st0" d="M608.5,176.2l-26.1,39.6h-36.6l27.7-35.7c-3.1,0.2-5.8,0.3-7.9,0.2c-2.2-0.1-4.4-0.5-6.6-1.2
		c-4.2-1.1-8-3-11.3-5.7c-3.3-2.7-6.1-5.8-8.4-9.4c-2.3-3.6-4.1-7.4-5.3-11.6c-1.2-4.2-1.8-8.4-1.8-12.8c0-6.1,1.2-11.9,3.6-17.2
		c2.4-5.3,5.6-10,9.6-14c4-4,8.7-7.2,14.1-9.4c5.4-2.3,11.1-3.4,17.1-3.4c2.4,0,6,0.4,10.5,1.3c4.6,0.8,9.4,3,14.5,6.6
		c1.7,1.2,3.6,2.9,5.8,4.9c2.2,2.1,4.3,4.6,6.3,7.7c2,3.1,3.7,6.7,5,10.9c1.3,4.2,2,9,2,14.4c0,3.6-0.3,6.9-0.8,9.9
		c-0.6,3-1.4,5.9-2.5,8.7c-1.1,2.8-2.4,5.5-3.9,8.2C612.1,170.7,610.4,173.4,608.5,176.2z M587.2,129.1c-0.8-0.8-2.1-1.7-3.8-2.8
		c-1.8-1.1-4.1-1.7-7-1.7c-2.1,0-4.1,0.4-6,1.3c-1.9,0.8-3.5,2-4.9,3.3c-1.4,1.4-2.5,3-3.3,4.8c-0.8,1.8-1.2,3.8-1.2,5.9
		c0,2.2,0.4,4.3,1.3,6.2c0.8,1.9,1.9,3.5,3.3,4.8c1.4,1.3,3,2.4,4.9,3.2c1.9,0.8,3.9,1.2,6,1.2c4.5,0,8.1-1.5,11-4.5
		c2.9-3,4.3-6.7,4.3-11c0-1-0.2-2.5-0.7-4.6C590.8,133.1,589.5,131.1,587.2,129.1z"/>
	<path class="st0" d="M654.2,184.5v-27.7h79.3v27.7H654.2z"/>
	<path class="st0" d="M780.5,215.8v-95.4H767V97.8h43.1v117.9H780.5z"/>
	<path class="st0" d="M893.4,195.4v20.4h-29.2v-20.4h-49.1v-22.9l48.4-74.7h29.7v73.3h9.7v24.2H893.4z M846.3,171.2l17.9-0.2
		c0-3.1,0-5.9,0-8.3c0-2.4,0.1-4.8,0.2-7.3l0.5-16.9L846.3,171.2z"/>
	<path class="st0" d="M1012.9,215.8l-5.8-16.5h-39.6l-5.5,16.5H928l47.3-118.6h24.6l47.8,118.6H1012.9z M986.8,138.1l-11.7,36.6
		h24.1L986.8,138.1z"/>
	<path class="st0" d="M1127.8,186.2c-0.3,1.2-0.8,2.8-1.3,4.6c-0.6,1.8-1.4,3.8-2.6,5.9c-1.2,2.1-2.7,4.3-4.6,6.6
		c-1.9,2.3-4.3,4.5-7.4,6.6c-2.6,1.9-6,3.7-10.2,5.5c-4.2,1.8-10,2.7-17.2,2.7c-6.9,0-12.8-0.9-17.5-2.8c-4.8-1.8-8.8-4.1-12.1-6.8
		c-3.3-2.7-5.8-5.7-7.7-8.9c-1.8-3.2-3.1-6.2-3.9-8.9c-0.4-1.3-0.8-2.7-1.1-4.1c-0.3-1.4-0.5-2.9-0.7-4.5c-0.2-1.6-0.3-3.5-0.4-5.6
		c-0.1-2.1-0.2-4.6-0.2-7.5V97.8h30.1v74.8c0,2.9,0.4,5.6,1.1,8c0.7,2.5,2.4,4.6,4.9,6.5c0.8,0.4,1.6,0.8,2.3,1.2
		c0.8,0.3,1.6,0.6,2.3,0.7c0.7,0.1,1.3,0.2,1.9,0.2c0.6,0,1.1,0,1.4,0c4,0,7.4-1.3,10.2-3.8c2.8-2.5,4.2-5.7,4.2-9.6V172V97.8h30.1
		v67c0,3.5-0.1,7-0.2,10.8C1129.2,179.3,1128.7,182.9,1127.8,186.2z"/>
	<path class="st0" d="M1241.9,194.9c-6,7.4-13.2,13-21.6,17s-17.3,6-26.8,6c-1.9,0-4.2-0.1-6.9-0.4c-2.7-0.3-5.7-0.9-9-1.8
		c-3.3-0.9-6.8-2.3-10.4-4c-3.7-1.7-7.4-4.1-11.2-7.1c-1.9-1.4-4.2-3.5-6.9-6.3c-2.7-2.7-5.2-6.1-7.6-10c-2.4-4-4.4-8.5-6.1-13.8
		c-1.7-5.2-2.5-11.1-2.5-17.7c0-7,0.9-13.3,2.8-18.7c1.8-5.5,4.1-10.2,6.7-14.3c2.6-4,5.4-7.4,8.3-10.1s5.3-4.8,7.4-6.3
		c10.6-7.9,22.6-11.8,35.9-11.8c7.2,0,13.7,1,19.3,2.9c5.6,1.9,10.5,4.3,14.7,7.1c4.2,2.8,7.6,5.7,10.4,8.6c2.7,3,4.8,5.5,6.3,7.6
		c0.7,1,1.3,1.9,1.8,2.8c0.6,0.9,1.1,1.9,1.7,3c0.6,1.1,1.1,2.4,1.8,3.9c0.6,1.5,1.4,3.4,2.3,5.6h-34.1l-1.3-1.8l-0.5-0.5l-0.3-0.7
		l-1.3-1.3c-2.8-2.6-6-4.4-9.5-5.5c-3.6-1.1-7.1-1.7-10.7-1.7c-1.2,0-2.9,0.1-5,0.3c-2.1,0.2-4.6,0.9-7.4,2.2
		c-2.9,1.2-5.5,2.8-7.8,4.8c-2.3,2-4.3,4.2-5.9,6.7c-1.7,2.5-3,5.3-3.8,8.3c-0.9,3-1.3,6.1-1.3,9.2c0,2.1,0.4,4.9,1.1,8.3
		c0.7,3.4,2.6,7,5.8,10.9c0.7,0.9,1.7,2,3.2,3.3c1.4,1.3,3.2,2.6,5.3,3.8c2.1,1.2,4.4,2.3,7.1,3.2c2.7,0.9,5.6,1.3,8.9,1.3
		c2.8,0,5.3-0.3,7.7-0.9c2.3-0.6,4.4-1.3,6.2-2.2c1.8-0.8,3.3-1.8,4.6-2.8c1.3-1,2.3-1.8,2.9-2.5c0.6-0.6,1.1-1.1,1.5-1.8
		c0.4-0.6,1.1-1.7,2-3.3h-32.6v-25.1h69.5c-0.2,4.6-0.6,8.9-1.1,12.9c-0.5,4-1.3,7.9-2.3,11.5c-1,3.7-2.3,7.2-4,10.6
		C1246.9,188,1244.7,191.4,1241.9,194.9z"/>
	<path class="st0" d="M1346.1,186.2c-0.3,1.2-0.8,2.8-1.3,4.6c-0.6,1.8-1.4,3.8-2.6,5.9c-1.2,2.1-2.7,4.3-4.6,6.6
		c-1.9,2.3-4.3,4.5-7.4,6.6c-2.6,1.9-6,3.7-10.2,5.5c-4.2,1.8-10,2.7-17.2,2.7c-6.9,0-12.8-0.9-17.5-2.8c-4.8-1.8-8.8-4.1-12.1-6.8
		c-3.3-2.7-5.8-5.7-7.7-8.9c-1.8-3.2-3.1-6.2-3.9-8.9c-0.4-1.3-0.8-2.7-1.1-4.1c-0.3-1.4-0.5-2.9-0.7-4.5c-0.2-1.6-0.3-3.5-0.4-5.6
		c-0.1-2.1-0.2-4.6-0.2-7.5V97.8h30.1v74.8c0,2.9,0.4,5.6,1.1,8c0.7,2.5,2.4,4.6,4.9,6.5c0.8,0.4,1.6,0.8,2.3,1.2
		c0.8,0.3,1.6,0.6,2.3,0.7c0.7,0.1,1.3,0.2,1.9,0.2s1.1,0,1.4,0c4,0,7.4-1.3,10.2-3.8c2.8-2.5,4.2-5.7,4.2-9.6V172V97.8h30.1v67
		c0,3.5-0.1,7-0.2,10.8C1347.5,179.3,1347,182.9,1346.1,186.2z"/>
	<path class="st0" d="M1416.5,210.1c-2.7,2-5.3,3.5-7.8,4.6c-2.5,1.1-4.8,1.8-7,2.3c-2.2,0.5-4.2,0.8-6,0.9s-3.4,0.2-4.8,0.2
		c-5.9,0-11-0.8-15.3-2.3c-4.3-1.6-7.9-3.5-10.9-5.8c-3-2.3-5.3-4.7-7.1-7.4c-1.8-2.6-3.1-5-3.8-7.3c-1-2.9-1.7-5.8-2-8.7
		c-0.3-2.9-0.6-6.2-0.7-9.9h28.7c0,2.9,0.2,5.6,0.7,8.1c0.5,2.5,2,4.5,4.6,5.9c0.6,0.3,1.3,0.7,2.2,1c0.9,0.3,2.1,0.5,3.5,0.5
		c3,0,5.5-0.9,7.4-2.8c1.9-1.9,2.8-4.3,2.8-7.2c0-3.6-1.1-6.3-3.3-8.1c-2.2-1.8-4.7-3.5-7.4-4.9l-5.5-2.2c-2.2-0.9-4.4-1.8-6.4-2.8
		c-2.1-0.9-4.2-2-6.3-3.1c-1.3-0.8-3.1-1.9-5.3-3.4c-2.2-1.5-4.3-3.5-6.3-6c-2-2.5-3.8-5.5-5.3-9c-1.5-3.5-2.3-7.6-2.3-12.3
		c0-1.3,0.1-2.9,0.2-4.8c0.2-1.8,0.6-3.8,1.3-6c0.7-2.2,1.8-4.4,3.2-6.8c1.4-2.3,3.3-4.7,5.8-7c2.7-2.6,5.5-4.6,8.4-6.1
		c2.9-1.5,5.7-2.6,8.4-3.4c2.7-0.8,5.1-1.3,7.3-1.5c2.2-0.2,3.9-0.3,5.3-0.3c1.3,0,3.1,0.1,5.4,0.2c2.3,0.2,4.9,0.8,7.8,1.8
		c3.6,1.2,6.7,2.7,9.3,4.5c2.6,1.8,4.8,3.7,6.5,5.7c1.7,2,3.1,4,4.3,5.9c1.1,2,1.9,3.6,2.5,4.9c0.2,0.7,0.4,1.3,0.7,1.8
		c0.2,0.6,0.4,1.1,0.5,1.7c0.2,0.6,0.4,1.1,0.4,1.8c0.1,0.6,0.2,1.2,0.4,1.8c0.2,1.2,0.3,2.4,0.3,3.4c-0.1,1.1,0,2.4,0.2,3.9h-27.9
		c0-1.6,0-2.7-0.1-3.3c-0.1-0.7-0.2-1.3-0.4-1.8c-0.6-2-1.7-3.6-3.3-4.7c-1.7-1.1-3.6-1.7-5.7-1.7c-2.8,0-5,0.8-6.7,2.5
		c-1.7,1.7-2.5,4-2.5,6.8c0,1.2,0.2,2.3,0.6,3.1c0.4,0.8,0.8,1.5,1.1,1.9c1.3,1.7,3.2,3.2,5.5,4.5c1.3,0.7,2.8,1.3,4.3,2
		c1.5,0.7,3.3,1.4,5.4,2.3c5.1,2.3,9.2,4.4,12.4,6.3c3.1,1.8,5.5,3.5,7,4.9c0.9,0.7,1.7,1.4,2.3,2.2c1,0.9,2,2.1,3,3.5
		c2.9,3.9,4.6,7.5,5.1,10.8c0.5,3.3,0.7,5.9,0.7,7.8c0,1.8-0.1,3.9-0.4,6.3c-0.3,2.5-0.9,5-2,7.8c-1.1,2.7-2.6,5.5-4.7,8.4
		C1422.8,204.6,1420,207.4,1416.5,210.1z"/>
	<path class="st0" d="M1485.8,124.6v91.2h-29.9v-91.4h-23.1V97.8h76.5v26.7H1485.8z"/>
	<path class="st0" d="M53,277.4v91.2H23.1v-91.4H0v-26.6h76.5v26.7H53z"/>
	<path class="st0" d="M147.8,368.6v-44.4h-36.1v44.4H81.5V250.7h30.2v44.8h35.9v-44.8h30.1v117.9H147.8z"/>
	<path class="st0" d="M182.7,368.6V250.7h67v26.4h-35.9v17.5h35.9v27.9H214v19h36.1v27.1H182.7z"/>
	<path class="st0" d="M385.9,347.7c-6,7.4-13.2,13-21.6,17c-8.4,4-17.3,6-26.8,6c-1.9,0-4.2-0.1-6.9-0.4c-2.7-0.3-5.7-0.9-9-1.8
		c-3.3-0.9-6.8-2.3-10.4-4c-3.7-1.7-7.4-4.1-11.2-7.1c-1.9-1.4-4.2-3.5-6.9-6.3c-2.7-2.7-5.2-6.1-7.6-10c-2.4-4-4.4-8.5-6.1-13.8
		c-1.7-5.2-2.5-11.1-2.5-17.7c0-7,0.9-13.3,2.8-18.7c1.8-5.5,4.1-10.2,6.7-14.3c2.6-4,5.4-7.4,8.3-10.1c2.9-2.7,5.3-4.8,7.4-6.3
		c10.6-7.9,22.6-11.8,35.9-11.8c7.2,0,13.7,1,19.3,2.9c5.6,1.9,10.5,4.3,14.7,7.1c4.2,2.8,7.6,5.7,10.4,8.6c2.7,3,4.8,5.5,6.3,7.6
		c0.7,1,1.3,1.9,1.8,2.8c0.6,0.9,1.1,1.9,1.7,3c0.6,1.1,1.1,2.4,1.8,3.9c0.6,1.5,1.4,3.4,2.3,5.6h-34.1l-1.3-1.8l-0.5-0.5l-0.3-0.7
		l-1.3-1.3c-2.8-2.6-6-4.4-9.5-5.5c-3.6-1.1-7.1-1.7-10.7-1.7c-1.2,0-2.9,0.1-5,0.3c-2.1,0.2-4.6,0.9-7.4,2.2
		c-2.9,1.2-5.5,2.8-7.8,4.8c-2.3,2-4.3,4.2-5.9,6.7c-1.7,2.5-3,5.3-3.8,8.3c-0.9,3-1.3,6.1-1.3,9.2c0,2.1,0.4,4.9,1.1,8.3
		c0.7,3.4,2.6,7,5.8,10.9c0.7,0.9,1.7,2,3.2,3.3c1.4,1.3,3.2,2.6,5.3,3.8c2.1,1.2,4.4,2.3,7.1,3.2c2.7,0.9,5.6,1.3,8.9,1.3
		c2.8,0,5.3-0.3,7.7-0.9c2.3-0.6,4.4-1.3,6.2-2.2c1.8-0.8,3.3-1.8,4.6-2.8c1.3-1,2.3-1.8,2.9-2.5c0.6-0.6,1.1-1.1,1.5-1.8
		c0.4-0.6,1.1-1.7,2-3.3h-32.6v-25.1h69.5c-0.2,4.6-0.6,8.9-1.1,12.9c-0.5,4-1.3,7.9-2.3,11.5c-1,3.7-2.3,7.2-4,10.6
		C390.9,340.9,388.7,344.3,385.9,347.7z"/>
	<path class="st0" d="M471.4,368.6l-5.8-16.5H426l-5.5,16.5h-33.9L433.8,250h24.6l47.8,118.6H471.4z M445.3,290.9l-11.7,36.6h24.1
		L445.3,290.9z"/>
	<path class="st0" d="M560.9,368.6l-24.1-37.8v37.8H507V250.7h43.8c5.6,0,10.7,0.4,15.5,1.2c4.8,0.8,9.5,3,14.2,6.5
		c1.4,1.1,3,2.6,4.7,4.4c1.7,1.8,3.3,4.1,4.8,6.8c1.5,2.7,2.8,5.8,3.8,9.3c1,3.5,1.5,7.5,1.5,12.1c0,4.7-0.6,8.8-1.7,12.4
		c-1.1,3.6-2.5,6.7-4.1,9.3c-1.6,2.6-3.3,4.8-5.2,6.5c-1.8,1.7-3.5,3.1-4.9,4.1c-1.2,0.9-2.5,1.7-3.8,2.3c-1.3,0.7-3.6,1.6-6.7,2.8
		l28.6,40.3H560.9z M563.1,283.4c-1.9-3-4.3-4.8-7.1-5.4c-2.8-0.6-5.9-0.9-9.1-0.9h-10v32.4h9.5c0.3-0.1,0.8-0.2,1.3-0.2
		c0.8,0,1.4-0.1,1.8-0.2c0.9-0.1,1.7-0.2,2.5-0.3c0.8-0.1,1.6-0.3,2.5-0.5c1-0.3,2.1-0.9,3.3-1.6c1.2-0.7,2.4-1.7,3.4-3
		c1.1-1.3,2-2.9,2.8-4.8c0.8-1.9,1.2-4.1,1.2-6.7c0-1.6-0.1-3.1-0.4-4.5C564.6,286.3,564,284.9,563.1,283.4z"/>
	<path class="st0" d="M644.5,368.6h-45.8V250.7h46.1c8.2,0,16,1.5,23.1,4.6c7.2,3.1,13.4,7.3,18.8,12.6c5.3,5.3,9.5,11.6,12.6,18.8
		c3.1,7.2,4.6,14.8,4.6,23c0,8.2-1.6,15.9-4.7,23.1c-3.1,7.1-7.4,13.4-12.8,18.7c-5.4,5.3-11.7,9.6-19,12.6
		C660.3,367.1,652.6,368.6,644.5,368.6z M642.6,277.4h-13.7v64h13.7c4.3,0,8.4-0.8,12.1-2.5c3.7-1.7,7-4,9.8-6.9
		c2.8-2.9,5-6.3,6.6-10.1c1.6-3.8,2.4-8,2.4-12.4c0-4.3-0.8-8.5-2.4-12.4c-1.6-3.9-3.8-7.3-6.6-10.2c-2.8-2.9-6-5.2-9.8-6.9
		C651,278.3,647,277.4,642.6,277.4z"/>
	<path class="st0" d="M707.3,368.6V250.7h67v26.4h-35.9v17.5h35.9v27.9h-35.7v19h36.1v27.1H707.3z"/>
	<path class="st0" d="M853.4,368.6l-44.3-64.5v64.5h-29.6V250.7h26.2c5.2,7.5,10.4,14.7,15.4,21.8c5,7.1,10,14.4,15,22l13.9,21.2
		v-65h29.7v117.9H853.4z"/>
	<path class="st0" d="M968.9,368.6l-24.1-37.8v37.8h-29.9V250.7h43.8c5.6,0,10.7,0.4,15.5,1.2c4.8,0.8,9.5,3,14.2,6.5
		c1.4,1.1,3,2.6,4.7,4.4c1.7,1.8,3.3,4.1,4.8,6.8c1.5,2.7,2.8,5.8,3.8,9.3c1,3.5,1.5,7.5,1.5,12.1c0,4.7-0.6,8.8-1.7,12.4
		c-1.1,3.6-2.5,6.7-4.1,9.3c-1.6,2.6-3.3,4.8-5.2,6.5c-1.8,1.7-3.5,3.1-4.9,4.1c-1.2,0.9-2.5,1.7-3.8,2.3c-1.3,0.7-3.6,1.6-6.7,2.8
		l28.6,40.3H968.9z M971,283.4c-1.9-3-4.3-4.8-7.1-5.4c-2.8-0.6-5.9-0.9-9.1-0.9h-10v32.4h9.5c0.3-0.1,0.8-0.2,1.3-0.2
		c0.8,0,1.4-0.1,1.8-0.2c0.9-0.1,1.7-0.2,2.5-0.3c0.8-0.1,1.6-0.3,2.5-0.5c1-0.3,2.1-0.9,3.3-1.6c1.2-0.7,2.4-1.7,3.4-3
		c1.1-1.3,2-2.9,2.8-4.8c0.8-1.9,1.2-4.1,1.2-6.7c0-1.6-0.1-3.1-0.4-4.5C972.5,286.3,971.9,284.9,971,283.4z"/>
	<path class="st0" d="M1006.6,368.6V250.7h67v26.4h-35.9v17.5h35.9v27.9h-35.7v19h36.1v27.1H1006.6z"/>
	<path class="st0" d="M1142.6,362.9c-2.7,2-5.3,3.5-7.8,4.6c-2.5,1.1-4.8,1.8-7,2.3c-2.2,0.5-4.2,0.8-6,0.9s-3.4,0.2-4.8,0.2
		c-5.9,0-11-0.8-15.3-2.3s-7.9-3.5-10.9-5.8c-3-2.3-5.3-4.7-7.1-7.4c-1.8-2.6-3.1-5-3.8-7.3c-1-2.9-1.7-5.8-2-8.7
		c-0.3-2.9-0.6-6.2-0.7-9.9h28.7c0,2.9,0.2,5.6,0.7,8.1c0.5,2.5,2,4.5,4.6,5.9c0.6,0.3,1.3,0.7,2.2,1c0.9,0.3,2.1,0.5,3.5,0.5
		c3,0,5.5-0.9,7.4-2.8c1.9-1.9,2.8-4.3,2.8-7.2c0-3.6-1.1-6.3-3.3-8.1c-2.2-1.8-4.7-3.5-7.4-4.9l-5.5-2.2c-2.2-0.9-4.4-1.8-6.4-2.8
		c-2.1-0.9-4.2-2-6.3-3.1c-1.3-0.8-3.1-1.9-5.3-3.4c-2.2-1.5-4.3-3.5-6.3-6c-2-2.5-3.8-5.5-5.3-9c-1.5-3.5-2.3-7.6-2.3-12.3
		c0-1.3,0.1-2.9,0.2-4.8c0.2-1.8,0.6-3.8,1.3-6c0.7-2.2,1.8-4.4,3.2-6.8c1.4-2.3,3.3-4.7,5.8-7c2.7-2.6,5.5-4.6,8.4-6.1
		c2.9-1.5,5.7-2.6,8.4-3.4c2.7-0.8,5.1-1.3,7.3-1.5c2.2-0.2,3.9-0.3,5.3-0.3c1.3,0,3.1,0.1,5.4,0.2c2.3,0.2,4.9,0.8,7.8,1.8
		c3.6,1.2,6.7,2.7,9.3,4.5c2.6,1.8,4.8,3.7,6.5,5.7c1.7,2,3.1,4,4.3,5.9c1.1,2,1.9,3.6,2.5,4.9c0.2,0.7,0.4,1.3,0.7,1.8
		c0.2,0.6,0.4,1.1,0.5,1.7c0.2,0.6,0.4,1.1,0.4,1.8c0.1,0.6,0.2,1.2,0.4,1.8c0.2,1.2,0.3,2.4,0.3,3.4c-0.1,1.1,0,2.4,0.2,3.9h-27.9
		c0-1.6,0-2.7-0.1-3.3c-0.1-0.7-0.2-1.3-0.4-1.8c-0.6-2-1.7-3.6-3.3-4.7c-1.7-1.1-3.6-1.7-5.7-1.7c-2.8,0-5,0.8-6.7,2.5
		c-1.7,1.7-2.5,4-2.5,6.8c0,1.2,0.2,2.3,0.6,3.1c0.4,0.8,0.8,1.5,1.1,1.9c1.3,1.7,3.2,3.2,5.5,4.5c1.3,0.7,2.8,1.3,4.3,2
		c1.5,0.7,3.3,1.4,5.4,2.3c5.1,2.3,9.2,4.4,12.4,6.3c3.1,1.8,5.5,3.5,7,4.9c0.9,0.7,1.7,1.4,2.3,2.2c1,0.9,2,2.1,3,3.5
		c2.9,3.9,4.6,7.5,5.1,10.8c0.5,3.3,0.7,5.9,0.7,7.8c0,1.8-0.1,3.9-0.4,6.3c-0.3,2.5-0.9,5-2,7.8c-1.1,2.7-2.6,5.5-4.7,8.4
		C1149,357.5,1146.1,360.3,1142.6,362.9z"/>
	<path class="st0" d="M1268.2,349.1c-5.7,7-12.7,12.4-21,16.1s-17,5.6-26,5.6c-8,0-15.8-1.6-23.5-4.8c-7.6-3.2-14.3-7.6-20-13.3
		c-5.7-5.7-10.1-12.3-13.3-20c-3.2-7.6-4.8-15.5-4.8-23.5c0-1.8,0.1-4.1,0.4-7c0.3-2.9,0.9-6.2,1.9-9.8c1-3.6,2.5-7.4,4.4-11.4
		c1.9-4,4.6-7.9,7.9-11.8c2.8-3.3,6-6.3,9.6-9c3.6-2.7,7.4-4.9,11.4-6.8c4-1.8,8.2-3.3,12.6-4.3c4.4-1,8.8-1.5,13.1-1.5
		c5,0,9.7,0.6,13.9,1.7c4.3,1.1,8.1,2.5,11.5,4c3.4,1.6,6.3,3.2,8.8,4.8c2.5,1.7,4.3,3.1,5.7,4.2c6.8,5.8,12.1,12.8,15.9,21
		c3.8,8.2,5.7,16.9,5.7,25.9c0,1.8-0.1,4.1-0.4,7c-0.3,2.9-0.9,6.1-1.9,9.6c-1,3.5-2.5,7.2-4.4,11.2
		C1274,341.2,1271.4,345.2,1268.2,349.1z M1252.3,297.8c-1.2-3.2-2.9-6.2-4.9-8.8c-2.1-2.6-4.5-4.9-7.2-6.8
		c-2.7-1.9-5.7-3.3-8.9-4.3c-3.2-1-6.6-1.5-10-1.5c-1,0-2.4,0.1-4.2,0.3c-1.8,0.2-3.7,0.7-5.8,1.3c-2.1,0.7-4.3,1.6-6.6,2.8
		c-2.3,1.2-4.6,2.8-6.7,4.8c-3.2,3.1-5.7,6.7-7.4,10.9c-1.7,4.1-2.5,8.4-2.5,12.9c0,1,0.1,2.4,0.2,4.2c0.2,1.8,0.6,3.7,1.3,5.8
		c0.7,2.1,1.6,4.3,2.9,6.7c1.3,2.3,3,4.6,5.3,6.7c3,3.1,6.6,5.5,10.8,7.2c4.2,1.7,8.4,2.5,12.6,2.5c3.2,0,6.2-0.4,8.8-1.2
		c2.6-0.8,4.9-1.7,6.9-2.8c2-1.1,3.7-2.3,5.1-3.4c1.4-1.2,2.5-2.1,3.3-2.9c0.8-0.8,1.7-1.8,2.8-3.2c1.1-1.3,2-3,2.9-4.9
		c0.9-1.9,1.7-4.1,2.3-6.5c0.7-2.4,1-5.1,1-8.1C1254.3,305.4,1253.7,301.5,1252.3,297.8z"/>
	<path class="st0" d="M1340,368.6l-24.1-37.8v37.8h-29.9V250.7h43.8c5.6,0,10.7,0.4,15.5,1.2c4.8,0.8,9.5,3,14.2,6.5
		c1.4,1.1,3,2.6,4.7,4.4c1.7,1.8,3.3,4.1,4.8,6.8c1.5,2.7,2.8,5.8,3.8,9.3c1,3.5,1.5,7.5,1.5,12.1c0,4.7-0.6,8.8-1.7,12.4
		c-1.1,3.6-2.5,6.7-4.1,9.3c-1.6,2.6-3.3,4.8-5.2,6.5c-1.8,1.7-3.5,3.1-4.9,4.1c-1.2,0.9-2.5,1.7-3.8,2.3c-1.3,0.7-3.6,1.6-6.7,2.8
		l28.6,40.3H1340z M1342.2,283.4c-1.9-3-4.3-4.8-7.1-5.4c-2.8-0.6-5.9-0.9-9.1-0.9h-10v32.4h9.5c0.3-0.1,0.8-0.2,1.3-0.2
		c0.8,0,1.4-0.1,1.8-0.2c0.9-0.1,1.7-0.2,2.5-0.3c0.8-0.1,1.6-0.3,2.5-0.5c1-0.3,2.1-0.9,3.3-1.6c1.2-0.7,2.4-1.7,3.4-3
		c1.1-1.3,2-2.9,2.8-4.8c0.8-1.9,1.2-4.1,1.2-6.7c0-1.6-0.1-3.1-0.4-4.5C1343.7,286.3,1343.1,284.9,1342.2,283.4z"/>
	<path class="st0" d="M1428.2,277.4v91.2h-29.9v-91.4h-23.1v-26.6h76.5v26.7H1428.2z"/>
	<path class="st0" d="M1462.6,388.8c-1.9,2.2-4.1,3.8-6.6,4.8c-2.5,1-5.2,1.6-8.1,1.8h-3h-4.8v-13.9c4.9,0.1,8.1-0.9,9.5-2.9
		c1.4-2.1,2-5.4,1.7-10.1h-11.2v-27.9h27.6v30.1c0,3.5-0.2,6.6-0.8,9.4C1466.4,383.1,1465,385.9,1462.6,388.8z"/>
	<path class="st0" d="M1547.3,277.4v91.2h-29.9v-91.4h-23.1v-26.6h76.5v26.7H1547.3z"/>
	<path class="st0" d="M1575.9,368.6V250.7h30.1v117.9H1575.9z"/>
	<path class="st0" d="M1674.6,362.9c-2.7,2-5.3,3.5-7.8,4.6c-2.5,1.1-4.8,1.8-7,2.3c-2.2,0.5-4.2,0.8-6,0.9s-3.4,0.2-4.8,0.2
		c-5.9,0-11-0.8-15.3-2.3s-7.9-3.5-10.9-5.8c-3-2.3-5.3-4.7-7.1-7.4c-1.8-2.6-3.1-5-3.8-7.3c-1-2.9-1.7-5.8-2-8.7
		c-0.3-2.9-0.6-6.2-0.7-9.9h28.7c0,2.9,0.2,5.6,0.7,8.1c0.5,2.5,2,4.5,4.6,5.9c0.6,0.3,1.3,0.7,2.2,1c0.9,0.3,2.1,0.5,3.5,0.5
		c3,0,5.5-0.9,7.4-2.8c1.9-1.9,2.8-4.3,2.8-7.2c0-3.6-1.1-6.3-3.3-8.1s-4.7-3.5-7.4-4.9l-5.5-2.2c-2.2-0.9-4.4-1.8-6.4-2.8
		c-2.1-0.9-4.2-2-6.3-3.1c-1.3-0.8-3.1-1.9-5.3-3.4c-2.2-1.5-4.3-3.5-6.3-6c-2-2.5-3.8-5.5-5.3-9c-1.5-3.5-2.3-7.6-2.3-12.3
		c0-1.3,0.1-2.9,0.2-4.8c0.2-1.8,0.6-3.8,1.3-6c0.7-2.2,1.8-4.4,3.2-6.8c1.4-2.3,3.3-4.7,5.8-7c2.7-2.6,5.5-4.6,8.4-6.1
		c2.9-1.5,5.7-2.6,8.4-3.4c2.7-0.8,5.1-1.3,7.3-1.5c2.2-0.2,3.9-0.3,5.3-0.3c1.3,0,3.1,0.1,5.4,0.2c2.3,0.2,4.9,0.8,7.8,1.8
		c3.6,1.2,6.7,2.7,9.3,4.5c2.6,1.8,4.8,3.7,6.5,5.7c1.7,2,3.1,4,4.3,5.9c1.1,2,1.9,3.6,2.5,4.9c0.2,0.7,0.4,1.3,0.7,1.8
		c0.2,0.6,0.4,1.1,0.5,1.7c0.2,0.6,0.4,1.1,0.4,1.8c0.1,0.6,0.2,1.2,0.4,1.8c0.2,1.2,0.3,2.4,0.3,3.4c-0.1,1.1,0,2.4,0.2,3.9h-27.9
		c0-1.6,0-2.7-0.1-3.3c-0.1-0.7-0.2-1.3-0.4-1.8c-0.6-2-1.7-3.6-3.3-4.7c-1.7-1.1-3.6-1.7-5.7-1.7c-2.8,0-5,0.8-6.7,2.5
		c-1.7,1.7-2.5,4-2.5,6.8c0,1.2,0.2,2.3,0.6,3.1c0.4,0.8,0.8,1.5,1.1,1.9c1.3,1.7,3.2,3.2,5.5,4.5c1.3,0.7,2.8,1.3,4.3,2
		c1.5,0.7,3.3,1.4,5.4,2.3c5.1,2.3,9.2,4.4,12.4,6.3c3.1,1.8,5.5,3.5,7,4.9c0.9,0.7,1.7,1.4,2.3,2.2c1,0.9,2,2.1,3,3.5
		c2.9,3.9,4.6,7.5,5.1,10.8c0.5,3.3,0.7,5.9,0.7,7.8c0,1.8-0.1,3.9-0.4,6.3c-0.3,2.5-0.9,5-2,7.8c-1.1,2.7-2.6,5.5-4.7,8.4
		C1681,357.5,1678.2,360.3,1674.6,362.9z"/>
	<path class="st0" d="M1767.3,368.6l-44.3-64.5v64.5h-29.6V250.7h26.2c5.2,7.5,10.4,14.7,15.4,21.8c5,7.1,10,14.4,15,22l13.9,21.2
		v-65h29.7v117.9H1767.3z"/>
	<path class="st0" d="M1905.5,349.1c-5.7,7-12.7,12.4-21,16.1c-8.3,3.7-17,5.6-26,5.6c-8,0-15.8-1.6-23.5-4.8s-14.3-7.6-20-13.3
		c-5.7-5.7-10.1-12.3-13.3-20c-3.2-7.6-4.8-15.5-4.8-23.5c0-1.8,0.1-4.1,0.4-7c0.3-2.9,0.9-6.2,1.9-9.8c1-3.6,2.5-7.4,4.4-11.4
		c1.9-4,4.6-7.9,7.9-11.8c2.8-3.3,6-6.3,9.6-9c3.6-2.7,7.4-4.9,11.4-6.8s8.2-3.3,12.6-4.3c4.4-1,8.8-1.5,13.1-1.5
		c5,0,9.6,0.6,13.9,1.7c4.3,1.1,8.1,2.5,11.5,4c3.4,1.6,6.3,3.2,8.8,4.8c2.5,1.7,4.3,3.1,5.7,4.2c6.8,5.8,12.1,12.8,15.9,21
		c3.8,8.2,5.7,16.9,5.7,25.9c0,1.8-0.1,4.1-0.4,7c-0.3,2.9-0.9,6.1-1.9,9.6c-1,3.5-2.5,7.2-4.4,11.2
		C1911.3,341.2,1908.7,345.2,1905.5,349.1z M1889.6,297.8c-1.2-3.2-2.9-6.2-4.9-8.8c-2.1-2.6-4.5-4.9-7.2-6.8
		c-2.7-1.9-5.7-3.3-8.9-4.3c-3.2-1-6.6-1.5-10-1.5c-1,0-2.4,0.1-4.2,0.3c-1.8,0.2-3.7,0.7-5.8,1.3c-2.1,0.7-4.3,1.6-6.6,2.8
		c-2.3,1.2-4.6,2.8-6.7,4.8c-3.2,3.1-5.7,6.7-7.3,10.9c-1.7,4.1-2.5,8.4-2.5,12.9c0,1,0.1,2.4,0.2,4.2c0.2,1.8,0.6,3.7,1.3,5.8
		c0.7,2.1,1.6,4.3,2.9,6.7c1.3,2.3,3,4.6,5.3,6.7c3,3.1,6.6,5.5,10.8,7.2c4.2,1.7,8.4,2.5,12.6,2.5c3.2,0,6.2-0.4,8.8-1.2
		c2.6-0.8,4.9-1.7,6.9-2.8c2-1.1,3.7-2.3,5.1-3.4c1.4-1.2,2.5-2.1,3.3-2.9c0.8-0.8,1.7-1.8,2.8-3.2c1.1-1.3,2-3,2.9-4.9
		c0.9-1.9,1.7-4.1,2.3-6.5c0.7-2.4,1-5.1,1-8.1C1891.6,305.4,1890.9,301.5,1889.6,297.8z"/>
</g>
</svg>
