<?xml version="1.0" encoding="utf-8"?>
<!-- Generator: Adobe Illustrator 21.1.0, SVG Export Plug-In . SVG Version: 6.00 Build 0)  -->
<svg version="1.1" id="Layer_1" xmlns="http://www.w3.org/2000/svg" xmlns:xlink="http://www.w3.org/1999/xlink" x="0px" y="0px"
	 viewBox="0 0 1920 938" style="enable-background:new 0 0 1920 938;" xml:space="preserve">
<style type="text/css">
	.st0{fill:#FFFFFF;}
	.st1{fill:#FFE843;}
</style>
<g>
	<g>
		<path class="st0" d="M1889.8,152.9c0,76.7-62.8,138.9-139.5,138.9l-98.5,0V14.1l99.1,0C1827.6,14.1,1889.8,76.3,1889.8,152.9
			 M1815.2,152.4c0-42.2-33-72.8-73.7-73l-16.4-0.2v146.4l16.4,0C1782.2,225.6,1815.2,194.6,1815.2,152.4"/>
		<path class="st0" d="M470,152.4c0,81-66.3,146.6-147.3,146.6l-3.9,0v-76.5h6.8c37.6,0,68-31.3,68-70.3c0-38.9-30.4-70.3-68-70.5
			l-6.8,0v-76h4.5C404.4,5.7,470,71.4,470,152.4"/>
		<polygon class="st0" points="638.5,75.8 553.9,75.8 553.9,117.5 638.5,117.5 638.5,182.8 554.3,182.8 554.3,228.5 639.3,228.5 
			639.3,291.9 480.7,291.9 480.7,14 638.5,14 		"/>
		<polygon class="st0" points="816.5,76.6 726,76.6 726,121.1 816.1,121.1 816.1,186 726,186 726,291.9 655.5,291.9 655.5,14 
			816.5,14 		"/>
		<polygon class="st0" points="991.6,75.8 907,75.8 907,117.5 991.6,117.5 991.6,182.8 907.4,182.8 907.4,228.5 992.4,228.5 
			992.4,291.9 833.8,291.9 833.8,14 991.6,14 		"/>
		<path class="st0" d="M1209.8,117.9c-2-4-4.3-7.1-6.7-10.6c-13.4-17.7-33.5-27.5-55.9-27.5c-14.6,0-24.8,3.9-29.9,6.3
			c-27.2,11.4-43.7,37.8-43.7,66.9c0.4,13.4,3.5,22.4,5.5,27.1c5.5,13,25.2,45.2,68.1,45.2c11.4,0,19.3-2.3,24-3.9
			c4.3-1.6,19.7-8.6,30.3-21.2c2.8-3.5,4.3-5.9,8.7-13h77.1c-5.9,18.1-9.4,26-13.8,34.2c-26.8,49.6-71.2,66.9-90.9,71.6
			c-5.9,1.6-18.5,3.9-34.6,3.9c-70.5,0-107.8-43.3-122-63.7c-9.1-13-24-38.6-24-78.3c0-75.6,49.6-114.5,72-127.9
			c11.4-6.7,37-18.9,72.4-18.9c18.1,0,55.1,3.1,91.7,33.1c34.2,28,44.1,60.6,48.8,76.7H1209.8z"/>
		<polygon class="st0" points="1458,76.6 1402.5,76.6 1402.5,291.9 1332.1,291.9 1332.1,76.2 1277.8,76.2 1277.8,14 1458,14 		"/>
		<polygon class="st0" points="1632.9,75.8 1548.3,75.8 1548.3,117.5 1632.9,117.5 1632.9,182.8 1548.7,182.8 1548.7,228.5 
			1633.7,228.5 1633.7,291.9 1475.1,291.9 1475.1,14 1632.9,14 		"/>
		<polygon class="st0" points="1857.9,20.4 1857.9,13.8 1883.5,13.8 1883.5,20.5 1874.8,20.5 1874.8,44.2 1866.7,44.2 1866.7,20.4 
					"/>
		<path class="st0" d="M1912.3,22.9L1912.3,22.9l-5.8,21.3h-6.5l-5.8-21.3l-0.3-1.3c0.1,0.6-0.1,22.6-0.1,22.6h-7.2V13.8h11.2
			l4.7,17.9c0.3,1.1,0.6,2.7,0.6,4.6c0,0.5,0.1,1,0.1,1.5c0-1.1,0-2.2,0.2-3.2c0.2-1.3,0.3-2.2,0.5-2.9l4.8-17.9h11.2v30.4h-7.5
			V22.9z"/>
	</g>
	<rect x="0.3" class="st1" width="304.1" height="304.1"/>
	<g>
		<path class="st0" d="M449.3,541c-6.9,12.5-14.6,23.1-23.1,31.7c-8.5,8.6-17,15.8-25.5,21.5c-8.5,5.7-16.6,10.1-24.3,13.1
			c-7.7,3.1-14.1,5.1-19.1,6.2c-2.9,0.5-7.4,1.3-13.6,2.4c-6.1,1.1-13.3,1.6-21.5,1.6c-17.8,0-33.6-2.4-47.4-7.2
			c-13.8-4.8-25.8-10.6-35.9-17.3c-10.1-6.8-18.5-13.8-25.1-21.1c-6.6-7.3-11.7-13.6-15.1-18.9c-2.4-3.2-5-7.2-7.8-12.2
			c-2.8-4.9-5.4-10.7-8-17.3c-2.5-6.6-4.6-14.1-6.2-22.3c-1.6-8.2-2.4-17.4-2.4-27.5c0-19.1,2.7-36,8.2-50.6
			c5.4-14.6,12-27.2,19.7-37.9c7.7-10.6,15.7-19.3,24.1-25.9c8.4-6.6,15.3-11.7,20.9-15.1c2.9-1.9,6.7-3.8,11.4-6
			c4.6-2.1,10-4.2,16.1-6.2c6.1-2,13-3.6,20.5-5c7.6-1.3,16-2,25.3-2c4.5,0,10.2,0.3,16.9,1c6.8,0.7,14.2,2.1,22.3,4.4
			c8.1,2.3,16.7,5.6,25.9,10.2c9.2,4.5,18.4,10.5,27.7,17.9c8.8,7.2,16.1,14.5,21.9,21.9c5.8,7.4,10.6,14.7,14.3,21.9
			c3.2,6.6,6.1,13.5,8.8,20.7c0.8,2.4,1.6,4.7,2.4,6.8c0.8,2.1,1.5,4.3,2,6.4h-78.5c-1.3-2.1-2.5-4-3.6-5.8c-1.1-1.7-2-3.3-2.8-4.6
			c-6.9-9.3-15.2-16.3-24.9-20.9c-9.7-4.6-20.3-7-31.7-7c-7.4,0-13.7,0.7-18.7,2c-5,1.3-8.9,2.7-11.6,4
			c-13.5,6.1-24.4,15.2-32.5,27.3c-8.1,12.1-12,25.6-11.8,40.5c0,6.9,0.7,12.6,2,17.1c1.3,4.5,2.5,8,3.6,10.4
			c1.3,3.2,3.6,7.4,6.8,12.6s7.6,10.2,13.2,15.1c5.6,4.9,12.4,9.1,20.5,12.6c8.1,3.5,17.6,5.2,28.5,5.2c5.8,0,10.8-0.5,14.7-1.4
			c4-0.9,7.2-1.8,9.6-2.6c2.4-0.5,6.7-2.5,13-6c6.2-3.5,12-8.5,17.3-15.1c0.8-0.8,1.5-1.7,2.2-2.6c0.7-0.9,1.3-1.8,1.8-2.6l5.2-8
			h78.1c-3.5,9.8-6.1,17.1-8,21.9C453.4,533.1,451.5,537.3,449.3,541z"/>
		<path class="st0" d="M601.2,612.4l-57.4-90.1v90.1h-71.3V331h104.4c13.3,0,25.6,0.9,37.1,2.8c11.4,1.9,22.7,7,33.9,15.5
			c3.4,2.7,7.2,6.2,11.2,10.6c4,4.4,7.8,9.8,11.4,16.1c3.6,6.4,6.6,13.8,9,22.1c2.4,8.4,3.6,18,3.6,28.9c0,11.2-1.3,21-4,29.5
			c-2.7,8.5-5.9,15.9-9.8,22.1c-3.9,6.2-8,11.4-12.4,15.5c-4.4,4.1-8.3,7.4-11.8,9.8c-2.9,2.1-6,4-9.2,5.6
			c-3.2,1.6-8.5,3.9-15.9,6.8l68.2,96H601.2z M606.3,409.1c-4.5-7.2-10.2-11.5-16.9-13c-6.8-1.5-14-2.2-21.7-2.2h-23.9v77.3h22.7
			c0.8-0.3,1.9-0.4,3.2-0.4c1.9,0,3.3-0.1,4.4-0.4c2.1-0.3,4.1-0.5,6-0.8c1.9-0.3,3.8-0.7,6-1.2c2.4-0.8,5-2.1,8-3.8
			c2.9-1.7,5.6-4.1,8.2-7.2c2.5-3.1,4.7-6.8,6.6-11.4c1.9-4.5,2.8-9.8,2.8-15.9c0-3.7-0.3-7.3-1-10.8
			C609.9,416,608.5,412.6,606.3,409.1z"/>
		<path class="st0" d="M947.9,565.7c-13.5,16.7-30.2,29.6-50,38.5c-19.8,8.9-40.4,13.3-62,13.3c-19.1,0-37.8-3.8-56-11.4
			c-18.2-7.6-34.1-18.1-47.6-31.7c-13.6-13.6-24.1-29.4-31.7-47.6c-7.6-18.2-11.4-36.9-11.4-56c0-4.2,0.3-9.8,1-16.7
			c0.7-6.9,2.2-14.7,4.6-23.3c2.4-8.6,5.9-17.7,10.6-27.1c4.6-9.4,11-18.8,18.9-28.1c6.6-8,14.3-15.1,22.9-21.5
			c8.6-6.4,17.7-11.8,27.3-16.1c9.6-4.4,19.6-7.8,30.1-10.2c10.5-2.4,20.9-3.6,31.3-3.6c12,0,23,1.3,33.3,4
			c10.2,2.7,19.4,5.8,27.5,9.6c8.1,3.7,15.1,7.6,20.9,11.6c5.8,4,10.4,7.3,13.5,10c16.2,13.8,28.8,30.6,37.9,50.2
			c9,19.7,13.5,40.3,13.5,61.8c0,4.3-0.3,9.8-1,16.7c-0.7,6.9-2.2,14.5-4.6,22.9c-2.4,8.4-5.9,17.3-10.6,26.7
			C961.8,547.1,955.6,556.4,947.9,565.7z M910,443.4c-2.9-7.7-6.8-14.7-11.8-20.9c-4.9-6.2-10.6-11.6-17.1-16.1
			c-6.5-4.5-13.6-8-21.3-10.4c-7.7-2.4-15.7-3.6-23.9-3.6c-2.4,0-5.7,0.3-10,0.8c-4.3,0.5-8.8,1.6-13.7,3.2
			c-4.9,1.6-10.2,3.9-15.7,6.8c-5.6,2.9-10.9,6.8-15.9,11.6c-7.7,7.4-13.6,16.1-17.5,25.9c-4,9.8-6,20.1-6,30.7
			c0,2.4,0.2,5.7,0.6,10c0.4,4.3,1.4,8.9,3,14c1.6,5,3.9,10.4,7,15.9c3.1,5.6,7.2,10.9,12.6,15.9c7.2,7.4,15.7,13.1,25.7,17.1
			c10,4,20,6,30.1,6c7.7,0,14.7-0.9,20.9-2.8c6.2-1.9,11.8-4.1,16.5-6.8c4.8-2.7,8.8-5.4,12.2-8.2c3.3-2.8,5.9-5.1,7.8-7
			c1.9-1.9,4-4.4,6.6-7.6c2.5-3.2,4.8-7.1,7-11.8c2.1-4.6,4-9.8,5.6-15.5c1.6-5.7,2.4-12.2,2.4-19.3
			C914.8,461.5,913.2,452.1,910,443.4z"/>
		<path class="st0" d="M1153.1,612.4l-13.9-39.5h-94.5l-13.1,39.5h-80.9l112.8-283h58.6l114,283H1153.1z M1091,427l-27.9,87.3h57.4
			L1091,427z"/>
		<path class="st0" d="M1318.5,394.8v217.6h-71.3v-218h-55V331h182.5v63.8H1318.5z"/>
		<path class="st0" d="M1386.7,612.4V331h71.7v281.4H1386.7z"/>
		<path class="st0" d="M1662.9,612.4l-13.9-39.5h-94.5l-13.2,39.5h-80.9l112.8-283h58.6l114,283H1662.9z M1600.7,427l-27.9,87.3
			h57.4L1600.7,427z"/>
	</g>
	<g>
		<path class="st0" d="M559.9,930.4v-52.6c9.6-8.8,18.7-17.2,27.5-25.3c8.8-8.1,17.4-16.3,25.9-24.5l22.7-21.9
			c7.7-7.4,14.3-14.3,19.7-20.5c5.4-6.2,10-12.1,13.6-17.5c3.6-5.4,6.2-10.8,8-16.1c1.7-5.3,2.6-10.8,2.6-16.3c0-1.6-0.1-3-0.2-4.2
			c-0.1-1.2-0.3-2.3-0.6-3.4c-0.3-0.8-0.5-1.5-0.6-2.2c-0.1-0.7-0.3-1.5-0.6-2.6c-1.9-5-4.9-9.2-9-12.4c-4.1-3.2-9-4.8-14.5-4.8
			c-4.8,0-9,1.3-12.8,4c-5.3,3.7-8.9,8.4-10.8,14.1c-1.9,5.7-2.9,11.6-3.2,17.7c-0.3,1.6-0.4,3.3-0.4,5c0,1.7,0,3.8,0,6.2l-70.1-0.4
			v-12c0-2.7,0.2-5.4,0.6-8.4c0.4-2.9,0.9-6,1.4-9.2c1.3-6.6,3.4-13.6,6.2-20.7c2.8-7.2,7-14.2,12.6-21.1c3.2-4,7.1-8.2,11.8-12.6
			c4.6-4.4,10.4-8.4,17.1-12.2c6.8-3.7,14.6-6.8,23.5-9.2c8.9-2.4,19.3-3.6,31.3-3.6c2.4,0,5.6,0.1,9.8,0.4
			c4.1,0.3,8.8,0.9,13.9,1.8c5.2,0.9,10.7,2.5,16.5,4.6c5.8,2.1,11.8,5,17.9,8.8c2.9,2.4,6.4,5.4,10.6,9.2c4.1,3.7,8.1,8.4,12,14.1
			c3.8,5.7,7.1,12.4,9.8,19.9c2.7,7.6,4,16.3,4,26.1v5.6c0,1.1-0.1,2.1-0.2,3.2c-0.1,1.1-0.3,2.3-0.6,3.6c-0.5,2.9-1.1,5.9-1.6,9
			c-0.5,3.1-1.5,6.3-2.8,9.8c-2.4,6.4-5.5,12.6-9.4,18.7c-3.9,6.1-8,12.1-12.6,17.9c-4.5,5.8-9.2,11.5-14.1,16.9
			c-4.9,5.4-9.8,10.7-14.5,15.7l-34.3,35.5h92.9v65.8H559.9z"/>
		<path class="st0" d="M1016.3,887c-13.8,15.9-30.5,28.2-50,36.9c-19.5,8.6-39.8,13-60.8,13c-19.1,0-37.8-3.8-56-11.4
			c-18.2-7.6-34.1-18.1-47.6-31.7c-13.6-13.5-24.1-29.4-31.7-47.6c-7.6-18.2-11.4-37-11.4-56.4c0-18.3,3.3-35.9,10-52.8
			c6.6-16.9,15.9-32.1,27.9-45.6c13.8-15.4,30.3-27.4,49.4-35.9c19.1-8.5,39.1-12.8,59.8-12.8c4.2,0,9.9,0.3,16.9,1
			c7,0.7,14.8,2.3,23.3,4.8c8.5,2.5,17.5,6.1,27.1,10.8c9.6,4.7,19,11,28.3,18.9c16.2,13.8,28.8,30.6,37.9,50.2
			c9,19.7,13.5,40.2,13.5,61.8c0,17.5-3.1,34.7-9.4,51.4C1037.3,858.3,1028.2,873.4,1016.3,887z M966.4,739.9
			c-5.3-6.4-10.9-11.4-16.7-15.1c-5.8-3.7-11.6-6.6-17.1-8.6c-5.6-2-10.8-3.2-15.5-3.8c-4.8-0.5-8.5-0.8-11.2-0.8
			c-11.2,0-21.9,2.4-32.3,7.2c-13.8,6.1-25,15.6-33.5,28.5c-8.5,12.9-12.8,27.2-12.8,42.8c0,2.4,0.2,5.7,0.6,10
			c0.4,4.3,1.4,8.8,3,13.7c1.6,4.9,3.9,10.2,7,15.7c3.1,5.6,7.2,11,12.6,16.3c7.7,7.4,16.3,13.1,25.9,16.9
			c9.6,3.9,19.4,5.8,29.5,5.8c2.4,0,5.4-0.2,9-0.6c3.6-0.4,7.6-1.2,12.2-2.4c4.5-1.2,9.3-3.1,14.3-5.6c5-2.5,10-5.8,14.7-9.8
			c6.4-5,11.4-10.6,15.1-16.5c3.7-6,6.6-11.8,8.6-17.3c2-5.6,3.3-10.7,3.8-15.3c0.5-4.6,0.8-8.4,0.8-11.4
			C984.4,770.9,978.4,754.3,966.4,739.9z"/>
		<path class="st0" d="M1073.2,930.4V702.9H1041v-53.8h102.8v281.4H1073.2z"/>
		<path class="st0" d="M1322.3,919.3c-5.3,3.7-13.2,7.6-23.7,11.6c-10.5,4-23.9,6-40.1,6c-3.7,0-9.3-0.3-16.7-1
			c-7.4-0.7-15.7-2.6-24.7-5.8c-8.8-3.2-16.9-7.5-24.3-13c-7.4-5.4-13.8-11.8-19.2-19.1c-5.4-7.3-9.7-15.3-12.7-23.9
			c-3.1-8.6-4.6-17.7-4.6-27.3c0-9,1.3-17.1,3.8-24.1c2.5-7,5.5-13.2,9-18.3s7-9.5,10.7-13c3.7-3.4,6.7-6,9.1-7.6l9.9-6.4
			c-4.8-3.7-8.5-6.8-11.3-9.4c-2.8-2.5-5.1-5-6.9-7.4c-2.9-4-5.3-8.8-7.1-14.5c-1.9-5.7-2.8-12.8-2.8-21.3c0-8.5,0.9-15.4,2.8-20.7
			c1.8-5.3,3.6-9.4,5.1-12.4c2.4-4.2,5.6-9.2,9.7-14.7c4.1-5.6,9.5-10.8,16.3-15.5c6.8-4.8,14.9-8.8,24.3-12.2
			c9.4-3.3,20.5-5,33.3-5c2.4,0,5.4,0.1,9.2,0.4c3.7,0.3,7.9,0.9,12.6,1.8c4.6,0.9,9.6,2.5,14.9,4.6c5.3,2.1,10.6,5,15.9,8.8
			c9.3,6.9,17.1,15.6,23.3,26.1c6.2,10.5,9.4,21.9,9.4,34.1c0,11.2-1.8,20.5-5.4,28.1c-3.6,7.6-6.7,12.8-9.4,15.7
			c-1.3,1.9-2.9,3.6-4.8,5.2c-1.9,1.6-4.7,3.9-8.4,6.8c3.7,2.1,6.3,3.6,7.8,4.4c1.5,0.8,2.6,1.6,3.4,2.4c0.8,0.5,1.6,1.1,2.4,1.8
			c0.8,0.7,1.7,1.4,2.8,2.2c6.1,4.8,11,10.2,14.5,16.1c3.6,6,6.3,11.8,8.2,17.3c1.9,5.6,3.1,10.7,3.6,15.3c0.5,4.7,0.8,8.3,0.8,11
			c0,10.4-1.7,19.6-5,27.7c-3.3,8.1-7.2,15.2-11.6,21.3c-4.4,6.1-8.8,11.2-13.4,15.1C1328.5,914.5,1325,917.4,1322.3,919.3z
			 M1259.5,808.9c-4.8,0-9.2,0.9-13.2,2.6c-4,1.7-7.5,4.1-10.6,7.2c-3.1,3.1-5.4,6.6-7.2,10.6c-1.7,4-2.6,8.2-2.6,12.8
			c0.5,2.1,0.9,4,1,5.6c0.1,1.6,0.5,2.9,1,4c1.3,5.3,4.1,10,8.4,13.9c4.2,4.3,8.6,6.9,13,8c4.4,1.1,7.8,1.6,10.2,1.6
			c9.3,0,17.1-3.2,23.5-9.8c6.4-6.5,9.6-14.3,9.6-23.3c0-4.8-0.9-9.2-2.6-13.2c-1.7-4-4.1-7.4-7.2-10.4c-3.1-2.9-6.6-5.2-10.6-7
			C1268.3,809.8,1264,808.9,1259.5,808.9z M1259.1,703.3c-7.4,0-13.6,2.5-18.3,7.6c-4.8,5-7.2,11.2-7.2,18.3c0,1.6,0.3,4.1,1,7.4
			c0.7,3.3,2.9,6.7,6.6,10.2c3.7,3.7,7.2,5.9,10.6,6.6c3.3,0.7,5.8,1,7.4,1c7.4,0,13.5-2.5,18.3-7.4c4.8-4.9,7.2-11,7.2-18.1
			c0-7.4-2.4-13.5-7.2-18.3C1272.7,705.7,1266.5,703.3,1259.1,703.3z"/>
	</g>
</g>
</svg>
