<?xml version="1.0" encoding="utf-8"?>
<!-- Generator: Adobe Illustrator 21.1.0, SVG Export Plug-In . SVG Version: 6.00 Build 0)  -->
<svg version="1.1" id="Layer_1" xmlns="http://www.w3.org/2000/svg" xmlns:xlink="http://www.w3.org/1999/xlink" x="0px" y="0px"
	 viewBox="0 0 1920 486.2" style="enable-background:new 0 0 1920 486.2;" xml:space="preserve">
<style type="text/css">
	.st0{fill:#FFFFFF;}
	.st1{fill:#FFE843;}
</style>
<g>
	<g>
		<g>
			<path class="st0" d="M1686.5,119.5c0,59.9-49.1,108.5-109,108.5l-76.9,0V11l77.4,0C1637.9,11,1686.5,59.6,1686.5,119.5
				 M1628.2,119.1c0-33-25.8-56.9-57.6-57.1l-12.8-0.1v114.4l12.8,0C1602.4,176.3,1628.2,152.1,1628.2,119.1"/>
			<path class="st0" d="M577.1,119.1c0,63.3-51.8,114.6-115.1,114.6l-3,0v-59.8h5.3c29.4,0,53.1-24.4,53.1-54.9
				c0-30.4-23.8-54.9-53.1-55.1l-5.3,0V4.5h3.5C525.8,4.5,577.1,55.8,577.1,119.1"/>
			<polygon class="st0" points="708.7,59.2 642.6,59.2 642.6,91.8 708.7,91.8 708.7,142.9 642.9,142.9 642.9,178.5 709.3,178.5 
				709.3,228.1 585.4,228.1 585.4,11 708.7,11 			"/>
			<polygon class="st0" points="847.8,59.9 777.1,59.9 777.1,94.6 847.5,94.6 847.5,145.3 777.1,145.3 777.1,228.1 722,228.1 
				722,11 847.8,11 			"/>
			<polygon class="st0" points="984.7,59.2 918.5,59.2 918.5,91.8 984.7,91.8 984.7,142.9 918.9,142.9 918.9,178.5 985.3,178.5 
				985.3,228.1 861.3,228.1 861.3,11 984.7,11 			"/>
			<path class="st0" d="M1155.1,92.1c-1.5-3.1-3.4-5.5-5.2-8.3c-10.5-13.8-26.2-21.5-43.7-21.5c-11.4,0-19.4,3.1-23.4,4.9
				c-21.2,8.9-34.1,29.5-34.1,52.3c0.3,10.4,2.8,17.5,4.3,21.2c4.3,10.2,19.7,35.3,53.2,35.3c8.9,0,15.1-1.8,18.7-3.1
				c3.4-1.2,15.4-6.8,23.7-16.6c2.2-2.8,3.4-4.6,6.8-10.1h60.3c-4.6,14.1-7.4,20.3-10.8,26.7c-20.9,38.7-55.7,52.3-71,56
				c-4.6,1.2-14.5,3.1-27.1,3.1c-55.1,0-84.3-33.8-95.3-49.8c-7.1-10.1-18.8-30.1-18.8-61.2c0-59,38.7-89.5,56.3-99.9
				c8.9-5.2,28.9-14.8,56.6-14.8c14.1,0,43,2.5,71.6,25.8c26.8,21.8,34.4,47.4,38.1,60H1155.1z"/>
			<polygon class="st0" points="1349.1,59.9 1305.8,59.9 1305.8,228.1 1250.7,228.1 1250.7,59.5 1208.3,59.5 1208.3,11 1349.1,11 
							"/>
			<polygon class="st0" points="1485.8,59.2 1419.6,59.2 1419.6,91.8 1485.8,91.8 1485.8,142.9 1420,142.9 1420,178.5 1486.4,178.5 
				1486.4,228.1 1362.4,228.1 1362.4,11 1485.8,11 			"/>
			<polygon class="st0" points="1661.6,16 1661.6,10.7 1681.6,10.7 1681.6,16 1674.8,16 1674.8,34.5 1668.5,34.5 1668.5,16 			"/>
			<path class="st0" d="M1704.1,17.9L1704.1,17.9l-4.6,16.6h-5.1l-4.5-16.6l-0.2-1c0.1,0.4-0.1,17.6-0.1,17.6h-5.6V10.7h8.7l3.7,14
				c0.2,0.8,0.4,2.1,0.5,3.6c0,0.4,0.1,0.8,0.1,1.2c0-0.8,0-1.7,0.1-2.5c0.1-1,0.3-1.7,0.4-2.3l3.7-14h8.7v23.8h-5.9V17.9z"/>
		</g>
		<rect x="210" class="st1" width="237.6" height="237.6"/>
	</g>
	<g>
		<path class="st0" d="M214.9,425.4c-5.4,9.8-11.4,18-18.1,24.8c-6.6,6.7-13.3,12.4-19.9,16.8c-6.6,4.5-13,7.9-19,10.3
			c-6,2.4-11,4-14.9,4.8c-2.3,0.4-5.8,1-10.6,1.9c-4.8,0.8-10.4,1.2-16.8,1.2c-13.9,0-26.3-1.9-37.1-5.6c-10.8-3.7-20.1-8.2-28-13.5
			c-7.9-5.3-14.4-10.8-19.6-16.5c-5.2-5.7-9.1-10.6-11.8-14.8c-1.9-2.5-3.9-5.7-6.1-9.5c-2.2-3.8-4.3-8.4-6.2-13.5
			c-2-5.2-3.6-11-4.8-17.4C0.6,387.9,0,380.7,0,372.8c0-14.9,2.1-28.1,6.4-39.6c4.3-11.4,9.4-21.3,15.4-29.6
			c6-8.3,12.3-15.1,18.8-20.2c6.5-5.2,12-9.1,16.4-11.8c2.3-1.5,5.2-3,8.9-4.7c3.6-1.7,7.8-3.3,12.6-4.8c4.8-1.6,10.1-2.9,16-3.9
			c5.9-1,12.5-1.6,19.8-1.6c3.5,0,7.9,0.3,13.2,0.8c5.3,0.5,11.1,1.7,17.4,3.4c6.3,1.8,13.1,4.4,20.2,7.9c7.2,3.5,14.4,8.2,21.6,14
			c6.9,5.6,12.6,11.3,17.1,17.1c4.6,5.8,8.3,11.5,11.2,17.1c2.5,5.2,4.8,10.6,6.9,16.2c0.6,1.9,1.2,3.6,1.9,5.3
			c0.6,1.7,1.1,3.3,1.6,5h-61.3c-1-1.7-2-3.2-2.8-4.5c-0.8-1.3-1.6-2.5-2.2-3.6c-5.4-7.3-11.9-12.7-19.5-16.3
			c-7.6-3.6-15.8-5.5-24.8-5.5c-5.8,0-10.7,0.5-14.6,1.6c-3.9,1-7,2.1-9,3.1c-10.6,4.8-19,11.9-25.4,21.3c-6.3,9.5-9.4,20-9.2,31.6
			c0,5.4,0.5,9.9,1.6,13.4c1,3.5,2,6.2,2.8,8.1c1,2.5,2.8,5.8,5.3,9.8c2.5,4,5.9,8,10.3,11.8c4.4,3.8,9.7,7.1,16,9.8
			c6.3,2.7,13.8,4,22.3,4c4.6,0,8.4-0.4,11.5-1.1c3.1-0.7,5.6-1.4,7.5-2c1.9-0.4,5.2-2,10.1-4.7c4.9-2.7,9.4-6.6,13.5-11.8
			c0.6-0.6,1.2-1.3,1.7-2c0.5-0.7,1-1.4,1.4-2l4-6.2h61c-2.7,7.7-4.8,13.4-6.2,17.1C218.1,419.2,216.5,422.5,214.9,425.4z"/>
		<path class="st0" d="M333.5,481.2l-44.8-70.4v70.4h-55.7V261.3h81.6c10.4,0,20,0.7,29,2.2c8.9,1.5,17.8,5.5,26.5,12.1
			c2.7,2.1,5.6,4.8,8.7,8.3c3.1,3.4,6.1,7.6,8.9,12.6c2.8,5,5.1,10.7,7,17.3c1.9,6.5,2.8,14.1,2.8,22.6c0,8.7-1,16.4-3.1,23
			c-2.1,6.6-4.6,12.4-7.6,17.3c-3,4.9-6.2,8.9-9.7,12.1c-3.4,3.2-6.5,5.8-9.2,7.6c-2.3,1.7-4.7,3.1-7.2,4.4c-2.5,1.2-6.6,3-12.5,5.3
			l53.3,75.1H333.5z M337.6,322.4c-3.5-5.6-7.9-9-13.2-10.1c-5.3-1.1-11-1.7-17-1.7h-18.7v60.4h17.8c0.6-0.2,1.5-0.3,2.5-0.3
			c1.4,0,2.6-0.1,3.4-0.3c1.7-0.2,3.2-0.4,4.7-0.6c1.5-0.2,3-0.5,4.7-0.9c1.9-0.6,3.9-1.6,6.2-3c2.3-1.3,4.4-3.2,6.4-5.6
			c2-2.4,3.7-5.3,5.1-8.9c1.5-3.5,2.2-7.7,2.2-12.5c0-2.9-0.3-5.7-0.8-8.4C340.3,327.8,339.2,325.1,337.6,322.4z"/>
		<path class="st0" d="M604.5,444.8c-10.6,13.1-23.6,23.1-39.1,30.1c-15.5,7-31.6,10.4-48.4,10.4c-14.9,0-29.5-3-43.8-8.9
			c-14.2-5.9-26.6-14.2-37.2-24.8c-10.6-10.6-18.8-23-24.8-37.2c-5.9-14.2-8.9-28.8-8.9-43.8c0-3.3,0.3-7.7,0.8-13.1
			c0.5-5.4,1.7-11.5,3.6-18.2c1.9-6.7,4.6-13.8,8.3-21.2c3.6-7.4,8.6-14.7,14.8-22c5.2-6.2,11.2-11.8,17.9-16.8
			c6.7-5,13.9-9.2,21.3-12.6c7.5-3.4,15.3-6.1,23.5-7.9c8.2-1.9,16.3-2.8,24.4-2.8c9.3,0,18,1,26,3.1c8,2.1,15.2,4.6,21.5,7.5
			c6.3,2.9,11.8,5.9,16.4,9c4.6,3.1,8.1,5.7,10.6,7.8c12.7,10.8,22.5,23.9,29.6,39.2c7.1,15.4,10.6,31.5,10.6,48.3
			c0,3.3-0.3,7.7-0.8,13.1c-0.5,5.4-1.7,11.4-3.6,17.9c-1.9,6.5-4.6,13.5-8.3,20.9C615.3,430.2,610.5,437.5,604.5,444.8z
			 M574.9,349.1c-2.3-6-5.3-11.5-9.2-16.4c-3.8-4.9-8.3-9.1-13.4-12.6c-5.1-3.5-10.6-6.2-16.7-8.1c-6-1.9-12.3-2.8-18.7-2.8
			c-1.9,0-4.5,0.2-7.8,0.6c-3.3,0.4-6.9,1.2-10.7,2.5c-3.8,1.2-7.9,3-12.3,5.3c-4.4,2.3-8.5,5.3-12.5,9c-6,5.8-10.6,12.6-13.7,20.2
			c-3.1,7.7-4.7,15.7-4.7,24c0,1.9,0.2,4.5,0.5,7.8c0.3,3.3,1.1,7,2.3,10.9c1.2,3.9,3.1,8.1,5.4,12.5c2.4,4.4,5.7,8.5,9.8,12.5
			c5.6,5.8,12.3,10.3,20.1,13.4c7.8,3.1,15.6,4.7,23.5,4.7c6,0,11.5-0.7,16.4-2.2c4.9-1.4,9.2-3.2,12.9-5.3c3.7-2.1,6.9-4.2,9.5-6.4
			c2.6-2.2,4.6-4,6.1-5.5c1.5-1.4,3.2-3.4,5.1-5.9c2-2.5,3.8-5.6,5.4-9.2c1.7-3.6,3.1-7.7,4.4-12.1c1.2-4.5,1.9-9.5,1.9-15.1
			C578.6,363.3,577.4,356,574.9,349.1z"/>
		<path class="st0" d="M764.8,481.2l-10.9-30.8h-73.8l-10.3,30.8h-63.2l88.1-221.1h45.8l89.1,221.1H764.8z M716.3,336.4l-21.8,68.2
			h44.8L716.3,336.4z"/>
		<path class="st0" d="M894.1,311.2v170h-55.7V310.8h-43v-49.5H938v49.8H894.1z"/>
		<path class="st0" d="M947.3,481.2V261.3h56.1v219.9H947.3z"/>
		<path class="st0" d="M1163.2,481.2l-10.9-30.8h-73.8l-10.3,30.8H1005l88.1-221.1h45.8l89.1,221.1H1163.2z M1114.6,336.4
			l-21.8,68.2h44.8L1114.6,336.4z"/>
	</g>
	<g>
		<path class="st0" d="M1292.5,481.2v-41.1c7.5-6.9,14.6-13.4,21.5-19.8c6.9-6.3,13.6-12.7,20.2-19.2L1352,384
			c6-5.8,11.2-11.2,15.4-16c4.3-4.9,7.8-9.4,10.6-13.7c2.8-4.3,4.9-8.5,6.2-12.6c1.3-4.2,2-8.4,2-12.8c0-1.2-0.1-2.3-0.2-3.3
			c-0.1-0.9-0.3-1.8-0.5-2.6c-0.2-0.6-0.4-1.2-0.5-1.7c-0.1-0.5-0.3-1.2-0.5-2c-1.5-3.9-3.8-7.2-7-9.7c-3.2-2.5-7-3.7-11.4-3.7
			c-3.7,0-7.1,1-10,3.1c-4.2,2.9-7,6.6-8.4,11.1c-1.5,4.5-2.3,9.1-2.5,13.9c-0.2,1.2-0.3,2.5-0.3,3.9c0,1.4,0,3,0,4.8l-54.8-0.3V333
			c0-2.1,0.2-4.3,0.5-6.5c0.3-2.3,0.7-4.7,1.1-7.2c1-5.2,2.6-10.6,4.8-16.2c2.2-5.6,5.5-11.1,9.8-16.5c2.5-3.1,5.6-6.4,9.2-9.8
			c3.6-3.4,8.1-6.6,13.4-9.5c5.3-2.9,11.4-5.3,18.4-7.2c7-1.9,15.1-2.8,24.4-2.8c1.9,0,4.4,0.1,7.6,0.3c3.2,0.2,6.9,0.7,10.9,1.4
			c4,0.7,8.4,1.9,12.9,3.6c4.6,1.7,9.2,3.9,14,6.9c2.3,1.9,5,4.3,8.3,7.2c3.2,2.9,6.3,6.6,9.3,11.1c3,4.5,5.6,9.7,7.6,15.6
			c2.1,5.9,3.1,12.7,3.1,20.4v4.4c0,0.8-0.1,1.7-0.2,2.5c-0.1,0.8-0.3,1.8-0.5,2.8c-0.4,2.3-0.8,4.6-1.2,7c-0.4,2.4-1.1,4.9-2.2,7.6
			c-1.9,5-4.3,9.9-7.3,14.6c-3,4.8-6.3,9.5-9.8,14c-3.5,4.6-7.2,9-11.1,13.2c-3.8,4.3-7.6,8.4-11.4,12.3l-26.8,27.7h72.6v51.4
			H1292.5z"/>
		<path class="st0" d="M1649.1,447.2c-10.8,12.5-23.8,22.1-39.1,28.8c-15.3,6.7-31.1,10.1-47.5,10.1c-14.9,0-29.5-3-43.8-8.9
			c-14.2-5.9-26.6-14.2-37.2-24.8c-10.6-10.6-18.8-23-24.8-37.2c-5.9-14.2-8.9-28.9-8.9-44.1c0-14.3,2.6-28.1,7.8-41.3
			c5.2-13.2,12.5-25.1,21.8-35.7c10.8-12,23.7-21.4,38.6-28c14.9-6.6,30.5-10,46.7-10c3.3,0,7.7,0.3,13.2,0.8
			c5.5,0.5,11.6,1.8,18.2,3.7c6.6,2,13.7,4.8,21.2,8.4c7.5,3.6,14.8,8.6,22.1,14.8c12.7,10.8,22.5,23.9,29.6,39.2
			c7.1,15.4,10.6,31.5,10.6,48.3c0,13.7-2.4,27.1-7.3,40.2C1665.5,424.8,1658.4,436.7,1649.1,447.2z M1610.2,332.3
			c-4.2-5-8.5-8.9-13.1-11.8c-4.6-2.9-9-5.1-13.4-6.7c-4.4-1.6-8.4-2.5-12.1-3c-3.7-0.4-6.6-0.6-8.7-0.6c-8.7,0-17.1,1.9-25.2,5.6
			c-10.8,4.8-19.5,12.2-26.2,22.3c-6.6,10.1-10,21.2-10,33.5c0,1.9,0.2,4.5,0.5,7.8c0.3,3.3,1.1,6.9,2.3,10.7
			c1.2,3.8,3.1,7.9,5.4,12.3c2.4,4.4,5.7,8.6,9.8,12.8c6,5.8,12.8,10.2,20.2,13.2c7.5,3,15.2,4.5,23,4.5c1.9,0,4.2-0.2,7-0.5
			c2.8-0.3,6-0.9,9.5-1.9c3.5-0.9,7.3-2.4,11.2-4.4c3.9-2,7.8-4.5,11.5-7.6c5-3.9,8.9-8.3,11.8-12.9c2.9-4.7,5.1-9.2,6.7-13.5
			c1.6-4.4,2.5-8.4,3-12c0.4-3.6,0.6-6.6,0.6-8.9C1624.2,356.5,1619.5,343.5,1610.2,332.3z"/>
		<path class="st0" d="M1693.6,481.2V303.4h-25.2v-42h80.3v219.9H1693.6z"/>
		<path class="st0" d="M1888.2,472.5c-4.2,2.9-10.3,5.9-18.5,9c-8.2,3.1-18.6,4.7-31.3,4.7c-2.9,0-7.3-0.3-13.1-0.8
			c-5.8-0.5-12.3-2-19.3-4.5c-6.9-2.5-13.2-5.9-19-10.1c-5.8-4.3-10.8-9.2-15-14.9c-4.2-5.7-7.6-11.9-9.9-18.7
			c-2.4-6.7-3.6-13.9-3.6-21.3c0-7.1,1-13.3,3-18.8c2-5.5,4.3-10.3,7-14.3c2.7-4,5.5-7.4,8.4-10.1c2.9-2.7,5.3-4.7,7.1-5.9l7.7-5
			c-3.7-2.9-6.7-5.3-8.8-7.3c-2.2-2-4-3.9-5.4-5.8c-2.3-3.1-4.1-6.9-5.6-11.4c-1.4-4.5-2.2-10-2.2-16.7c0-6.6,0.7-12,2.2-16.2
			c1.4-4.1,2.8-7.4,4-9.7c1.9-3.3,4.4-7.2,7.6-11.5c3.2-4.4,7.4-8.4,12.7-12.1c5.3-3.7,11.6-6.9,19-9.5c7.4-2.6,16-3.9,26-3.9
			c1.9,0,4.3,0.1,7.2,0.3c2.9,0.2,6.2,0.7,9.8,1.4c3.6,0.7,7.5,1.9,11.7,3.6c4.1,1.7,8.3,3.9,12.5,6.9c7.3,5.4,13.3,12.2,18.2,20.4
			c4.9,8.2,7.3,17.1,7.3,26.6c0,8.7-1.4,16-4.2,22c-2.8,5.9-5.2,10-7.3,12.3c-1,1.5-2.3,2.8-3.7,4c-1.5,1.2-3.6,3-6.5,5.3
			c2.9,1.7,4.9,2.8,6.1,3.4c1.1,0.6,2,1.2,2.6,1.9c0.6,0.4,1.2,0.9,1.9,1.4c0.6,0.5,1.3,1.1,2.2,1.7c4.8,3.7,8.6,7.9,11.4,12.6
			c2.8,4.7,4.9,9.2,6.4,13.5c1.5,4.4,2.4,8.4,2.8,12c0.4,3.6,0.6,6.5,0.6,8.6c0,8.1-1.3,15.3-3.9,21.6c-2.6,6.3-5.6,11.9-9,16.7
			c-3.4,4.8-6.9,8.7-10.4,11.8C1893.1,468.7,1890.3,471,1888.2,472.5z M1839.2,386.2c-3.7,0-7.2,0.7-10.3,2
			c-3.1,1.4-5.9,3.2-8.3,5.6c-2.4,2.4-4.3,5.1-5.6,8.3c-1.4,3.1-2,6.4-2,10c0.4,1.7,0.7,3.1,0.8,4.4c0.1,1.2,0.4,2.3,0.8,3.1
			c1,4.2,3.2,7.8,6.5,10.9c3.3,3.3,6.7,5.4,10.1,6.2c3.4,0.8,6.1,1.2,7.9,1.2c7.3,0,13.4-2.5,18.4-7.6c5-5.1,7.5-11.2,7.5-18.2
			c0-3.7-0.7-7.2-2-10.3c-1.4-3.1-3.2-5.8-5.6-8.1c-2.4-2.3-5.1-4.1-8.3-5.4C1846,386.9,1842.7,386.2,1839.2,386.2z M1838.9,303.7
			c-5.8,0-10.6,2-14.3,5.9c-3.7,3.9-5.6,8.7-5.6,14.3c0,1.2,0.3,3.2,0.8,5.8c0.5,2.6,2.2,5.2,5.1,7.9c2.9,2.9,5.7,4.6,8.3,5.1
			c2.6,0.5,4.5,0.8,5.8,0.8c5.8,0,10.6-1.9,14.3-5.8c3.7-3.8,5.6-8.6,5.6-14.2c0-5.8-1.9-10.6-5.6-14.3
			C1849.4,305.5,1844.7,303.7,1838.9,303.7z"/>
	</g>
</g>
</svg>
