<?xml version="1.0" encoding="utf-8"?>
<!-- Generator: Adobe Illustrator 21.1.0, SVG Export Plug-In . SVG Version: 6.00 Build 0)  -->
<svg version="1.1" id="Layer_1" xmlns="http://www.w3.org/2000/svg" xmlns:xlink="http://www.w3.org/1999/xlink" x="0px" y="0px"
	 viewBox="0 0 1920 754" style="enable-background:new 0 0 1920 754;" xml:space="preserve">
<style type="text/css">
	.st0{fill:#FFE843;}
	.st1{fill:#FFFFFF;}
</style>
<path class="st0" d="M256.6,562.9v70.8h-23.2v-71h-17.9v-20.6h59.4v20.8H256.6z"/>
<path class="st0" d="M330.3,633.7v-34.5h-28v34.5h-23.5v-91.6h23.5v34.8h27.9v-34.8h23.4v91.6H330.3z"/>
<path class="st0" d="M357.4,633.7v-91.6h52v20.5h-27.9v13.6h27.9v21.7h-27.8v14.8h28v21H357.4z"/>
<path class="st0" d="M515.2,617.5c-4.7,5.7-10.3,10.1-16.8,13.2c-6.5,3.1-13.5,4.7-20.8,4.7c-1.5,0-3.3-0.1-5.4-0.3
	c-2.1-0.2-4.5-0.7-7-1.4c-2.6-0.7-5.3-1.8-8.1-3.1c-2.9-1.3-5.8-3.2-8.7-5.5c-1.5-1.1-3.2-2.7-5.3-4.9c-2.1-2.1-4-4.7-5.9-7.8
	c-1.9-3.1-3.4-6.6-4.7-10.7c-1.3-4.1-1.9-8.6-1.9-13.8c0-5.5,0.7-10.3,2.1-14.5c1.4-4.2,3.2-7.9,5.2-11.1c2-3.1,4.2-5.7,6.4-7.8
	c2.2-2.1,4.2-3.7,5.7-4.9c8.2-6.1,17.5-9.2,27.9-9.2c5.6,0,10.6,0.8,15,2.3c4.4,1.5,8.2,3.3,11.4,5.5c3.2,2.2,5.9,4.4,8,6.7
	c2.1,2.3,3.7,4.3,4.9,5.9c0.5,0.8,1,1.5,1.4,2.2c0.4,0.7,0.9,1.5,1.3,2.3c0.4,0.9,0.9,1.9,1.4,3c0.5,1.2,1.1,2.6,1.8,4.3h-26.5
	l-1-1.4l-0.4-0.4l-0.3-0.5l-1-1c-2.2-2-4.6-3.4-7.4-4.3s-5.5-1.3-8.3-1.3c-1,0-2.2,0.1-3.9,0.3c-1.6,0.2-3.5,0.7-5.7,1.7
	c-2.2,1-4.3,2.2-6,3.7c-1.8,1.5-3.3,3.2-4.6,5.2c-1.3,1.9-2.3,4.1-3,6.4c-0.7,2.3-1,4.7-1,7.1c0,1.6,0.3,3.8,0.8,6.4
	c0.6,2.6,2.1,5.5,4.5,8.5c0.5,0.7,1.3,1.6,2.5,2.6c1.1,1,2.5,2,4.1,3c1.6,1,3.4,1.8,5.5,2.5c2.1,0.7,4.4,1,6.9,1
	c2.2,0,4.2-0.2,6-0.7c1.8-0.5,3.4-1,4.8-1.7c1.4-0.6,2.6-1.4,3.6-2.1c1-0.8,1.8-1.4,2.3-1.9c0.4-0.4,0.8-0.9,1.2-1.4
	s0.9-1.3,1.6-2.5h-25.3v-19.5h54c-0.2,3.5-0.5,6.9-0.8,10c-0.4,3.1-1,6.1-1.8,9c-0.8,2.9-1.8,5.6-3.1,8.2S517.3,614.8,515.2,617.5z"
	/>
<path class="st0" d="M581.6,633.7l-4.5-12.8h-30.7l-4.3,12.8h-26.3l36.7-92.1h19.1l37.1,92.1H581.6z M561.4,573.4l-9.1,28.4H571
	L561.4,573.4z"/>
<path class="st0" d="M651.1,633.7l-18.7-29.3v29.3h-23.2v-91.6h34c4.3,0,8.3,0.3,12.1,0.9c3.7,0.6,7.4,2.3,11,5.1
	c1.1,0.9,2.3,2,3.6,3.4c1.3,1.4,2.5,3.2,3.7,5.3c1.2,2.1,2.1,4.5,2.9,7.2c0.8,2.7,1.2,5.9,1.2,9.4c0,3.6-0.4,6.8-1.3,9.6
	c-0.9,2.8-1.9,5.2-3.2,7.2c-1.3,2-2.6,3.7-4,5.1c-1.4,1.3-2.7,2.4-3.8,3.2c-1,0.7-1.9,1.3-3,1.8c-1,0.5-2.8,1.3-5.2,2.2l22.2,31.3
	H651.1z M652.8,567.6c-1.5-2.3-3.3-3.7-5.5-4.2c-2.2-0.5-4.6-0.7-7.1-0.7h-7.8v25.2h7.4c0.3-0.1,0.6-0.1,1-0.1c0.6,0,1.1,0,1.4-0.1
	c0.7-0.1,1.3-0.2,1.9-0.3c0.6-0.1,1.3-0.2,1.9-0.4c0.8-0.3,1.6-0.7,2.6-1.2c0.9-0.6,1.8-1.3,2.7-2.3c0.8-1,1.5-2.2,2.1-3.7
	c0.6-1.5,0.9-3.2,0.9-5.2c0-1.2-0.1-2.4-0.3-3.5C654,569.8,653.5,568.7,652.8,567.6z"/>
<path class="st0" d="M750.4,620.5c-1,1.2-2.7,2.9-5.1,5c-2.3,2.1-5.5,4-9.6,5.5c-3.5,1.3-6.8,2.1-10,2.3c-3.2,0.3-6.6,0.4-10.2,0.4
	h-35v-91.6h36.1c0.6,0,1.5,0,2.7-0.1c1.2,0,2.6,0,4.2,0.2c1.6,0.2,3.3,0.4,5.1,0.6c1.9,0.2,3.7,0.6,5.6,1.2c3.5,1.1,6.7,2.7,9.6,4.9
	s5.5,4.6,7.7,7.3c2.2,2.8,4.1,5.8,5.6,9.1c1.6,3.3,2.7,6.7,3.5,10.2c0.3,1.2,0.5,2.7,0.8,4.6c0.3,1.9,0.5,4.2,0.5,7.1
	c0,1.6-0.1,3.5-0.3,6c-0.2,2.4-0.6,5.1-1.4,8.1c-0.7,3-1.9,6.1-3.4,9.4C755.3,614,753.2,617.3,750.4,620.5z M738.1,582
	c-0.8-3.9-2.2-7.4-4.4-10.6c-2.2-3.2-5.2-5.5-9.1-7c-2-0.7-3.9-1.1-5.6-1.2c-1.8-0.1-3.7-0.2-5.9-0.2h-9.1v49.7H717
	c1.8,0,3.5-0.1,5-0.2c1.5-0.1,3.1-0.5,4.7-1.2c2.9-1.2,5.2-3,6.8-5.3s2.8-4.7,3.6-7.1c0.8-2.4,1.2-4.6,1.4-6.6
	c0.1-2,0.2-3.2,0.2-3.8c0-0.6,0-1.4-0.1-2.5C738.6,584.7,738.4,583.4,738.1,582z"/>
<path class="st0" d="M764.5,633.7v-91.6h52v20.5h-27.9v13.6h27.9v21.7h-27.8v14.8h28v21H764.5z"/>
<path class="st0" d="M878.1,633.7l-34.4-50.1v50.1h-23v-91.6h20.4c4.1,5.8,8,11.4,11.9,16.9c3.9,5.5,7.8,11.2,11.7,17.1l10.8,16.5
	v-50.5h23.1v91.6H878.1z"/>
<path class="st0" d="M967.7,633.7L949,604.4v29.3h-23.2v-91.6h34c4.3,0,8.3,0.3,12.1,0.9c3.7,0.6,7.4,2.3,11,5.1
	c1.1,0.9,2.3,2,3.6,3.4c1.3,1.4,2.5,3.2,3.7,5.3c1.2,2.1,2.1,4.5,2.9,7.2c0.8,2.7,1.2,5.9,1.2,9.4c0,3.6-0.4,6.8-1.3,9.6
	c-0.9,2.8-1.9,5.2-3.2,7.2c-1.3,2-2.6,3.7-4,5.1c-1.4,1.3-2.7,2.4-3.8,3.2c-1,0.7-1.9,1.3-3,1.8c-1,0.5-2.8,1.3-5.2,2.2l22.2,31.3
	H967.7z M969.4,567.6c-1.5-2.3-3.3-3.7-5.5-4.2c-2.2-0.5-4.6-0.7-7.1-0.7H949v25.2h7.4c0.3-0.1,0.6-0.1,1-0.1c0.6,0,1.1,0,1.4-0.1
	c0.7-0.1,1.3-0.2,1.9-0.3c0.6-0.1,1.3-0.2,1.9-0.4c0.8-0.3,1.6-0.7,2.6-1.2c0.9-0.6,1.8-1.3,2.7-2.3c0.8-1,1.5-2.2,2.1-3.7
	c0.6-1.5,0.9-3.2,0.9-5.2c0-1.2-0.1-2.4-0.3-3.5C970.5,569.8,970.1,568.7,969.4,567.6z"/>
<path class="st0" d="M997,633.7v-91.6h52v20.5h-27.9v13.6h27.9v21.7h-27.8v14.8h28v21H997z"/>
<path class="st0" d="M1102.6,629.3c-2.1,1.6-4.1,2.7-6,3.6c-1.9,0.8-3.8,1.4-5.4,1.8c-1.7,0.4-3.2,0.6-4.7,0.7
	c-1.4,0.1-2.7,0.1-3.7,0.1c-4.6,0-8.5-0.6-11.9-1.8s-6.1-2.7-8.4-4.5c-2.3-1.8-4.1-3.7-5.5-5.7c-1.4-2-2.4-3.9-3-5.6
	c-0.8-2.2-1.3-4.5-1.6-6.7c-0.3-2.2-0.4-4.8-0.5-7.7h22.3c0,2.3,0.2,4.3,0.6,6.3c0.4,1.9,1.6,3.5,3.6,4.6c0.4,0.3,1,0.5,1.7,0.8
	c0.7,0.3,1.6,0.4,2.7,0.4c2.3,0,4.2-0.7,5.7-2.2c1.5-1.5,2.2-3.3,2.2-5.6c0-2.8-0.8-4.9-2.5-6.3c-1.7-1.4-3.6-2.7-5.8-3.8l-4.3-1.7
	c-1.7-0.7-3.4-1.4-5-2.1c-1.6-0.7-3.2-1.5-4.9-2.4c-1-0.6-2.4-1.5-4.1-2.7c-1.7-1.2-3.3-2.7-4.9-4.7c-1.6-1.9-2.9-4.3-4.1-7
	c-1.2-2.7-1.8-5.9-1.8-9.5c0-1,0.1-2.3,0.2-3.7c0.1-1.4,0.5-3,1-4.7c0.6-1.7,1.4-3.4,2.5-5.3c1.1-1.8,2.6-3.6,4.5-5.4
	c2.1-2,4.2-3.6,6.5-4.7c2.2-1.2,4.4-2.1,6.5-2.7s4-1,5.6-1.2c1.7-0.2,3-0.3,4.1-0.3c1,0,2.4,0.1,4.2,0.2c1.8,0.1,3.8,0.6,6,1.4
	c2.8,1,5.2,2.1,7.2,3.5c2,1.4,3.7,2.9,5.1,4.4c1.3,1.6,2.4,3.1,3.3,4.6c0.9,1.5,1.5,2.8,1.9,3.8c0.2,0.5,0.3,1,0.5,1.4
	c0.2,0.4,0.3,0.9,0.4,1.3c0.2,0.4,0.3,0.9,0.3,1.4c0,0.5,0.2,0.9,0.3,1.4c0.2,1,0.2,1.8,0.2,2.7c0,0.8,0,1.8,0.2,3h-21.7
	c0-1.2,0-2.1-0.1-2.6c0-0.5-0.2-1-0.3-1.4c-0.4-1.6-1.3-2.8-2.6-3.6c-1.3-0.9-2.8-1.3-4.4-1.3c-2.2,0-3.9,0.6-5.2,1.9
	c-1.3,1.3-1.9,3.1-1.9,5.3c0,1,0.2,1.8,0.5,2.4c0.3,0.6,0.6,1.1,0.8,1.5c1,1.3,2.5,2.5,4.3,3.5c1,0.5,2.1,1,3.3,1.6
	c1.2,0.5,2.6,1.1,4.2,1.8c4,1.8,7.2,3.4,9.6,4.9s4.2,2.7,5.4,3.8c0.7,0.5,1.3,1.1,1.8,1.7c0.8,0.7,1.6,1.6,2.3,2.7
	c2.2,3,3.6,5.8,4,8.4c0.4,2.6,0.6,4.6,0.6,6c0,1.4-0.1,3-0.3,4.9c-0.2,1.9-0.7,3.9-1.6,6c-0.8,2.1-2,4.3-3.6,6.6
	C1107.6,625.1,1105.4,627.2,1102.6,629.3z"/>
<path class="st0" d="M1200.2,618.5c-4.4,5.4-9.8,9.6-16.3,12.5c-6.4,2.9-13.2,4.3-20.2,4.3c-6.2,0-12.3-1.2-18.2-3.7
	s-11.1-5.9-15.5-10.3c-4.4-4.4-7.8-9.6-10.3-15.5c-2.5-5.9-3.7-12-3.7-18.2c0-1.4,0.1-3.2,0.3-5.4c0.2-2.2,0.7-4.8,1.5-7.6
	s1.9-5.8,3.4-8.8c1.5-3.1,3.6-6.1,6.2-9.1c4.5-5.3,10-9.4,16.4-12.3c6.4-2.9,13.1-4.4,19.9-4.4c3.9,0,7.5,0.4,10.8,1.3
	c3.3,0.9,6.3,1.9,8.9,3.1c2.6,1.2,4.9,2.5,6.8,3.8c1.9,1.3,3.4,2.4,4.4,3.2c5.3,4.5,9.4,9.9,12.3,16.3c2.9,6.4,4.4,13.1,4.4,20.1
	c0,1.4-0.1,3.2-0.3,5.5c-0.2,2.2-0.7,4.7-1.5,7.5c-0.8,2.7-1.9,5.6-3.4,8.7C1204.7,612.5,1202.7,615.5,1200.2,618.5z M1184.9,579.7
	c-1.6-4.3-4.4-7.8-8.3-10.5c-3.9-2.7-8.2-4-12.8-4c-1.5,0-3.7,0.4-6.7,1.2c-3,0.8-6.1,2.6-9.1,5.3c-2.2,2.1-3.8,4.5-5,7.3
	c-1.2,2.8-1.8,5.7-1.8,8.8c0,0.7,0.1,1.6,0.2,2.9c0.1,1.2,0.4,2.5,0.8,4c0.4,1.4,1.1,2.9,2,4.5c0.9,1.6,2.1,3.1,3.6,4.6
	c2.1,2.1,4.5,3.7,7.3,4.9c2.8,1.2,5.7,1.8,8.6,1.8c2.2,0,4.2-0.3,6-0.8c1.8-0.5,3.4-1.2,4.7-1.9s2.5-1.6,3.5-2.4
	c1-0.8,1.8-1.5,2.3-2c0.5-0.5,1.1-1.2,1.8-2.1c0.7-0.9,1.4-2,2-3.3c0.6-1.3,1.2-2.8,1.6-4.5c0.4-1.7,0.6-3.5,0.6-5.5
	C1186.3,585.1,1185.8,582.4,1184.9,579.7z"/>
<path class="st0" d="M1256,633.7l-18.7-29.3v29.3h-23.2v-91.6h34c4.3,0,8.3,0.3,12.1,0.9c3.7,0.6,7.4,2.3,11,5.1
	c1.1,0.9,2.3,2,3.6,3.4c1.3,1.4,2.5,3.2,3.7,5.3c1.2,2.1,2.1,4.5,2.9,7.2c0.8,2.7,1.2,5.9,1.2,9.4c0,3.6-0.4,6.8-1.3,9.6
	c-0.9,2.8-1.9,5.2-3.2,7.2c-1.3,2-2.6,3.7-4,5.1c-1.4,1.3-2.7,2.4-3.8,3.2c-1,0.7-1.9,1.3-3,1.8c-1,0.5-2.8,1.3-5.2,2.2l22.2,31.3
	H1256z M1257.7,567.6c-1.5-2.3-3.3-3.7-5.5-4.2c-2.2-0.5-4.6-0.7-7.1-0.7h-7.8v25.2h7.4c0.3-0.1,0.6-0.1,1-0.1c0.6,0,1.1,0,1.4-0.1
	c0.7-0.1,1.3-0.2,1.9-0.3c0.6-0.1,1.3-0.2,1.9-0.4c0.8-0.3,1.6-0.7,2.6-1.2c0.9-0.6,1.8-1.3,2.7-2.3c0.8-1,1.5-2.2,2.1-3.7
	c0.6-1.5,0.9-3.2,0.9-5.2c0-1.2-0.1-2.4-0.3-3.5S1258.4,568.7,1257.7,567.6z"/>
<path class="st0" d="M1324.5,562.9v70.8h-23.2v-71h-17.9v-20.6h59.4v20.8H1324.5z"/>
<path class="st0" d="M1348.6,628.3c-1.5,1.7-3.2,3-5.1,3.8c-1.9,0.8-4,1.3-6.3,1.4h-2.3h-3.8v-10.8c3.8,0.1,6.3-0.7,7.4-2.3
	c1.1-1.6,1.6-4.2,1.3-7.8h-8.7V591h21.4v23.4c0,2.7-0.2,5.1-0.6,7.3C1351.5,623.9,1350.4,626.1,1348.6,628.3z"/>
<path class="st0" d="M1414.4,562.9v70.8h-23.2v-71h-17.9v-20.6h59.4v20.8H1414.4z"/>
<path class="st0" d="M1436.6,633.7v-91.6h23.4v91.6H1436.6z"/>
<path class="st0" d="M1513.3,629.3c-2.1,1.6-4.1,2.7-6,3.6c-1.9,0.8-3.8,1.4-5.4,1.8c-1.7,0.4-3.2,0.6-4.7,0.7
	c-1.4,0.1-2.7,0.1-3.7,0.1c-4.6,0-8.5-0.6-11.9-1.8s-6.1-2.7-8.4-4.5c-2.3-1.8-4.1-3.7-5.5-5.7c-1.4-2-2.4-3.9-3-5.6
	c-0.8-2.2-1.3-4.5-1.6-6.7c-0.3-2.2-0.4-4.8-0.5-7.7h22.3c0,2.3,0.2,4.3,0.6,6.3c0.4,1.9,1.6,3.5,3.6,4.6c0.4,0.3,1,0.5,1.7,0.8
	c0.7,0.3,1.6,0.4,2.7,0.4c2.3,0,4.2-0.7,5.7-2.2c1.5-1.5,2.2-3.3,2.2-5.6c0-2.8-0.8-4.9-2.5-6.3c-1.7-1.4-3.6-2.7-5.8-3.8l-4.3-1.7
	c-1.7-0.7-3.4-1.4-5-2.1c-1.6-0.7-3.2-1.5-4.9-2.4c-1-0.6-2.4-1.5-4.1-2.7c-1.7-1.2-3.3-2.7-4.9-4.7c-1.6-1.9-2.9-4.3-4.1-7
	c-1.2-2.7-1.8-5.9-1.8-9.5c0-1,0.1-2.3,0.2-3.7c0.1-1.4,0.5-3,1-4.7c0.6-1.7,1.4-3.4,2.5-5.3c1.1-1.8,2.6-3.6,4.5-5.4
	c2.1-2,4.2-3.6,6.5-4.7c2.2-1.2,4.4-2.1,6.5-2.7s4-1,5.6-1.2c1.7-0.2,3-0.3,4.1-0.3c1,0,2.4,0.1,4.2,0.2c1.8,0.1,3.8,0.6,6,1.4
	c2.8,1,5.2,2.1,7.2,3.5c2,1.4,3.7,2.9,5.1,4.4c1.3,1.6,2.4,3.1,3.3,4.6c0.9,1.5,1.5,2.8,1.9,3.8c0.2,0.5,0.3,1,0.5,1.4
	c0.2,0.4,0.3,0.9,0.4,1.3c0.2,0.4,0.3,0.9,0.3,1.4c0,0.5,0.2,0.9,0.3,1.4c0.2,1,0.2,1.8,0.2,2.7c0,0.8,0,1.8,0.2,3H1503
	c0-1.2,0-2.1-0.1-2.6c0-0.5-0.2-1-0.3-1.4c-0.4-1.6-1.3-2.8-2.6-3.6c-1.3-0.9-2.8-1.3-4.4-1.3c-2.2,0-3.9,0.6-5.2,1.9
	c-1.3,1.3-1.9,3.1-1.9,5.3c0,1,0.2,1.8,0.5,2.4c0.3,0.6,0.6,1.1,0.8,1.5c1,1.3,2.5,2.5,4.3,3.5c1,0.5,2.1,1,3.3,1.6
	c1.2,0.5,2.6,1.1,4.2,1.8c4,1.8,7.2,3.4,9.6,4.9s4.2,2.7,5.4,3.8c0.7,0.5,1.3,1.1,1.8,1.7c0.8,0.7,1.6,1.6,2.3,2.7
	c2.2,3,3.6,5.8,4,8.4c0.4,2.6,0.6,4.6,0.6,6c0,1.4-0.1,3-0.3,4.9c-0.2,1.9-0.7,3.9-1.6,6c-0.8,2.1-2,4.3-3.6,6.6
	C1518.2,625.1,1516,627.2,1513.3,629.3z"/>
<path class="st0" d="M1585.3,633.7l-34.4-50.1v50.1h-23v-91.6h20.4c4.1,5.8,8,11.4,11.9,16.9c3.9,5.5,7.8,11.2,11.7,17.1l10.8,16.5
	v-50.5h23.1v91.6H1585.3z"/>
<path class="st0" d="M1692.6,618.5c-4.4,5.4-9.8,9.6-16.3,12.5c-6.4,2.9-13.2,4.3-20.2,4.3c-6.2,0-12.3-1.2-18.2-3.7
	s-11.1-5.9-15.5-10.3c-4.4-4.4-7.8-9.6-10.3-15.5c-2.5-5.9-3.7-12-3.7-18.2c0-1.4,0.1-3.2,0.3-5.4c0.2-2.2,0.7-4.8,1.5-7.6
	c0.8-2.8,1.9-5.8,3.4-8.8c1.5-3.1,3.6-6.1,6.2-9.1c4.5-5.3,10-9.4,16.4-12.3c6.4-2.9,13.1-4.4,19.9-4.4c3.9,0,7.5,0.4,10.8,1.3
	c3.3,0.9,6.3,1.9,8.9,3.1c2.6,1.2,4.9,2.5,6.8,3.8c1.9,1.3,3.4,2.4,4.4,3.2c5.3,4.5,9.4,9.9,12.3,16.3c2.9,6.4,4.4,13.1,4.4,20.1
	c0,1.4-0.1,3.2-0.3,5.5c-0.2,2.2-0.7,4.7-1.5,7.5c-0.8,2.7-1.9,5.6-3.4,8.7C1697.1,612.5,1695.1,615.5,1692.6,618.5z M1677.3,579.7
	c-1.6-4.3-4.4-7.8-8.3-10.5c-3.9-2.7-8.2-4-12.8-4c-1.5,0-3.7,0.4-6.7,1.2c-3,0.8-6.1,2.6-9.1,5.3c-2.2,2.1-3.8,4.5-5,7.3
	c-1.2,2.8-1.8,5.7-1.8,8.8c0,0.7,0.1,1.6,0.2,2.9s0.4,2.5,0.8,4c0.4,1.4,1.1,2.9,2,4.5c0.9,1.6,2.1,3.1,3.6,4.6
	c2.1,2.1,4.5,3.7,7.3,4.9c2.8,1.2,5.7,1.8,8.6,1.8c2.2,0,4.2-0.3,6-0.8c1.8-0.5,3.4-1.2,4.7-1.9c1.3-0.8,2.5-1.6,3.5-2.4
	c1-0.8,1.8-1.5,2.3-2c0.5-0.5,1.1-1.2,1.8-2.1c0.7-0.9,1.4-2,2-3.3c0.6-1.3,1.2-2.8,1.6-4.5c0.4-1.7,0.6-3.5,0.6-5.5
	C1678.7,585.1,1678.2,582.4,1677.3,579.7z"/>
<g>
	<path class="st0" d="M614.2,739.5c-4.5,5.2-9.9,9.2-16.3,12c-6.4,2.8-13,4.2-19.8,4.2c-6.2,0-12.3-1.2-18.2-3.7
		c-5.9-2.5-11.1-5.9-15.5-10.3c-4.4-4.4-7.8-9.6-10.3-15.5c-2.5-5.9-3.7-12-3.7-18.4c0-6,1.1-11.7,3.2-17.2
		c2.2-5.5,5.2-10.4,9.1-14.9c4.5-5,9.9-8.9,16.1-11.7c6.2-2.8,12.7-4.2,19.5-4.2c1.4,0,3.2,0.1,5.5,0.3c2.3,0.2,4.8,0.7,7.6,1.6
		c2.8,0.8,5.7,2,8.8,3.5c3.1,1.5,6.2,3.6,9.2,6.2c5.3,4.5,9.4,9.9,12.3,16.3c2.9,6.4,4.4,13.1,4.4,20.1c0,5.7-1,11.3-3,16.7
		C621.1,730.2,618.1,735.1,614.2,739.5z M598,691.7c-1.7-2.1-3.5-3.7-5.4-4.9c-1.9-1.2-3.8-2.1-5.6-2.8c-1.8-0.6-3.5-1.1-5.1-1.2
		c-1.6-0.2-2.8-0.3-3.6-0.3c-3.6,0-7.1,0.8-10.5,2.3c-4.5,2-8.1,5.1-10.9,9.3c-2.8,4.2-4.2,8.8-4.2,13.9c0,0.8,0.1,1.9,0.2,3.2
		c0.1,1.4,0.5,2.9,1,4.5c0.5,1.6,1.3,3.3,2.3,5.1c1,1.8,2.4,3.6,4.1,5.3c2.5,2.4,5.3,4.3,8.4,5.5c3.1,1.3,6.3,1.9,9.6,1.9
		c0.8,0,1.8-0.1,2.9-0.2c1.2-0.1,2.5-0.4,4-0.8c1.5-0.4,3-1,4.7-1.8c1.6-0.8,3.2-1.9,4.8-3.2c2.1-1.6,3.7-3.4,4.9-5.4
		c1.2-1.9,2.1-3.8,2.8-5.6c0.6-1.8,1.1-3.5,1.2-5c0.2-1.5,0.3-2.7,0.3-3.7C603.9,701.7,601.9,696.3,598,691.7z"/>
	<path class="st0" d="M686.6,722.9l-20.2,30.8H638l21.5-27.8c-2.4,0.2-4.5,0.2-6.2,0.1c-1.7-0.1-3.4-0.4-5.1-0.9
		c-3.3-0.9-6.2-2.3-8.8-4.4c-2.6-2.1-4.7-4.5-6.6-7.3c-1.8-2.8-3.2-5.8-4.2-9c-1-3.2-1.4-6.6-1.4-9.9c0-4.8,0.9-9.2,2.8-13.4
		c1.9-4.2,4.3-7.8,7.5-10.9c3.1-3.1,6.8-5.6,11-7.3s8.6-2.7,13.3-2.7c1.9,0,4.6,0.3,8.2,1c3.5,0.6,7.3,2.4,11.3,5.1
		c1.3,1,2.8,2.2,4.5,3.8c1.7,1.6,3.4,3.6,4.9,6c1.6,2.4,2.9,5.2,3.9,8.4c1,3.2,1.6,7,1.6,11.2c0,2.8-0.2,5.3-0.6,7.7
		s-1.1,4.6-1.9,6.7c-0.9,2.2-1.9,4.3-3,6.4S688.1,720.8,686.6,722.9z M670.1,686.3c-0.6-0.6-1.6-1.3-3-2.2c-1.4-0.9-3.2-1.3-5.4-1.3
		c-1.6,0-3.2,0.3-4.7,1c-1.5,0.6-2.7,1.5-3.8,2.6c-1.1,1.1-1.9,2.3-2.5,3.8c-0.6,1.4-0.9,3-0.9,4.6c0,1.7,0.3,3.3,1,4.8
		c0.6,1.5,1.5,2.7,2.6,3.8c1.1,1,2.4,1.9,3.8,2.5c1.5,0.6,3,0.9,4.7,0.9c3.5,0,6.3-1.2,8.6-3.5c2.2-2.3,3.4-5.2,3.4-8.6
		c0-0.8-0.2-2-0.5-3.6C672.9,689.5,671.9,687.9,670.1,686.3z"/>
	<path class="st0" d="M722.2,729.4v-21.5h61.6v21.5H722.2z"/>
	<path class="st0" d="M820.3,753.7v-74.1h-10.5v-17.5h33.5v91.6H820.3z"/>
	<path class="st0" d="M908,737.8v15.8h-22.7v-15.8h-38.1v-17.8l37.6-58h23.1v57h7.5v18.8H908z M871.4,719l13.9-0.1
		c0-2.4,0-4.6,0-6.4c0-1.9,0-3.7,0.1-5.6l0.4-13.1L871.4,719z"/>
	<path class="st0" d="M1000.7,753.7l-4.5-12.8h-30.7l-4.3,12.8h-26.3l36.7-92.1h19.1l37.1,92.1H1000.7z M980.5,693.3l-9.1,28.4h18.7
		L980.5,693.3z"/>
	<path class="st0" d="M1090,730.7c-0.3,1-0.6,2.1-1,3.6c-0.4,1.4-1.1,3-2,4.6c-0.9,1.6-2.1,3.4-3.6,5.1c-1.5,1.8-3.4,3.5-5.7,5.1
		c-2,1.5-4.6,2.9-7.9,4.3c-3.3,1.4-7.7,2.1-13.4,2.1c-5.4,0-9.9-0.7-13.6-2.1s-6.9-3.2-9.4-5.3c-2.6-2.1-4.5-4.4-6-6.9
		c-1.4-2.5-2.4-4.8-3-6.9c-0.3-1-0.6-2.1-0.8-3.2c-0.2-1.1-0.4-2.2-0.5-3.5c-0.1-1.3-0.2-2.7-0.3-4.3c-0.1-1.6-0.1-3.6-0.1-5.8
		v-55.3h23.4v58.1c0,2.3,0.3,4.3,0.8,6.2c0.6,1.9,1.8,3.6,3.8,5.1c0.6,0.3,1.2,0.6,1.8,0.9c0.6,0.3,1.2,0.4,1.8,0.5
		c0.5,0.1,1,0.1,1.5,0.1c0.5,0,0.8,0,1.1,0c3.1,0,5.7-1,7.9-2.9c2.2-1.9,3.2-4.4,3.2-7.5v-3v-57.6h23.4v52c0,2.7,0,5.5-0.1,8.4
		C1091.1,725.4,1090.7,728.1,1090,730.7z"/>
	<path class="st0" d="M1178.6,737.5c-4.7,5.7-10.3,10.1-16.8,13.2c-6.5,3.1-13.5,4.7-20.8,4.7c-1.5,0-3.3-0.1-5.4-0.3
		c-2.1-0.2-4.5-0.7-7-1.4c-2.6-0.7-5.3-1.8-8.1-3.1c-2.9-1.3-5.8-3.2-8.7-5.5c-1.5-1.1-3.2-2.7-5.3-4.9c-2.1-2.1-4-4.7-5.9-7.8
		c-1.9-3.1-3.4-6.6-4.7-10.7c-1.3-4.1-1.9-8.6-1.9-13.8c0-5.5,0.7-10.3,2.1-14.5c1.4-4.2,3.2-7.9,5.2-11.1c2-3.1,4.2-5.7,6.4-7.8
		c2.2-2.1,4.2-3.7,5.7-4.9c8.2-6.1,17.5-9.2,27.9-9.2c5.6,0,10.6,0.8,15,2.3c4.4,1.5,8.2,3.3,11.4,5.5c3.2,2.2,5.9,4.4,8,6.7
		c2.1,2.3,3.7,4.3,4.9,5.9c0.5,0.8,1,1.5,1.4,2.2c0.4,0.7,0.9,1.5,1.3,2.3c0.4,0.9,0.9,1.9,1.4,3c0.5,1.2,1.1,2.6,1.8,4.3h-26.5
		l-1-1.4l-0.4-0.4l-0.3-0.5l-1-1c-2.2-2-4.6-3.4-7.4-4.3c-2.8-0.9-5.5-1.3-8.3-1.3c-1,0-2.3,0.1-3.9,0.3c-1.6,0.2-3.5,0.7-5.7,1.7
		c-2.3,1-4.3,2.2-6,3.7c-1.8,1.5-3.3,3.2-4.6,5.2c-1.3,1.9-2.3,4.1-3,6.4c-0.7,2.3-1,4.7-1,7.1c0,1.6,0.3,3.8,0.8,6.4
		c0.6,2.6,2.1,5.5,4.5,8.5c0.5,0.7,1.3,1.6,2.5,2.6c1.1,1,2.5,2,4.1,3c1.6,1,3.4,1.8,5.5,2.5c2.1,0.7,4.4,1,6.9,1
		c2.2,0,4.2-0.2,6-0.7c1.8-0.5,3.4-1,4.8-1.7c1.4-0.6,2.6-1.4,3.6-2.1c1-0.8,1.8-1.4,2.3-1.9c0.4-0.4,0.8-0.9,1.2-1.4
		c0.3-0.5,0.9-1.3,1.6-2.5h-25.3v-19.5h54c-0.2,3.5-0.5,6.9-0.8,10c-0.4,3.1-1,6.1-1.7,9c-0.8,2.9-1.8,5.6-3.1,8.2
		C1182.5,732.1,1180.8,734.8,1178.6,737.5z"/>
	<path class="st0" d="M1259.6,730.7c-0.3,1-0.6,2.1-1,3.6c-0.4,1.4-1.1,3-2,4.6c-0.9,1.6-2.1,3.4-3.6,5.1c-1.5,1.8-3.4,3.5-5.7,5.1
		c-2,1.5-4.6,2.9-7.9,4.3c-3.3,1.4-7.7,2.1-13.4,2.1c-5.4,0-9.9-0.7-13.6-2.1s-6.9-3.2-9.4-5.3c-2.6-2.1-4.5-4.4-6-6.9
		c-1.4-2.5-2.4-4.8-3-6.9c-0.3-1-0.6-2.1-0.8-3.2c-0.2-1.1-0.4-2.2-0.5-3.5c-0.1-1.3-0.2-2.7-0.3-4.3c-0.1-1.6-0.1-3.6-0.1-5.8
		v-55.3h23.4v58.1c0,2.3,0.3,4.3,0.8,6.2c0.6,1.9,1.8,3.6,3.8,5.1c0.6,0.3,1.2,0.6,1.8,0.9c0.6,0.3,1.2,0.4,1.8,0.5
		c0.5,0.1,1,0.1,1.5,0.1c0.5,0,0.8,0,1.1,0c3.1,0,5.7-1,7.9-2.9c2.2-1.9,3.2-4.4,3.2-7.5v-3v-57.6h23.4v52c0,2.7,0,5.5-0.1,8.4
		C1260.6,725.4,1260.3,728.1,1259.6,730.7z"/>
	<path class="st0" d="M1314.2,749.3c-2.1,1.6-4.1,2.7-6,3.6c-1.9,0.8-3.8,1.4-5.4,1.8c-1.7,0.4-3.2,0.6-4.7,0.7
		c-1.4,0.1-2.7,0.1-3.7,0.1c-4.6,0-8.5-0.6-11.9-1.8c-3.3-1.2-6.1-2.7-8.4-4.5s-4.1-3.7-5.5-5.7c-1.4-2-2.4-3.9-3-5.6
		c-0.8-2.2-1.3-4.5-1.6-6.7c-0.3-2.2-0.4-4.8-0.5-7.7h22.3c0,2.3,0.2,4.3,0.6,6.3c0.4,1.9,1.6,3.5,3.6,4.6c0.4,0.3,1,0.5,1.7,0.8
		c0.7,0.3,1.6,0.4,2.7,0.4c2.3,0,4.2-0.7,5.7-2.2c1.5-1.5,2.2-3.3,2.2-5.6c0-2.8-0.8-4.9-2.5-6.3c-1.7-1.4-3.6-2.7-5.8-3.8l-4.3-1.7
		c-1.7-0.7-3.4-1.4-5-2.1c-1.6-0.7-3.2-1.5-4.9-2.4c-1-0.6-2.4-1.5-4.1-2.7c-1.7-1.2-3.3-2.7-4.9-4.7c-1.6-1.9-2.9-4.3-4.1-7
		c-1.2-2.7-1.8-5.9-1.8-9.5c0-1,0.1-2.3,0.2-3.7c0.1-1.4,0.5-3,1-4.7c0.6-1.7,1.4-3.4,2.5-5.3c1.1-1.8,2.6-3.6,4.5-5.4
		c2.1-2,4.2-3.6,6.5-4.7c2.2-1.2,4.4-2.1,6.5-2.7c2.1-0.6,4-1,5.6-1.2c1.7-0.2,3-0.3,4.1-0.3c1,0,2.4,0.1,4.2,0.2
		c1.8,0.1,3.8,0.6,6,1.4c2.8,1,5.2,2.1,7.2,3.5c2,1.4,3.7,2.9,5.1,4.4c1.3,1.6,2.4,3.1,3.3,4.6c0.9,1.5,1.5,2.8,1.9,3.8
		c0.2,0.5,0.3,1,0.5,1.4c0.2,0.4,0.3,0.9,0.4,1.3c0.2,0.4,0.3,0.9,0.3,1.4c0,0.5,0.2,0.9,0.3,1.4c0.2,1,0.2,1.8,0.2,2.7
		c0,0.8,0,1.8,0.2,3h-21.7c0-1.2,0-2.1-0.1-2.6c0-0.5-0.2-1-0.3-1.4c-0.4-1.6-1.3-2.8-2.6-3.6c-1.3-0.9-2.8-1.3-4.4-1.3
		c-2.2,0-3.9,0.6-5.2,1.9c-1.3,1.3-1.9,3.1-1.9,5.3c0,1,0.2,1.8,0.5,2.4c0.3,0.6,0.6,1.1,0.8,1.5c1,1.3,2.5,2.5,4.3,3.5
		c1,0.5,2.1,1,3.3,1.6c1.2,0.5,2.6,1.1,4.2,1.8c4,1.8,7.2,3.4,9.6,4.9c2.4,1.4,4.2,2.7,5.4,3.8c0.7,0.5,1.3,1.1,1.8,1.7
		c0.8,0.7,1.6,1.6,2.3,2.7c2.2,3,3.6,5.8,4,8.4c0.4,2.6,0.6,4.6,0.6,6c0,1.4-0.1,3-0.3,4.9c-0.2,1.9-0.7,3.9-1.6,6
		c-0.8,2.1-2,4.3-3.6,6.6C1319.1,745,1317,747.2,1314.2,749.3z"/>
	<path class="st0" d="M1368,682.8v70.8h-23.2v-71h-17.9v-20.6h59.4v20.8H1368z"/>
</g>
<path class="st1" d="M1677,118.6c0,59.2-48.5,107.3-107.7,107.3l-76,0V11.4l76.5,0C1629,11.4,1677,59.4,1677,118.6 M1619.4,118.2
	c0-32.6-25.5-56.2-56.9-56.4l-12.7-0.1v113.1l12.7,0C1593.9,174.7,1619.4,150.8,1619.4,118.2"/>
<path class="st1" d="M580.6,118.2c0,62.6-51.2,113.3-113.8,113.3l-3,0v-59.1h5.3c29,0,52.5-24.2,52.5-54.3
	c0-30.1-23.5-54.3-52.5-54.5l-5.3,0V4.9h3.5C529.8,4.9,580.6,55.6,580.6,118.2"/>
<polygon class="st1" points="710.6,59 645.3,59 645.3,91.2 710.6,91.2 710.6,141.7 645.6,141.7 645.6,176.9 711.3,176.9 
	711.3,225.9 588.8,225.9 588.8,11.3 710.6,11.3 "/>
<polygon class="st1" points="848.1,59.6 778.2,59.6 778.2,94 847.8,94 847.8,144.1 778.2,144.1 778.2,225.9 723.8,225.9 723.8,11.3 
	848.1,11.3 "/>
<polygon class="st1" points="983.4,59 918,59 918,91.2 983.4,91.2 983.4,141.7 918.3,141.7 918.3,176.9 984,176.9 984,225.9 
	861.5,225.9 861.5,11.3 983.4,11.3 "/>
<path class="st1" d="M1151.9,91.6c-1.5-3.1-3.3-5.5-5.2-8.2c-10.3-13.7-25.8-21.3-43.2-21.3c-11.2,0-19.2,3-23.1,4.9
	c-21,8.8-33.7,29.2-33.7,51.7c0.3,10.3,2.7,17.3,4.3,21c4.3,10,19.4,34.9,52.6,34.9c8.8,0,14.9-1.8,18.5-3
	c3.4-1.2,15.2-6.7,23.4-16.4c2.1-2.7,3.4-4.6,6.7-10h59.6c-4.6,14-7.3,20.1-10.6,26.4c-20.7,38.3-55,51.7-70.2,55.3
	c-4.5,1.2-14.3,3-26.7,3c-54.4,0-83.3-33.4-94.2-49.2c-7-10-18.5-29.8-18.5-60.5c0-58.4,38.3-88.4,55.6-98.8
	c8.8-5.2,28.6-14.6,55.9-14.6c14,0,42.5,2.4,70.8,25.5c26.4,21.6,34,46.8,37.7,59.3H1151.9z"/>
<polygon class="st1" points="1343.6,59.6 1300.7,59.6 1300.7,225.9 1246.3,225.9 1246.3,59.3 1204.4,59.3 1204.4,11.3 1343.6,11.3 
	"/>
<polygon class="st1" points="1478.7,59 1413.3,59 1413.3,91.2 1478.7,91.2 1478.7,141.7 1413.6,141.7 1413.6,176.9 1479.2,176.9 
	1479.2,225.9 1356.7,225.9 1356.7,11.3 1478.7,11.3 "/>
<polygon class="st1" points="1652.4,16.3 1652.4,11.1 1672.2,11.1 1672.2,16.3 1665.4,16.3 1665.4,34.6 1659.2,34.6 1659.2,16.3 "/>
<path class="st1" d="M1694.4,18.2L1694.4,18.2l-4.5,16.4h-5l-4.5-16.4l-0.2-1c0.1,0.4-0.1,17.4-0.1,17.4h-5.5V11.1h8.6l3.6,13.8
	c0.2,0.8,0.4,2.1,0.5,3.6c0,0.4,0.1,0.8,0.1,1.2c0-0.8,0-1.7,0.1-2.5c0.1-1,0.3-1.7,0.4-2.2l3.7-13.8h8.6v23.5h-5.8V18.2z"/>
<rect x="217.8" y="0.5" class="st0" width="234.8" height="234.8"/>
<g>
	<path class="st1" d="M1280.6,482v-44.4c7.3-6.7,14.4-13.3,21.3-19.7c6.8-6.4,13.6-12.9,20.3-19.4l17.3-17
		c5.9-5.9,10.9-11.1,15.1-15.7c4.2-4.6,7.6-9,10.2-13.1c2.6-4.1,4.5-8,5.7-11.8c1.2-3.8,1.7-7.8,1.7-12c0-2.3-0.2-4.1-0.5-5.4
		c-0.3-1.3-0.6-2.4-0.8-3.5c-1.3-3.4-3.3-6.1-6-8.2c-2.7-2.1-6-3.1-9.8-3.1c-2.7,0-4.8,0.4-6.1,1.3c-1.4,0.8-2.5,1.6-3.3,2.2
		c-3.4,2.7-5.6,6-6.6,9.9c-1.1,3.9-1.7,7.8-1.9,11.8c-0.2,1.5-0.3,3-0.3,4.7c0,1.7,0,3.8,0,6.3l-58.6-0.3c0-3.6,0-7.5,0-11.8
		c0-4.3,0.5-9,1.6-14c1-5.2,2.7-10.7,4.9-16.4c2.2-5.7,5.5-11.3,9.9-17c2.5-3.1,5.6-6.5,9.3-10.1c3.7-3.6,8.2-6.8,13.5-9.8
		c5.4-2.9,11.5-5.4,18.6-7.2c7-1.9,15.3-2.8,24.7-2.8c1.7,0,4.1,0.1,7.4,0.3c3.3,0.2,6.9,0.7,11,1.4c4.1,0.7,8.5,1.9,13.2,3.6
		c4.7,1.7,9.5,4.1,14.3,7.2c2.1,1.7,4.8,4,8.2,7.1c3.4,3,6.5,6.8,9.4,11.3c2.9,4.5,5.5,9.8,7.7,15.9c2.2,6.1,3.3,13.1,3.3,21.1
		c0,1.3,0,2.7,0,4.4c0,1.7-0.2,3.6-0.6,5.7c-0.2,2.3-0.6,4.7-1.1,7.1c-0.5,2.4-1.3,5-2.4,7.7c-4,10.3-9.7,20-17.2,29.1
		c-7.5,9.1-14.9,17.6-22.2,25.4l-22,23.3h67.7V482H1280.6z"/>
	<path class="st1" d="M1641.2,447.6c-10.9,12.6-24.1,22.3-39.5,29.1c-15.4,6.8-31.4,10.2-48,10.2c-15.1,0-29.9-3-44.2-9
		c-14.4-6-26.9-14.3-37.6-25c-10.7-10.7-19.1-23.3-25-37.6c-6-14.4-9-29.2-9-44.6c0-14.5,2.6-28.4,7.9-41.7
		c5.2-13.3,12.6-25.4,22-36.1c10.9-12.2,23.9-21.6,39.1-28.3c15.1-6.7,30.9-10.1,47.2-10.1c3.4,0,7.8,0.3,13.4,0.8
		c5.6,0.5,11.7,1.8,18.4,3.8c6.7,2,13.9,4.8,21.4,8.5c7.6,3.7,15,8.7,22.4,15c12.8,10.9,22.8,24.1,29.9,39.7
		c7.1,15.5,10.7,31.8,10.7,48.8c0,13.9-2.5,27.4-7.4,40.6C1657.8,425,1650.6,436.9,1641.2,447.6z M1599,333.9
		c-3.8-4.6-7.9-8.3-12.3-11.2c-4.4-2.8-8.7-5-12.9-6.5c-4.2-1.5-8-2.4-11.5-2.8c-3.5-0.4-6.2-0.6-8.3-0.6c-7.8,0-15.7,1.8-23.9,5.4
		c-10.3,4.6-18.6,11.7-24.9,21.3c-6.3,9.6-9.4,20.1-9.4,31.7c0,1.9,0.2,4.4,0.5,7.4c0.3,3,1.1,6.5,2.4,10.2c1.3,3.8,3,7.7,5.4,11.8
		c2.3,4.1,5.4,8,9.1,11.8c5.5,5.5,11.8,9.7,18.9,12.6c7.1,2.9,14.5,4.4,22,4.4c1.7,0,3.9-0.2,6.6-0.5c2.7-0.3,5.7-0.9,9-1.9
		c3.3-0.9,6.8-2.3,10.6-4.1c3.8-1.8,7.4-4.1,11-7.1c4.6-3.8,8.3-7.9,11.2-12.3c2.8-4.4,5-8.7,6.5-12.8c1.5-4.1,2.4-7.9,2.8-11.5
		c0.4-3.6,0.6-6.4,0.6-8.5C1612.2,356.9,1607.8,344.7,1599,333.9z"/>
	<path class="st1" d="M1690.9,482V306.2H1667v-46.6h81.3V482H1690.9z"/>
	<path class="st1" d="M1885.9,473.1c-4.2,2.9-10.5,6-18.9,9.1c-8.4,3.1-18.9,4.7-31.5,4.7c-2.9,0-7.4-0.3-13.2-0.8
		c-5.9-0.5-12.3-2-19.2-4.6c-6.9-2.5-13.4-6-19.4-10.4c-6-4.4-11.1-9.5-15.4-15.3c-4.3-5.8-7.7-12.1-10.1-19.1
		c-2.4-6.9-3.6-14.3-3.6-22c0-7.1,1-13.6,3-19.4c2-5.8,4.4-10.8,7.2-15c2.8-4.2,5.7-7.7,8.7-10.4c2.9-2.7,5.4-4.7,7.2-6l4.7-3.1
		c-2.3-1.7-4.5-3.5-6.5-5.4c-2-1.9-3.7-3.9-5.2-6c-2.3-3.4-4.3-7.3-5.8-12c-1.6-4.6-2.4-10.3-2.4-17c0-6.7,0.7-12.3,2.2-16.7
		c1.5-4.4,2.8-7.8,4.1-10.1c1.9-3.6,4.5-7.6,7.9-12c3.4-4.4,7.7-8.6,13.1-12.4c5.4-3.9,11.8-7.1,19.2-9.8c7.4-2.6,16.2-3.9,26.3-3.9
		c1.7,0,4,0.1,7.1,0.3c3,0.2,6.4,0.7,10.1,1.4c3.7,0.7,7.6,1.9,11.8,3.6c4.2,1.7,8.4,4.1,12.6,7.2c7.6,5.5,13.8,12.4,18.7,20.8
		c4.9,8.4,7.4,17.6,7.4,27.7c0,8.8-1.5,16.3-4.4,22.4c-2.9,6.1-5.4,10.4-7.2,12.9c-1.3,1.5-2.5,2.8-3.6,4.1
		c-1.2,1.3-2.5,2.4-3.9,3.5c2.3,1.3,4.1,2.4,5.4,3.3c1.3,0.9,2.6,2,4.1,3.3c5,4,9,8.3,11.8,13.1c2.8,4.7,5,9.3,6.5,13.9
		c1.5,4.5,2.4,8.7,2.8,12.4c0.4,3.8,0.6,6.7,0.6,8.8c0,8.2-1.3,15.6-3.9,22.2c-2.6,6.6-5.7,12.4-9.1,17.3c-3.5,4.9-7,9-10.5,12.1
		C1890.8,469.4,1888,471.7,1885.9,473.1z M1836.4,388.1c-6.5,0-12,2.3-16.4,6.8c-4.4,4.5-6.6,9.9-6.6,16.2c0.2,1.5,0.4,2.8,0.6,3.9
		c0.2,1.2,0.4,2.2,0.6,3c0.8,3.6,2.7,6.7,5.7,9.4c2.9,2.9,5.9,4.8,9,5.5c3,0.7,5.4,1.1,7.1,1.1c6.3,0,11.7-2.3,16.1-6.8
		c4.4-4.5,6.6-9.9,6.6-16.2c0-6.5-2.3-12-6.8-16.4C1847.8,390.3,1842.5,388.1,1836.4,388.1z M1836.1,306.5c-4.8,0-8.9,1.7-12.1,5
		c-3.3,3.4-4.9,7.5-4.9,12.3c0,1.1,0.3,2.7,0.8,5c0.5,2.3,1.9,4.6,4.3,6.9c2.3,2.3,4.6,3.7,6.9,4.3c2.3,0.5,4,0.8,5,0.8
		c4.8,0,8.9-1.7,12.1-5c3.3-3.4,4.9-7.5,4.9-12.3c0-4.8-1.6-8.9-4.9-12.1C1845,308.2,1840.9,306.5,1836.1,306.5z"/>
</g>
<path class="st1" d="M213.7,424.4c-5.4,9.7-11.4,17.9-18,24.6c-6.6,6.7-13.2,12.3-19.8,16.7c-6.6,4.4-12.9,7.8-18.9,10.2
	c-6,2.4-10.9,4-14.9,4.8c-2.3,0.4-5.8,1-10.5,1.9c-4.8,0.8-10.3,1.2-16.7,1.2c-13.8,0-26.1-1.9-36.9-5.6c-10.7-3.7-20-8.2-27.9-13.5
	c-7.9-5.3-14.4-10.7-19.5-16.4c-5.2-5.7-9.1-10.6-11.8-14.7c-1.9-2.5-3.9-5.6-6-9.4c-2.2-3.8-4.2-8.3-6.2-13.5
	c-2-5.2-3.6-10.9-4.8-17.3C0.6,387,0,379.9,0,372c0-14.9,2.1-28,6.4-39.3c4.2-11.4,9.3-21.2,15.3-29.4c6-8.3,12.2-15,18.7-20.1
	c6.5-5.2,11.9-9.1,16.3-11.8c2.3-1.4,5.2-3,8.8-4.6c3.6-1.7,7.8-3.3,12.5-4.8c4.7-1.5,10.1-2.8,16-3.9c5.9-1,12.4-1.5,19.7-1.5
	c3.5,0,7.9,0.3,13.2,0.8c5.3,0.5,11,1.7,17.3,3.4c6.3,1.8,13,4.4,20.1,7.9c7.1,3.5,14.3,8.2,21.5,13.9c6.8,5.6,12.4,11.3,16.9,17
	c4.4,5.8,8.2,11.5,11.2,17c3,5.6,5.3,10.9,7,16c1.6,5.1,3.1,9.6,4.3,13.5h-64.4c-1-1.9-2-3.6-2.9-5.1c-0.9-1.5-1.8-2.8-2.6-3.9
	c-4.8-6.6-10.7-11.6-17.8-15c-7.1-3.4-14.8-5.1-23.1-5.1c-5.4,0-9.9,0.5-13.6,1.5c-3.7,1-6.5,2-8.4,2.8
	c-9.9,4.3-17.8,10.9-23.7,19.8c-5.9,8.9-8.7,18.7-8.5,29.4c0,5,0.5,9.1,1.5,12.4c1,3.3,1.9,5.8,2.5,7.4c1,2.5,2.7,5.6,5.1,9.3
	c2.4,3.7,5.6,7.3,9.6,10.8c4,3.5,9,6.6,14.9,9.1c5.9,2.6,12.7,3.9,20.6,3.9c4.1,0,7.7-0.3,10.7-0.9c3-0.6,5.3-1.2,7-1.9
	c1.7-0.4,4.7-1.9,9.3-4.5c4.5-2.6,8.8-6.2,12.7-11c0.6-0.6,1.1-1.2,1.5-1.9c0.4-0.6,0.8-1.2,1.2-1.9l4.6-7.1h64.1
	c-2.9,8.7-5.2,15-6.8,19.1C217,417.4,215.4,421.1,213.7,424.4"/>
<path class="st1" d="M333,324.3c-2.9-4.7-6.7-7.7-11.3-8.8c-4.6-1.1-9.9-1.7-15.6-1.7h-15.5v53.9h14.3c0.6-0.2,1.4-0.3,2.5-0.3
	c1,0,2.2-0.1,3.4-0.3c2.3,0,5.2-0.5,8.7-1.5c1.4-0.4,3.1-1.2,5.1-2.3c2-1.1,3.9-2.8,5.7-5c1.9-2.2,3.4-4.8,4.6-8.1
	c1.2-3.2,1.9-7,1.9-11.3c0-2.5-0.3-5-0.8-7.4C335.4,329,334.4,326.6,333,324.3 M329.9,479.8l-39.3-62.3v62.3h-58.9V261.1h81.2
	c10.1,0,19.7,0.7,28.7,2.2c9,1.4,17.8,5.6,26.5,12.4c2.7,2.1,5.6,4.8,8.8,8.2c3.2,3.4,6.2,7.6,9,12.5c2.8,5,5.1,10.8,7,17.5
	c1.9,6.7,2.8,14.3,2.8,22.8c0,8.7-1,16.3-3.1,22.9c-2.1,6.6-4.6,12.4-7.7,17.3c-3.1,5-6.4,9.1-9.8,12.4c-3.4,3.3-6.5,5.9-9.1,7.7
	c-2.3,1.7-4.5,3-6.8,4.2c-2.3,1.1-5.5,2.5-9.6,4.2l52.4,74.3H329.9z"/>
<path class="st1" d="M564.6,351c-3.9-10.3-10.5-18.7-19.8-25.1c-9.3-6.4-19.5-9.6-30.7-9.6c-3.5,0-8.9,0.9-16.1,2.8
	c-7.2,1.9-14.5,6.1-21.7,12.7c-5.2,5-9.1,10.8-11.9,17.5c-2.8,6.7-4.2,13.7-4.2,20.9c0,1.7,0.2,3.9,0.5,6.8c0.3,2.9,1,6,2,9.4
	c1,3.4,2.6,7,4.8,10.8c2.2,3.8,5,7.5,8.5,11c5,5,10.8,8.8,17.5,11.6c6.7,2.8,13.6,4.2,20.6,4.2c5.2,0,9.9-0.6,14.2-1.9
	c4.3-1.2,8.1-2.8,11.3-4.6c3.2-1.9,6-3.8,8.4-5.7c2.4-2,4.2-3.6,5.4-4.8c1.2-1.2,2.7-2.9,4.3-5.1c1.6-2.2,3.3-4.8,4.8-7.9
	c1.5-3.1,2.8-6.7,3.9-10.7c1-4,1.5-8.4,1.5-13.2C568,363.8,566.9,357.4,564.6,351 M601.2,443.6c-10.5,13-23.5,23-38.9,29.9
	c-15.4,6.9-31.4,10.4-48.2,10.4c-14.9,0-29.4-2.9-43.5-8.8c-14.1-5.9-26.5-14.1-37-24.6c-10.5-10.5-18.7-22.9-24.6-37
	c-5.9-14.1-8.8-28.7-8.8-43.5c0-3.3,0.3-7.6,0.8-13c0.5-5.4,1.7-11.4,3.6-18.1c1.9-6.7,4.6-13.7,8.2-21.1
	c3.6-7.3,8.5-14.6,14.7-21.8c10.7-12.6,23.8-22.4,39.2-29.4c15.4-7,31.2-10.5,47.5-10.5c9.3,0,17.9,1,25.9,3.1
	c7.9,2.1,15.1,4.5,21.4,7.4c6.3,2.9,11.7,5.9,16.3,9c4.5,3.1,8.1,5.7,10.5,7.7c12.6,10.7,22.4,23.7,29.4,39
	c7,15.3,10.5,31.3,10.5,48c0,3.3-0.3,7.6-0.8,13c-0.5,5.4-1.7,11.3-3.6,17.8c-1.9,6.5-4.6,13.4-8.2,20.8
	C611.9,429.1,607.1,436.3,601.2,443.6"/>
<path class="st1" d="M712.3,344.4l-17.7,56.1h36.6L712.3,344.4z M757.9,479.8l-10.5-30h-68.5l-9.9,30H602l87.7-219.9h48l88.6,219.9
	H757.9z"/>
<polygon class="st1" points="890.7,314.4 890.7,479.8 832.2,479.8 832.2,314.1 791,314.1 791,261.1 932.8,261.1 932.8,314.4 "/>
<rect x="942.1" y="261.1" class="st1" width="55.8" height="218.7"/>
<path class="st1" d="M1108.4,344.4l-17.7,56.1h36.6L1108.4,344.4z M1154,479.8l-10.5-30H1075l-9.9,30h-66.9l87.7-219.9h48
	l88.6,219.9H1154z"/>
</svg>
