<?xml version="1.0" encoding="utf-8"?>
<!-- Generator: Adobe Illustrator 21.1.0, SVG Export Plug-In . SVG Version: 6.00 Build 0)  -->
<svg version="1.1" id="Layer_1" xmlns="http://www.w3.org/2000/svg" xmlns:xlink="http://www.w3.org/1999/xlink" x="0px" y="0px"
	 viewBox="0 0 754 65" style="enable-background:new 0 0 754 65;" xml:space="preserve">
<style type="text/css">
	.st0{fill:#FFFFFF;}
</style>
<g>
	<path class="st0" d="M400.3,32.8c0,16.2-13.3,29.4-29.5,29.4l-20.8,0V3.4l21,0C387.1,3.4,400.3,16.6,400.3,32.8 M384.5,32.7
		c0-8.9-7-15.4-15.6-15.5l-3.5,0v31l3.5,0C377.5,48.2,384.5,41.6,384.5,32.7"/>
	<path class="st0" d="M99.8,32.7c0,17.1-14,31-31.2,31l-0.8,0V47.5h1.4c8,0,14.4-6.6,14.4-14.9c0-8.2-6.4-14.9-14.4-14.9l-1.4,0V1.6
		h1C85.9,1.6,99.8,15.6,99.8,32.7"/>
	<polygon class="st0" points="135.4,16.5 117.5,16.5 117.5,25.3 135.4,25.3 135.4,39.1 117.6,39.1 117.6,48.8 135.6,48.8 
		135.6,62.2 102,62.2 102,3.4 135.4,3.4 	"/>
	<polygon class="st0" points="173.1,16.7 154,16.7 154,26.1 173,26.1 173,39.8 154,39.8 154,62.2 139,62.2 139,3.4 173.1,3.4 	"/>
	<polygon class="st0" points="210.2,16.5 192.3,16.5 192.3,25.3 210.2,25.3 210.2,39.1 192.4,39.1 192.4,48.8 210.4,48.8 
		210.4,62.2 176.8,62.2 176.8,3.4 210.2,3.4 	"/>
	<path class="st0" d="M256.4,25.4c-0.4-0.8-0.9-1.5-1.4-2.3c-2.8-3.7-7.1-5.8-11.8-5.8c-3.1,0-5.2,0.8-6.3,1.3
		c-5.8,2.4-9.2,8-9.2,14.2c0.1,2.8,0.7,4.7,1.2,5.7c1.2,2.8,5.3,9.6,14.4,9.6c2.4,0,4.1-0.5,5.1-0.8c0.9-0.3,4.2-1.8,6.4-4.5
		c0.6-0.7,0.9-1.3,1.8-2.7h16.3c-1.3,3.8-2,5.5-2.9,7.2c-5.7,10.5-15.1,14.2-19.2,15.2c-1.2,0.3-3.9,0.8-7.3,0.8
		c-14.9,0-22.8-9.2-25.8-13.5c-1.9-2.7-5.1-8.2-5.1-16.6c0-16,10.5-24.2,15.2-27.1c2.4-1.4,7.8-4,15.3-4c3.8,0,11.7,0.7,19.4,7
		c7.2,5.9,9.3,12.8,10.3,16.2H256.4z"/>
	<polygon class="st0" points="308.9,16.7 297.2,16.7 297.2,62.2 282.3,62.2 282.3,16.6 270.8,16.6 270.8,3.4 308.9,3.4 	"/>
	<polygon class="st0" points="345.9,16.5 328,16.5 328,25.3 345.9,25.3 345.9,39.1 328.1,39.1 328.1,48.8 346.1,48.8 346.1,62.2 
		312.5,62.2 312.5,3.4 345.9,3.4 	"/>
	<polygon class="st0" points="393.6,4.8 393.6,3.3 399,3.3 399,4.8 397.1,4.8 397.1,9.8 395.4,9.8 395.4,4.8 	"/>
	<path class="st0" d="M405.1,5.3L405.1,5.3l-1.2,4.5h-1.4l-1.2-4.5L401.2,5c0,0.1,0,4.8,0,4.8h-1.5V3.3h2.4l1,3.8
		c0.1,0.2,0.1,0.6,0.1,1c0,0.1,0,0.2,0,0.3c0-0.2,0-0.5,0-0.7c0-0.3,0.1-0.5,0.1-0.6l1-3.8h2.4v6.4h-1.6V5.3z"/>
	<rect x="0.3" y="0.4" class="st0" width="64.4" height="64.4"/>
	<path class="st0" d="M477.4,47.4c-1.5,2.7-3.1,4.9-4.9,6.7c-1.8,1.8-3.6,3.4-5.4,4.6c-1.8,1.2-3.5,2.2-5.2,2.8
		c-1.6,0.7-3,1.1-4.1,1.3c-0.6,0.1-1.6,0.3-2.9,0.5c-1.3,0.2-2.8,0.3-4.6,0.3c-3.8,0-7.2-0.5-10.1-1.5c-2.9-1-5.5-2.2-7.6-3.7
		c-2.2-1.4-3.9-2.9-5.3-4.5c-1.4-1.6-2.5-2.9-3.2-4c-0.5-0.7-1.1-1.5-1.7-2.6c-0.6-1-1.2-2.3-1.7-3.7c-0.5-1.4-1-3-1.3-4.8
		c-0.3-1.8-0.5-3.7-0.5-5.9c0-4.1,0.6-7.7,1.7-10.8c1.2-3.1,2.6-5.8,4.2-8.1c1.6-2.3,3.4-4.1,5.1-5.5c1.8-1.4,3.3-2.5,4.5-3.2
		c0.6-0.4,1.4-0.8,2.4-1.3c1-0.5,2.1-0.9,3.4-1.3c1.3-0.4,2.8-0.8,4.4-1.1c1.6-0.3,3.4-0.4,5.4-0.4c1,0,2.2,0.1,3.6,0.2
		c1.4,0.1,3,0.5,4.8,0.9c1.7,0.5,3.6,1.2,5.5,2.2c2,1,3.9,2.2,5.9,3.8c1.9,1.5,3.4,3.1,4.6,4.7c1.2,1.6,2.2,3.1,3.1,4.7
		c0.8,1.5,1.5,3,1.9,4.4c0.5,1.4,0.8,2.6,1.2,3.7h-17.7c-0.3-0.5-0.6-1-0.8-1.4c-0.3-0.4-0.5-0.8-0.7-1.1c-1.3-1.8-2.9-3.2-4.9-4.1
		c-2-0.9-4.1-1.4-6.3-1.4c-1.5,0-2.7,0.1-3.7,0.4c-1,0.3-1.8,0.5-2.3,0.8c-2.7,1.2-4.9,3-6.5,5.4c-1.6,2.4-2.4,5.1-2.3,8.1
		c0,1.4,0.1,2.5,0.4,3.4c0.3,0.9,0.5,1.6,0.7,2c0.3,0.7,0.7,1.5,1.4,2.5c0.6,1,1.5,2,2.6,3c1.1,1,2.5,1.8,4.1,2.5
		c1.6,0.7,3.5,1.1,5.6,1.1c1.1,0,2.1-0.1,2.9-0.3c0.8-0.2,1.5-0.3,1.9-0.5c0.5-0.1,1.3-0.5,2.5-1.2c1.2-0.7,2.4-1.7,3.5-3
		c0.2-0.2,0.3-0.3,0.4-0.5c0.1-0.2,0.2-0.3,0.3-0.5l1.3-2h17.6c-0.8,2.4-1.4,4.1-1.9,5.2C478.4,45.5,477.9,46.5,477.4,47.4"/>
	<path class="st0" d="M510.1,20c-0.8-1.3-1.8-2.1-3.1-2.4c-1.3-0.3-2.7-0.5-4.3-0.5h-4.2v14.8h3.9c0.2-0.1,0.4-0.1,0.7-0.1
		c0.3,0,0.6,0,0.9-0.1c0.6,0,1.4-0.1,2.4-0.4c0.4-0.1,0.9-0.3,1.4-0.6c0.5-0.3,1.1-0.8,1.6-1.4c0.5-0.6,0.9-1.3,1.3-2.2
		c0.3-0.9,0.5-1.9,0.5-3.1c0-0.7-0.1-1.4-0.2-2C510.8,21.2,510.5,20.6,510.1,20 M509.3,62.6l-10.8-17.1v17.1h-16.1V2.6h22.2
		c2.8,0,5.4,0.2,7.9,0.6c2.5,0.4,4.9,1.5,7.3,3.4c0.7,0.6,1.5,1.3,2.4,2.2c0.9,0.9,1.7,2.1,2.5,3.4c0.8,1.4,1.4,3,1.9,4.8
		c0.5,1.8,0.8,3.9,0.8,6.2c0,2.4-0.3,4.5-0.8,6.3c-0.6,1.8-1.3,3.4-2.1,4.8c-0.8,1.4-1.7,2.5-2.7,3.4c-0.9,0.9-1.8,1.6-2.5,2.1
		c-0.6,0.5-1.2,0.8-1.9,1.1c-0.6,0.3-1.5,0.7-2.6,1.1L529,62.6H509.3z"/>
	<path class="st0" d="M573.6,27.3c-1.1-2.8-2.9-5.1-5.4-6.9c-2.5-1.8-5.3-2.6-8.4-2.6c-1,0-2.4,0.3-4.4,0.8c-2,0.5-4,1.7-5.9,3.5
		c-1.4,1.4-2.5,3-3.3,4.8c-0.8,1.8-1.1,3.8-1.1,5.7c0,0.5,0,1.1,0.1,1.9c0.1,0.8,0.3,1.7,0.6,2.6c0.3,0.9,0.7,1.9,1.3,3
		c0.6,1,1.4,2.1,2.3,3c1.4,1.4,3,2.4,4.8,3.2c1.8,0.8,3.7,1.1,5.6,1.1c1.4,0,2.7-0.2,3.9-0.5c1.2-0.3,2.2-0.8,3.1-1.3
		c0.9-0.5,1.6-1,2.3-1.6c0.7-0.5,1.1-1,1.5-1.3c0.3-0.3,0.7-0.8,1.2-1.4c0.5-0.6,0.9-1.3,1.3-2.2c0.4-0.8,0.8-1.8,1.1-2.9
		c0.3-1.1,0.4-2.3,0.4-3.6C574.6,30.8,574.2,29,573.6,27.3 M583.6,52.7c-2.9,3.6-6.4,6.3-10.7,8.2c-4.2,1.9-8.6,2.8-13.2,2.8
		c-4.1,0-8.1-0.8-11.9-2.4c-3.9-1.6-7.3-3.9-10.1-6.7c-2.9-2.9-5.1-6.3-6.7-10.1c-1.6-3.9-2.4-7.9-2.4-11.9c0-0.9,0.1-2.1,0.2-3.6
		c0.1-1.5,0.5-3.1,1-5c0.5-1.8,1.3-3.8,2.2-5.8c1-2,2.3-4,4-6c2.9-3.5,6.5-6.1,10.7-8.1c4.2-1.9,8.6-2.9,13-2.9
		c2.5,0,4.9,0.3,7.1,0.8c2.2,0.6,4.1,1.2,5.9,2c1.7,0.8,3.2,1.6,4.5,2.5c1.2,0.8,2.2,1.6,2.9,2.1c3.5,2.9,6.1,6.5,8.1,10.7
		c1.9,4.2,2.9,8.6,2.9,13.2c0,0.9-0.1,2.1-0.2,3.6c-0.1,1.5-0.5,3.1-1,4.9c-0.5,1.8-1.3,3.7-2.2,5.7
		C586.6,48.7,585.3,50.7,583.6,52.7"/>
	<path class="st0" d="M614.1,25.5l-4.8,15.4h10L614.1,25.5z M626.6,62.6l-2.9-8.2h-18.8l-2.7,8.2h-18.3l24-60.3h13.2l24.3,60.3
		H626.6z"/>
	<polygon class="st0" points="663,17.3 663,62.6 647,62.6 647,17.2 635.7,17.2 635.7,2.6 674.6,2.6 674.6,17.3 	"/>
	<rect x="677.1" y="2.6" class="st0" width="15.3" height="59.9"/>
	<path class="st0" d="M722.7,25.5l-4.8,15.4h10L722.7,25.5z M735.2,62.6l-2.9-8.2h-18.8l-2.7,8.2h-18.3l24-60.3h13.2l24.3,60.3
		H735.2z"/>
</g>
</svg>
