<?xml version="1.0" encoding="utf-8"?>
<!-- Generator: Adobe Illustrator 21.1.0, SVG Export Plug-In . SVG Version: 6.00 Build 0)  -->
<svg version="1.1" xmlns="http://www.w3.org/2000/svg" xmlns:xlink="http://www.w3.org/1999/xlink" x="0px" y="0px"
	 viewBox="0 0 793.5 126.7" style="enable-background:new 0 0 793.5 126.7;" xml:space="preserve">
<style type="text/css">
	.st0{display:none;}
	.st1{fill-rule:evenodd;clip-rule:evenodd;fill:#FFFFFF;}
	.st2{fill:#FFFFFF;}
</style>
<g id="Guides" class="st0">
</g>
<g id="Layer_1">
	<g>
		<path class="st1" d="M195.8,63.5c0,33.7-27.6,61.1-61.4,61.1l-1.6,0V92.7l2.8,0c15.6,0,28.3-13,28.3-29.3
			c0-16.2-12.7-29.3-28.3-29.4l-2.8,0V2.4l1.9,0C168.4,2.4,195.8,29.8,195.8,63.5z"/>
		<g>
			<polygon class="st2" points="0,0 126.7,0 126.7,126.7 0,126.7 0,0 			"/>
		</g>
		<g>
			<path class="st2" d="M265,31.6h-35.3V49H265v27.2h-35.1v19h35.4v26.4h-66.1V5.8H265V31.6z"/>
			<path class="st2" d="M338.3,31.9h-37.7v18.5h37.5v27.1h-37.5v44.1h-29.3V5.8h67.1V31.9z"/>
			<path class="st2" d="M410.4,31.6h-35.3V49h35.3v27.2h-35.1v19h35.4v26.4h-66.1V5.8h65.8V31.6z"/>
			<path class="st2" d="M500.4,49.1c-0.8-1.6-1.8-3-2.8-4.4c-5.6-7.4-13.9-11.5-23.3-11.5c-6.1,0-10.3,1.6-12.5,2.6
				c-11.3,4.8-18.2,15.7-18.2,27.9c0.2,5.6,1.5,9.3,2.3,11.3c2.3,5.4,10.5,18.9,28.4,18.9c4.8,0,8-1,10-1.6
				c1.8-0.7,8.2-3.6,12.6-8.9c1.1-1.5,1.8-2.5,3.6-5.4h32.1c-2.5,7.5-3.9,10.8-5.7,14.3c-11.2,20.7-29.7,27.9-37.9,29.8
				c-2.5,0.7-7.7,1.6-14.4,1.6c-29.4,0-44.9-18-50.8-26.6c-3.8-5.4-10-16.1-10-32.6c0-31.5,20.7-47.7,30-53.3
				c4.8-2.8,15.4-7.9,30.2-7.9c7.5,0,23,1.3,38.2,13.8c14.3,11.6,18.4,25.3,20.3,32H500.4z"/>
			<path class="st2" d="M602.9,31.9h-23.1v89.7h-29.3V31.7h-22.6V5.8h75.1V31.9z"/>
			<path class="st2" d="M674.9,31.6h-35.3V49h35.3v27.2h-35.1v19h35.4v26.4h-66.1V5.8h65.8V31.6z"/>
		</g>
		<path class="st1" d="M749.9,63.5c0-17.6-13.7-30.3-30.7-30.4l-6.9-0.1v61l6.9,0C736.2,94,749.9,81.1,749.9,63.5z M781,63.7
			c0,32-26.2,57.9-58.1,57.9l-41,0V5.9l41.3,0C755.1,5.9,781,31.8,781,63.7z"/>
		<g>
			<path class="st2" d="M767.7,8.5V5.7h10.7v2.8h-3.7v9.9h-3.3V8.5H767.7z"/>
			<path class="st2" d="M790.4,9.5L790.4,9.5L790.4,9.5l-2.4,8.8h-2.7l-2.4-8.8l0,0L782.7,9l0,0c0,0.2,0,9.4,0,9.4h-3V5.7h4.6l2,7.4
				c0.1,0.5,0.2,1.1,0.3,1.9c0,0.2,0,0.4,0,0.6c0-0.4,0-0.9,0.1-1.3c0.1-0.6,0.1-0.9,0.2-1.2l2-7.4h4.6v12.7h-3.1V9.5z"/>
		</g>
	</g>
</g>
<g id="Foreground">
</g>
</svg>
