<?xml version="1.0" encoding="utf-8"?>
<!-- Generator: Adobe Illustrator 22.1.0, SVG Export Plug-In . SVG Version: 6.00 Build 0)  -->
<svg version="1.1" id="Layer_1" xmlns="http://www.w3.org/2000/svg" xmlns:xlink="http://www.w3.org/1999/xlink" x="0px" y="0px"
	 viewBox="0 0 783.3 202" style="enable-background:new 0 0 783.3 202;" xml:space="preserve">
<style type="text/css">
	.st0{fill:#FFFFFF;}
</style>
<g>
	<path class="st0" d="M12.6,1.1c6.3,1,12.6,2.1,18.9,2.8c21.4,2.4,42.8,4.6,64.2,6.8c15.7,1.6,31.4,3.2,47.1,4.8
		c14.7,1.5,29.4,3.1,44.8,4.8c-2.7,16.6-5.3,32.7-8,49.6c-29.4,3.1-58.6,6.2-87.8,9.3c20.1,4.4,40.7,4.9,61.7,8.2
		c1,16.6,1.9,33,2.9,50.1c-16.2,0-31.6,0-47.8,0C104.4,159,102,180.3,98,202c-19.3-2.1-38.4-4.1-58.5-6.3
		c-0.8-14.5-1.6-28.7-2.4-43.3c14.2-4.5,28-8.9,41.8-13.3c-0.1-0.4-0.1-0.8-0.2-1.2c-19.1,0-38.2,0-58.3,0c2.7-17.6,5.3-34.4,8-51.9
		c-5.8,0.5-10.9,0.9-16.7,1.4C10.2,58.3,8.5,29.7,6.9,1.1C8.8,1.1,10.7,1.1,12.6,1.1z"/>
	<path class="st0" d="M617.1,132.3c-6,3.3-8.5,8-7.9,14.7c0.5,5.4,0.1,10.9,0.1,16.8c-6.3,0-11.9,0-17.8,0c0-31.7,0-62.9,0-94.4
		c4.1-0.7,7.8-1.4,11.5-1.9c1.6-0.2,3.3,0,5.3,0c2,4.9,0.7,10.2,0.9,15.3c0.2,5.3,0.1,10.5,0.1,15.8c0,5.2,0,10.3,0,16.9
		c2.8-2.4,4.4-3.7,5.9-5.1c5.8-5.4,11.5-10.8,17.2-16.3c2.2-2.2,4.5-3.2,7.6-3.1c5.6,0.2,11.3,0,16.9,0c0.2,0.5,0.3,0.9,0.5,1.4
		c-8.9,8.6-17.8,17.2-27.1,26.2c10.5,14.8,21,29.6,32.2,45.5c-7.8,0-14.4,0.3-20.9-0.2c-1.7-0.1-3.6-2.2-4.7-3.8
		c-5.9-8.1-11.5-16.4-17.3-24.7C618.9,134.5,618,133.4,617.1,132.3z"/>
	<path class="st0" d="M353.9,133.3c-9.6,0-17.7,0-25.8,0c-8.1,0-16.2,0-24.2,0c-0.5,8.4,2.8,13.7,9.4,15.9
		c8.3,2.8,14.4,0.4,20.3-8.1c2.6,0.3,5.4,0.5,8.2,0.9c2.8,0.4,5.6,1,8.7,1.5c-0.4,5-2.8,8.5-5.7,11.6c-10,10.7-22.4,13-36.1,9.5
		c-12.5-3.2-20-11.5-22.9-24c-2.6-11-2.3-21.8,2.6-32.2c6.4-13.8,21.2-21.4,36.7-19.1c15.4,2.4,25.9,12.9,28,28.4
		C353.6,122.6,353.5,127.6,353.9,133.3z M334.5,118.6c-2-9.9-7.1-13.9-16.1-13.3c-8.7,0.6-13.6,5.1-14.2,13.3
		C314.1,118.6,324,118.6,334.5,118.6z"/>
	<path class="st0" d="M731.9,133.4c-16.9,0-33.3,0-49.6,0c-0.4,8.5,2.6,13.5,9.1,15.8c8.2,2.9,14.8,0.4,20.8-8.1
		c3.9,0.5,7.9,1,11.9,1.6c1.6,0.2,3.2,0.8,4.8,1.1c-3.5,12.8-14.6,21.6-28.4,22.3c-19.7,1-34.7-9.3-37.4-30.4
		c-1.6-12.4-0.1-24,7.7-34c8.5-10.7,20.1-14.2,33.3-12.2c13.4,2,22,9.8,26,22.7C732,118.7,732.7,125.3,731.9,133.4z M682.3,119
		c7.6,0,15.2,0,22.7,0c2.6,0,5.1,0,7.8,0c-1.6-9.6-6.4-13.8-14.9-13.7C689.2,105.3,683.6,109.9,682.3,119z"/>
	<path class="st0" d="M361.9,143.2c6-0.9,11.3-1.7,16.7-2.5c1.6,2.5,2.7,5.2,4.5,7.2c3.6,3.7,15.4,4.2,19.7,1.3
		c3.7-2.5,3.9-7.1,0-9.4c-2.8-1.7-6.1-2.7-9.2-3.8c-5.9-2-11.9-3.6-17.7-5.9c-5.5-2.2-9.7-5.9-11.5-11.9c-3-9.9,0.8-20.2,10.3-24.9
		c12.3-6.1,24.9-6.1,37.3-0.1c7.2,3.5,10,8.8,9.8,17.3c-5.2,0.8-10.5,1.7-16.2,2.6c-2.6-7.5-8.3-9.3-15.4-8.6
		c-4.1,0.4-6.6,2.2-7.1,4.9c-0.5,3,0.8,5,5.2,6.6c4.9,1.9,10,3.3,14.9,5c3.2,1.1,6.3,2.3,9.4,3.6c16.8,7.1,14.4,28.4,2.7,35.5
		c-4.2,2.5-9.1,4-13.9,5.1c-8.6,2.1-17.2,0.9-25.3-2.3C367.8,159.7,362.4,153.7,361.9,143.2z"/>
	<path class="st0" d="M580,115.7c-6.1,0.8-11.5,1.6-17.2,2.3c-0.8-1.5-1.5-2.7-2.1-3.9c-2.7-5.5-7-8.2-13.1-8.3
		c-6.3-0.1-11.2,2.5-14.1,8.1c-4.4,8.6-4.4,17.6-0.7,26.3c2.6,6.1,7.8,8.8,14.4,8.8c6.3,0,11.1-2.4,13.8-8.4
		c0.4-0.9,0.7-1.7,1.3-3.3c5.6,0.7,11.2,1.4,17.5,2.2c-1.6,10.1-6.3,17.6-15,22.3c-7.8,4.2-16.4,5.3-25.1,3.6
		c-15.9-3.2-25.4-13.9-27.4-30c-1.5-12.3,0-23.9,7.8-34c11.6-15,36.8-17,50.7-4.1C576,102.2,579,108,580,115.7z"/>
	<path class="st0" d="M265.4,164.3c-6.4,0-12,0-18.4,0c0-18.8,0-37.4,0-56.3c-3.4-0.4-6.2-0.7-9.4-1c0-4.9,0-9.7,0-15.1
		c2.9-0.3,5.6-0.6,9-1c0.1-2.9,0.2-5.7,0.4-8.5c0.7-10.8,5.8-17.1,16.3-18.7c5.8-0.9,11.8-0.2,18.1-0.2c0,5.1,0,10,0,15.8
		c-2.4,0.1-4.7,0.2-7,0.3c-8,0.4-9.5,2.3-8.1,11.8c4.7,0,9.6,0,15.1,0c-0.8,5.6-1.5,10.2-2.3,15.6c-4.3,0-8.4,0-12.8,0
		c-1.6,6.8-0.7,13-0.8,19.1c-0.2,6.5,0,12.9,0,19.4C265.4,151.6,265.4,157.8,265.4,164.3z"/>
	<path class="st0" d="M468.9,147.9c0.1,2.4,0.3,4,0.3,5.6c0,3.1,0,6.1,0,9.6c-7.6,1-14.7,1.1-21.7-0.3c-6.5-1.3-10.5-5.5-11.7-12
		c-0.4-2.3-0.7-4.7-0.7-7.1c0-23.4,0-46.8,0-70.2c0-1.2,0.2-2.3,0.3-4.1c5.7-0.8,11.2-1.6,17.7-2.5c0,8,0,15.5,0,23.8
		c5.6,0.3,10.4,0.5,15.7,0.8c0,5.3,0,10.2,0,15.7c-5,0-9.7,0-14.8,0c-0.2,2.4-0.5,4.2-0.5,6c0,8.8-0.1,17.7,0,26.5
		c0.1,6.7,1.4,7.9,8,8.1C463.7,147.9,465.8,147.9,468.9,147.9z"/>
	<path class="st0" d="M776.4,147.9c0,5.5,0,10.2,0,15.3c-7.3,0.9-14.4,1-21.4-0.4c-6.4-1.3-10.5-5.5-11.6-12.1
		c-0.4-2.1-0.7-4.3-0.7-6.4c-0.1-23.9,0-47.8,0-71.7c0-0.9,0.2-1.8,0.4-3.3c5.7-0.8,11.3-1.5,17.7-2.4c0,8,0,15.6,0,23.8
		c5.5,0.3,10.4,0.5,15.6,0.7c0,5.2,0,9.9,0,15c-4.5,2.1-9.7-0.2-15,1.5c-0.1,2.1-0.3,4.4-0.3,6.7c0,8.4-0.1,16.7,0,25.1
		c0.1,6.5,1.5,7.9,8.1,8.1C771.3,147.9,773.4,147.9,776.4,147.9z"/>
	<path class="st0" d="M481.5,91.5c5.9,0,11.6,0,17.6,0c0,24.2,0,48.1,0,72.5c-5.9,0-11.5,0-17.6,0
		C481.5,139.8,481.5,115.8,481.5,91.5z"/>
	<path class="st0" d="M502.1,71.8c-0.1,6.1-5.5,11.2-11.8,11c-6.5-0.1-11.1-5.1-10.9-11.6c0.2-6,5.1-10.8,11.1-10.9
		C496.6,60.4,502.2,65.9,502.1,71.8z"/>
</g>
</svg>
