<?xml version="1.0" encoding="utf-8"?>
<!-- Generator: Adobe Illustrator 21.1.0, SVG Export Plug-In . SVG Version: 6.00 Build 0)  -->
<svg version="1.1" id="Layer_1" xmlns="http://www.w3.org/2000/svg" xmlns:xlink="http://www.w3.org/1999/xlink" x="0px" y="0px"
	 viewBox="0 0 1920 486.2" style="enable-background:new 0 0 1920 486.2;" xml:space="preserve">
<style type="text/css">
	.st0{fill:#FFFFFF;}
</style>
<g>
	<path class="st0" d="M399.8,218.8c-1.2,0-2.7-0.1-4.5-0.3c-1.8-0.2-3.8-0.5-6-1c-2.2-0.5-4.6-1.3-7.1-2.3c-2.5-1.1-5-2.5-7.4-4.3
		c-1.7-1.2-3.6-2.9-5.8-4.9c-2.2-2.1-4.3-4.6-6.3-7.7c-2-3.1-3.7-6.7-5-10.9c-1.3-4.2-2-9-2-14.4c0-3.6,0.3-6.8,0.9-9.9
		c0.6-3,1.4-5.9,2.5-8.7c1.1-2.8,2.3-5.5,3.8-8.1c1.5-2.6,3.2-5.4,5.1-8.3l25.2-39.9h36.7l-27.2,35.9c3.6-0.1,6.4-0.1,8.6,0.1
		c2.2,0.2,4.2,0.5,6.1,1.1c4.1,1.2,7.9,3.1,11.2,5.8c3.3,2.6,6.2,5.7,8.5,9.3c2.3,3.6,4.1,7.4,5.3,11.6c1.2,4.2,1.8,8.4,1.8,12.6
		c0,6.1-1.2,11.9-3.6,17.2c-2.4,5.3-5.6,10-9.6,14c-4,4-8.7,7.2-14.1,9.5C411.5,217.7,405.8,218.8,399.8,218.8z M399.8,159
		c-4.5,0-8.1,1.5-11,4.5c-2.9,3-4.3,6.7-4.3,11c0,1,0.2,2.5,0.7,4.6c0.4,2.1,1.8,4.1,4,6.1c0.8,0.8,2.1,1.7,3.8,2.8
		c1.8,1.1,4.1,1.7,7,1.7c2.1,0,4.1-0.4,6-1.2c1.9-0.8,3.5-1.9,4.9-3.3c1.4-1.4,2.5-3,3.3-4.9c0.8-1.9,1.2-3.9,1.2-6
		c0-2.2-0.4-4.3-1.3-6.2c-0.8-1.9-2-3.5-3.3-4.8c-1.4-1.3-3-2.4-4.9-3.2C403.9,159.4,401.9,159,399.8,159z"/>
	<path class="st0" d="M523.4,216.1h-45.8V98.2h46.1c8.2,0,16,1.5,23.1,4.6c7.2,3.1,13.4,7.3,18.8,12.6c5.3,5.3,9.5,11.6,12.6,18.8
		c3.1,7.2,4.6,14.8,4.6,23c0,8.2-1.6,15.9-4.7,23.1c-3.1,7.1-7.4,13.4-12.8,18.7c-5.4,5.3-11.7,9.6-19,12.6
		C539.2,214.6,531.6,216.1,523.4,216.1z M521.6,124.9h-13.7v64h13.7c4.3,0,8.4-0.8,12.1-2.5c3.7-1.7,7-4,9.8-6.9
		c2.8-2.9,5-6.3,6.6-10.1c1.6-3.8,2.4-8,2.4-12.4c0-4.3-0.8-8.5-2.4-12.4c-1.6-3.9-3.8-7.3-6.6-10.2c-2.8-2.9-6-5.2-9.8-6.9
		C530,125.8,525.9,124.9,521.6,124.9z"/>
	<path class="st0" d="M654.4,216.1l-5.8-16.5H609l-5.5,16.5h-33.9l47.3-118.6h24.6l47.8,118.6H654.4z M628.3,138.5l-11.7,36.6h24.1
		L628.3,138.5z"/>
	<path class="st0" d="M726.6,172.2v43.9h-30.2v-43.4l-35.4-74.5H694l14,33.7c0.6,1.1,1.1,2.3,1.5,3.7c0.4,1.3,1.2,3.5,2.2,6.3
		c1.7-3.7,2.9-6.6,3.8-8.9c0.8-2.2,1.7-4.3,2.6-6.3l12-28.6h31.4L726.6,172.2z"/>
	<path class="st0" d="M818.6,210.5c-2.7,2-5.3,3.5-7.8,4.6c-2.5,1.1-4.8,1.8-7,2.3c-2.2,0.5-4.2,0.8-6,0.9c-1.8,0.1-3.4,0.2-4.8,0.2
		c-5.9,0-11-0.8-15.3-2.3s-7.9-3.5-10.9-5.8c-3-2.3-5.3-4.7-7.1-7.4c-1.8-2.6-3.1-5-3.8-7.3c-1-2.9-1.7-5.8-2-8.7
		c-0.3-2.9-0.6-6.2-0.7-9.9H782c0,2.9,0.2,5.6,0.7,8.1c0.5,2.5,2,4.5,4.6,5.9c0.6,0.3,1.3,0.7,2.2,1c0.9,0.3,2.1,0.5,3.5,0.5
		c3,0,5.5-0.9,7.4-2.8c1.9-1.9,2.8-4.3,2.8-7.2c0-3.6-1.1-6.3-3.3-8.1c-2.2-1.8-4.7-3.5-7.4-4.9l-5.5-2.2c-2.2-0.9-4.4-1.8-6.4-2.8
		c-2.1-0.9-4.2-2-6.3-3.1c-1.3-0.8-3.1-1.9-5.3-3.4c-2.2-1.5-4.3-3.5-6.3-6c-2-2.5-3.8-5.5-5.3-9c-1.5-3.5-2.3-7.6-2.3-12.3
		c0-1.3,0.1-2.9,0.2-4.8c0.2-1.8,0.6-3.8,1.3-6c0.7-2.2,1.8-4.4,3.2-6.8c1.4-2.3,3.3-4.7,5.8-7c2.7-2.6,5.5-4.6,8.4-6.1
		c2.9-1.5,5.7-2.6,8.4-3.4c2.7-0.8,5.1-1.3,7.3-1.5c2.2-0.2,3.9-0.3,5.3-0.3c1.3,0,3.1,0.1,5.4,0.2c2.3,0.2,4.9,0.8,7.8,1.8
		c3.6,1.2,6.7,2.7,9.3,4.5c2.6,1.8,4.8,3.7,6.5,5.7c1.7,2,3.1,4,4.3,5.9c1.1,2,1.9,3.6,2.5,4.9c0.2,0.7,0.4,1.3,0.7,1.8
		c0.2,0.6,0.4,1.1,0.5,1.7c0.2,0.6,0.4,1.1,0.4,1.8c0.1,0.6,0.2,1.2,0.4,1.8c0.2,1.2,0.3,2.4,0.3,3.4c-0.1,1.1,0,2.4,0.2,3.9h-27.9
		c0-1.6,0-2.7-0.1-3.3c-0.1-0.7-0.2-1.3-0.4-1.8c-0.6-2-1.7-3.6-3.3-4.7c-1.7-1.1-3.6-1.7-5.7-1.7c-2.8,0-5,0.8-6.7,2.5
		c-1.7,1.7-2.5,4-2.5,6.8c0,1.2,0.2,2.3,0.6,3.1c0.4,0.8,0.8,1.5,1.1,1.9c1.3,1.7,3.2,3.2,5.5,4.5c1.3,0.7,2.8,1.3,4.3,2
		c1.5,0.7,3.3,1.4,5.4,2.3c5.1,2.3,9.2,4.4,12.4,6.3c3.1,1.8,5.5,3.5,7,4.9c0.9,0.7,1.7,1.4,2.3,2.2c1,0.9,2,2.1,3,3.5
		c2.9,3.9,4.6,7.5,5.1,10.8c0.5,3.3,0.7,5.9,0.7,7.8c0,1.8-0.1,3.9-0.4,6.3c-0.3,2.5-0.9,5-2,7.8c-1.1,2.7-2.6,5.5-4.7,8.4
		C825,205,822.2,207.8,818.6,210.5z"/>
	<path class="st0" d="M965.8,168c-1.2,2.7-2.5,5.2-3.8,7.7c-1.3,2.5-2.8,5.2-4.3,8.4l15.2,15.5l-18.5,18.7L940.5,205
		c-1.1,1.1-2,2-2.8,2.5c-0.7,0.6-1.5,1.1-2.4,1.7c-1.9,1.7-4.2,3.1-7,4.3c-2.6,1.3-5.6,2.5-9.2,3.3c-3.6,0.9-7.7,1.3-12.5,1.3
		c-6,0-11.2-0.9-15.6-2.6c-4.4-1.7-8.1-3.8-11.1-6.3c-3-2.5-5.4-5.1-7.2-7.9c-1.8-2.8-3-5.2-3.7-7.3c-0.3-0.9-0.7-2.1-1-3.8
		c-0.3-1.6-0.5-3.6-0.5-5.9c0.1-5.3,1.1-9.9,3-13.7c1.9-3.8,4.7-7.5,8.4-11c1.3-1.2,2.7-2.4,4.2-3.6c1.4-1.2,3.2-2.5,5.2-3.9
		c-3.5-4-6-8-7.8-12c-1.7-4-2.6-8.4-2.6-13c0-4.6,0.8-8.7,2.5-12.5c1.7-3.8,3.9-7,6.8-9.8c2.8-2.7,6.2-4.8,10.1-6.3
		c3.9-1.5,8.1-2.3,12.7-2.3c1.1,0,2.5,0.1,4.3,0.2c1.7,0.1,3.6,0.5,5.7,1.1c2.1,0.6,4.2,1.5,6.4,2.8c2.2,1.2,4.4,3,6.5,5.2
		c1.9,1.9,3.4,3.7,4.4,5.5c1.1,1.8,1.8,3.5,2.3,5.1c0.5,1.6,0.8,3.1,0.9,4.5c0.1,1.4,0.2,2.6,0.2,3.8c0,2-0.2,3.9-0.5,5.7
		c-0.3,1.8-0.6,3-0.8,3.7c-1.2,3.9-2.9,7.2-5,10c-2.1,2.8-5,5.6-8.5,8.5l12.5,12.7l4.3-8c0.9-1.6,1.6-3.1,2.2-4.7
		c0.6-1.6,1.3-3.3,2.2-5.2H975c-1.8,4-3.4,7.7-4.8,11.1C968.8,161.5,967.3,164.8,965.8,168z M905.1,169.2c-2.6,1.7-4.7,3.5-6.3,5.3
		c-1.7,1.9-2.5,4.3-2.5,7.4c0,0.3,0.1,0.9,0.2,1.7c0.1,0.8,0.4,1.6,0.8,2.5c0.7,1.3,1.8,2.8,3.4,4.3c1.6,1.5,4.1,2.3,7.6,2.3
		c2.7,0,5-0.6,6.9-1.8c1.9-1.2,4.1-2.8,6.7-4.9L905.1,169.2z M910,118.9c-1.9,0-3.4,0.7-4.5,2.2c-1.1,1.4-1.7,3.1-1.7,5
		c0,1.6,0.4,3.2,1.2,4.8c0.8,1.7,2.4,3.8,5,6.3c1.9-2,3.4-3.9,4.5-5.6c1.1-1.7,1.7-3.7,1.7-5.9c0-1.9-0.6-3.5-1.7-4.8
		C913.4,119.6,911.9,118.9,910,118.9z"/>
	<path class="st0" d="M1082.9,216.1l-44.3-64.5v64.5H1009V98.2h26.2c5.2,7.5,10.4,14.7,15.4,21.8c5,7.1,10,14.4,15,22l13.9,21.2v-65
		h29.7v117.9H1082.9z"/>
	<path class="st0" d="M1114.3,216.1V98.2h30.1v117.9H1114.3z"/>
	<path class="st0" d="M1256.8,195.3c-6,7.4-13.2,13-21.6,17s-17.3,6-26.8,6c-1.9,0-4.2-0.1-6.9-0.4c-2.7-0.3-5.7-0.9-9-1.8
		c-3.3-0.9-6.8-2.3-10.4-4c-3.7-1.7-7.4-4.1-11.2-7.1c-1.9-1.4-4.2-3.5-6.9-6.3c-2.7-2.7-5.2-6.1-7.6-10c-2.4-4-4.4-8.5-6.1-13.8
		c-1.7-5.2-2.5-11.1-2.5-17.7c0-7,0.9-13.3,2.8-18.7c1.8-5.5,4.1-10.2,6.7-14.3c2.6-4,5.4-7.4,8.3-10.1s5.3-4.8,7.4-6.3
		c10.6-7.9,22.6-11.8,35.9-11.8c7.2,0,13.7,1,19.3,2.9c5.6,1.9,10.5,4.3,14.7,7.1c4.2,2.8,7.6,5.7,10.4,8.6c2.7,3,4.8,5.5,6.3,7.6
		c0.7,1,1.3,1.9,1.8,2.8c0.6,0.9,1.1,1.9,1.7,3c0.6,1.1,1.1,2.4,1.8,3.9c0.6,1.5,1.4,3.4,2.3,5.6h-34.1l-1.3-1.8l-0.5-0.5l-0.3-0.7
		l-1.3-1.3c-2.8-2.6-6-4.4-9.5-5.5c-3.6-1.1-7.1-1.7-10.7-1.7c-1.2,0-2.9,0.1-5,0.3c-2.1,0.2-4.6,0.9-7.4,2.2
		c-2.9,1.2-5.5,2.8-7.8,4.8c-2.3,2-4.3,4.2-5.9,6.7c-1.7,2.5-3,5.3-3.8,8.3c-0.9,3-1.3,6.1-1.3,9.2c0,2.1,0.4,4.9,1.1,8.3
		c0.7,3.4,2.6,7,5.8,10.9c0.7,0.9,1.7,2,3.2,3.3c1.4,1.3,3.2,2.6,5.3,3.8c2.1,1.2,4.4,2.3,7.1,3.2c2.7,0.9,5.6,1.3,8.9,1.3
		c2.8,0,5.3-0.3,7.7-0.9c2.3-0.6,4.4-1.3,6.2-2.2c1.8-0.8,3.3-1.8,4.6-2.8c1.3-1,2.3-1.8,2.9-2.5c0.6-0.6,1.1-1.1,1.5-1.8
		c0.4-0.6,1.1-1.7,2-3.3h-32.6V150h69.5c-0.2,4.6-0.6,8.9-1.1,12.9c-0.5,4-1.3,7.9-2.3,11.5c-1,3.7-2.3,7.2-4,10.6
		C1261.8,188.4,1259.5,191.8,1256.8,195.3z"/>
	<path class="st0" d="M1340.4,216.1v-44.4h-36.1v44.4h-30.2V98.2h30.2V143h35.9V98.2h30.1v117.9H1340.4z"/>
	<path class="st0" d="M1428.3,124.9v91.2h-29.9v-91.4h-23.1V98.2h76.5v26.7H1428.3z"/>
	<path class="st0" d="M1520.5,210.5c-2.7,2-5.3,3.5-7.8,4.6c-2.5,1.1-4.8,1.8-7,2.3c-2.2,0.5-4.2,0.8-6,0.9
		c-1.8,0.1-3.4,0.2-4.8,0.2c-5.9,0-11-0.8-15.3-2.3s-7.9-3.5-10.9-5.8c-3-2.3-5.3-4.7-7.1-7.4c-1.8-2.6-3.1-5-3.8-7.3
		c-1-2.9-1.7-5.8-2-8.7c-0.3-2.9-0.6-6.2-0.7-9.9h28.7c0,2.9,0.2,5.6,0.7,8.1c0.5,2.5,2,4.5,4.6,5.9c0.6,0.3,1.3,0.7,2.2,1
		c0.9,0.3,2.1,0.5,3.5,0.5c3,0,5.5-0.9,7.4-2.8c1.9-1.9,2.8-4.3,2.8-7.2c0-3.6-1.1-6.3-3.3-8.1c-2.2-1.8-4.7-3.5-7.4-4.9l-5.5-2.2
		c-2.2-0.9-4.4-1.8-6.4-2.8c-2.1-0.9-4.2-2-6.3-3.1c-1.3-0.8-3.1-1.9-5.3-3.4c-2.2-1.5-4.3-3.5-6.3-6c-2-2.5-3.8-5.5-5.3-9
		s-2.3-7.6-2.3-12.3c0-1.3,0.1-2.9,0.2-4.8c0.2-1.8,0.6-3.8,1.3-6c0.7-2.2,1.8-4.4,3.2-6.8c1.4-2.3,3.3-4.7,5.8-7
		c2.7-2.6,5.5-4.6,8.4-6.1c2.9-1.5,5.7-2.6,8.4-3.4c2.7-0.8,5.1-1.3,7.3-1.5c2.2-0.2,3.9-0.3,5.3-0.3c1.3,0,3.1,0.1,5.4,0.2
		c2.3,0.2,4.9,0.8,7.8,1.8c3.6,1.2,6.7,2.7,9.3,4.5c2.6,1.8,4.8,3.7,6.5,5.7c1.7,2,3.1,4,4.3,5.9c1.1,2,1.9,3.6,2.5,4.9
		c0.2,0.7,0.4,1.3,0.7,1.8c0.2,0.6,0.4,1.1,0.5,1.7c0.2,0.6,0.4,1.1,0.4,1.8c0.1,0.6,0.2,1.2,0.4,1.8c0.2,1.2,0.3,2.4,0.3,3.4
		c-0.1,1.1,0,2.4,0.2,3.9h-27.9c0-1.6,0-2.7-0.1-3.3c-0.1-0.7-0.2-1.3-0.4-1.8c-0.6-2-1.7-3.6-3.3-4.7c-1.7-1.1-3.6-1.7-5.7-1.7
		c-2.8,0-5,0.8-6.7,2.5c-1.7,1.7-2.5,4-2.5,6.8c0,1.2,0.2,2.3,0.6,3.1c0.4,0.8,0.8,1.5,1.1,1.9c1.3,1.7,3.2,3.2,5.5,4.5
		c1.3,0.7,2.8,1.3,4.3,2c1.5,0.7,3.3,1.4,5.4,2.3c5.1,2.3,9.2,4.4,12.4,6.3c3.1,1.8,5.5,3.5,7,4.9c0.9,0.7,1.7,1.4,2.3,2.2
		c1,0.9,2,2.1,3,3.5c2.9,3.9,4.6,7.5,5.1,10.8c0.5,3.3,0.7,5.9,0.7,7.8c0,1.8-0.1,3.9-0.4,6.3c-0.3,2.5-0.9,5-2,7.8
		c-1.1,2.7-2.6,5.5-4.7,8.4C1526.9,205,1524.1,207.8,1520.5,210.5z"/>
	<path class="st0" d="M323,349.4c-5.7,7-12.7,12.4-21,16.1s-17,5.6-26,5.6c-8,0-15.8-1.6-23.5-4.8c-7.6-3.2-14.3-7.6-20-13.3
		c-5.7-5.7-10.1-12.3-13.3-20c-3.2-7.6-4.8-15.5-4.8-23.5c0-1.8,0.1-4.1,0.4-7c0.3-2.9,0.9-6.2,1.9-9.8c1-3.6,2.5-7.4,4.4-11.4
		c1.9-4,4.6-7.9,7.9-11.8c2.8-3.3,6-6.3,9.6-9c3.6-2.7,7.4-4.9,11.4-6.8c4-1.8,8.2-3.3,12.6-4.3c4.4-1,8.8-1.5,13.1-1.5
		c5,0,9.7,0.6,13.9,1.7s8.1,2.5,11.5,4c3.4,1.6,6.3,3.2,8.8,4.8c2.5,1.7,4.3,3.1,5.7,4.2c6.8,5.8,12.1,12.8,15.9,21
		c3.8,8.2,5.7,16.9,5.7,25.9c0,1.8-0.1,4.1-0.4,7c-0.3,2.9-0.9,6.1-1.9,9.6c-1,3.5-2.5,7.2-4.4,11.2
		C328.8,341.6,326.2,345.5,323,349.4z M307.1,298.2c-1.2-3.2-2.9-6.2-4.9-8.8c-2.1-2.6-4.5-4.9-7.2-6.8c-2.7-1.9-5.7-3.3-8.9-4.3
		c-3.2-1-6.6-1.5-10-1.5c-1,0-2.4,0.1-4.2,0.3c-1.8,0.2-3.7,0.7-5.8,1.3c-2.1,0.7-4.3,1.6-6.6,2.8c-2.3,1.2-4.6,2.8-6.7,4.8
		c-3.2,3.1-5.7,6.7-7.4,10.9c-1.7,4.1-2.5,8.4-2.5,12.9c0,1,0.1,2.4,0.2,4.2c0.2,1.8,0.6,3.7,1.3,5.8c0.7,2.1,1.6,4.3,2.9,6.7
		c1.3,2.3,3,4.6,5.3,6.7c3,3.1,6.6,5.5,10.8,7.2s8.4,2.5,12.6,2.5c3.2,0,6.2-0.4,8.8-1.2c2.6-0.8,4.9-1.7,6.9-2.8
		c2-1.1,3.7-2.3,5.1-3.4c1.4-1.2,2.5-2.1,3.3-2.9c0.8-0.8,1.7-1.8,2.8-3.2c1.1-1.3,2-3,2.9-4.9c0.9-1.9,1.7-4.1,2.3-6.5
		c0.7-2.4,1-5.1,1-8.1C309.1,305.7,308.4,301.8,307.1,298.2z"/>
	<path class="st0" d="M370.8,277.8v18.7H409V324h-38.3V369h-29.9V251h68.3v26.7H370.8z"/>
	<path class="st0" d="M510.6,369v-44.4h-36.1V369h-30.2V251h30.2v44.8h35.9V251h30.1V369H510.6z"/>
	<path class="st0" d="M652.2,349.4c-5.7,7-12.7,12.4-21,16.1s-17,5.6-26,5.6c-8,0-15.8-1.6-23.5-4.8s-14.3-7.6-20-13.3
		c-5.7-5.7-10.1-12.3-13.3-20c-3.2-7.6-4.8-15.5-4.8-23.5c0-1.8,0.1-4.1,0.4-7c0.3-2.9,0.9-6.2,1.9-9.8c1-3.6,2.5-7.4,4.4-11.4
		c1.9-4,4.6-7.9,7.9-11.8c2.8-3.3,6-6.3,9.6-9c3.6-2.7,7.4-4.9,11.4-6.8c4-1.8,8.2-3.3,12.6-4.3c4.4-1,8.8-1.5,13.1-1.5
		c5,0,9.7,0.6,13.9,1.7s8.1,2.5,11.5,4c3.4,1.6,6.3,3.2,8.8,4.8c2.5,1.7,4.3,3.1,5.7,4.2c6.8,5.8,12.1,12.8,15.9,21
		c3.8,8.2,5.7,16.9,5.7,25.9c0,1.8-0.1,4.1-0.4,7c-0.3,2.9-0.9,6.1-1.9,9.6c-1,3.5-2.5,7.2-4.4,11.2
		C658,341.6,655.5,345.5,652.2,349.4z M636.4,298.2c-1.2-3.2-2.9-6.2-4.9-8.8c-2.1-2.6-4.5-4.9-7.2-6.8c-2.7-1.9-5.7-3.3-8.9-4.3
		c-3.2-1-6.6-1.5-10-1.5c-1,0-2.4,0.1-4.2,0.3c-1.8,0.2-3.7,0.7-5.8,1.3c-2.1,0.7-4.3,1.6-6.6,2.8c-2.3,1.2-4.6,2.8-6.7,4.8
		c-3.2,3.1-5.7,6.7-7.4,10.9c-1.7,4.1-2.5,8.4-2.5,12.9c0,1,0.1,2.4,0.2,4.2c0.2,1.8,0.6,3.7,1.3,5.8c0.7,2.1,1.6,4.3,2.9,6.7
		c1.3,2.3,3,4.6,5.3,6.7c3,3.1,6.6,5.5,10.8,7.2c4.2,1.7,8.4,2.5,12.6,2.5c3.2,0,6.2-0.4,8.8-1.2c2.6-0.8,4.9-1.7,6.9-2.8
		c2-1.1,3.7-2.3,5.1-3.4c1.4-1.2,2.5-2.1,3.3-2.9c0.8-0.8,1.7-1.8,2.8-3.2c1.1-1.3,2-3,2.9-4.9c0.9-1.9,1.7-4.1,2.3-6.5
		c0.7-2.4,1-5.1,1-8.1C638.4,305.7,637.7,301.8,636.4,298.2z"/>
	<path class="st0" d="M757,339.4c-0.3,1.2-0.8,2.8-1.3,4.6c-0.6,1.8-1.4,3.8-2.6,5.9c-1.2,2.1-2.7,4.3-4.6,6.6
		c-1.9,2.3-4.3,4.5-7.4,6.6c-2.6,1.9-6,3.7-10.2,5.5c-4.2,1.8-10,2.7-17.2,2.7c-6.9,0-12.8-0.9-17.5-2.8c-4.8-1.8-8.8-4.1-12.1-6.8
		c-3.3-2.7-5.8-5.7-7.7-8.9c-1.8-3.2-3.1-6.2-3.9-8.9c-0.4-1.3-0.8-2.7-1.1-4.1c-0.3-1.4-0.5-2.9-0.7-4.5c-0.2-1.6-0.3-3.5-0.4-5.6
		c-0.1-2.1-0.2-4.6-0.2-7.5V251h30.1v74.8c0,2.9,0.4,5.6,1.1,8c0.7,2.5,2.4,4.6,4.9,6.5c0.8,0.4,1.6,0.8,2.3,1.2
		c0.8,0.3,1.6,0.6,2.3,0.7c0.7,0.1,1.3,0.2,1.9,0.2s1.1,0,1.4,0c4,0,7.4-1.3,10.2-3.8c2.8-2.5,4.2-5.7,4.2-9.6v-3.8V251h30.1v67
		c0,3.5-0.1,7-0.2,10.8C758.4,332.5,757.8,336.1,757,339.4z"/>
	<path class="st0" d="M827.3,363.3c-2.7,2-5.3,3.5-7.8,4.6c-2.5,1.1-4.8,1.8-7,2.3s-4.2,0.8-6,0.9c-1.8,0.1-3.4,0.2-4.8,0.2
		c-5.9,0-11-0.8-15.3-2.3s-7.9-3.5-10.9-5.8c-3-2.3-5.3-4.7-7.1-7.4c-1.8-2.6-3.1-5-3.8-7.3c-1-2.9-1.7-5.8-2-8.7
		c-0.3-2.9-0.6-6.2-0.7-9.9h28.7c0,2.9,0.2,5.6,0.7,8.1c0.5,2.5,2,4.5,4.6,5.9c0.6,0.3,1.3,0.7,2.2,1c0.9,0.3,2.1,0.5,3.5,0.5
		c3,0,5.5-0.9,7.4-2.8c1.9-1.9,2.8-4.3,2.8-7.2c0-3.6-1.1-6.3-3.3-8.1c-2.2-1.8-4.7-3.5-7.4-4.9l-5.5-2.2c-2.2-0.9-4.4-1.8-6.4-2.8
		c-2.1-0.9-4.2-2-6.3-3.1c-1.3-0.8-3.1-1.9-5.3-3.4c-2.2-1.5-4.3-3.5-6.3-6c-2-2.5-3.8-5.5-5.3-9c-1.5-3.5-2.3-7.6-2.3-12.3
		c0-1.3,0.1-2.9,0.2-4.8c0.2-1.8,0.6-3.8,1.3-6c0.7-2.2,1.8-4.4,3.2-6.8c1.4-2.3,3.3-4.7,5.8-7c2.7-2.6,5.5-4.6,8.4-6.1
		c2.9-1.5,5.7-2.6,8.4-3.4c2.7-0.8,5.1-1.3,7.3-1.5c2.2-0.2,3.9-0.3,5.3-0.3c1.3,0,3.1,0.1,5.4,0.2c2.3,0.2,4.9,0.8,7.8,1.8
		c3.6,1.2,6.7,2.7,9.3,4.5c2.6,1.8,4.8,3.7,6.5,5.7c1.7,2,3.1,4,4.3,5.9c1.1,2,1.9,3.6,2.5,4.9c0.2,0.7,0.4,1.3,0.7,1.8
		c0.2,0.6,0.4,1.1,0.5,1.7c0.2,0.6,0.4,1.1,0.4,1.8c0.1,0.6,0.2,1.2,0.4,1.8c0.2,1.2,0.3,2.4,0.3,3.4c-0.1,1.1,0,2.4,0.2,3.9h-27.9
		c0-1.6,0-2.7-0.1-3.3c-0.1-0.7-0.2-1.3-0.4-1.8c-0.6-2-1.7-3.6-3.3-4.7c-1.7-1.1-3.6-1.7-5.7-1.7c-2.8,0-5,0.8-6.7,2.5
		c-1.7,1.7-2.5,4-2.5,6.8c0,1.2,0.2,2.3,0.6,3.1c0.4,0.8,0.8,1.5,1.1,1.9c1.3,1.7,3.2,3.2,5.5,4.5c1.3,0.7,2.8,1.3,4.3,2
		c1.5,0.7,3.3,1.4,5.4,2.3c5.1,2.3,9.2,4.4,12.4,6.3c3.1,1.8,5.5,3.5,7,4.9c0.9,0.7,1.7,1.4,2.3,2.2c1,0.9,2,2.1,3,3.5
		c2.9,3.9,4.6,7.5,5.1,10.8c0.5,3.3,0.7,5.9,0.7,7.8c0,1.8-0.1,3.9-0.4,6.3c-0.3,2.5-0.9,5-2,7.8c-1.1,2.7-2.6,5.5-4.7,8.4
		C833.7,357.8,830.8,360.6,827.3,363.3z"/>
	<path class="st0" d="M846.2,369V251h67v26.4h-35.9V295h35.9v27.9h-35.7v19h36.1V369H846.2z"/>
	<path class="st0" d="M1014.9,369v-44.4h-36.1V369h-30.2V251h30.2v44.8h35.9V251h30.1V369H1014.9z"/>
	<path class="st0" d="M1049.8,369V251h67v26.4h-35.9V295h35.9v27.9H1081v19h36.1V369H1049.8z"/>
	<path class="st0" d="M1167.9,369h-45.8V251h46.1c8.2,0,16,1.5,23.1,4.6c7.2,3.1,13.4,7.3,18.8,12.6c5.3,5.3,9.5,11.6,12.6,18.8
		c3.1,7.2,4.6,14.8,4.6,23c0,8.2-1.6,15.9-4.7,23.1c-3.1,7.1-7.4,13.4-12.8,18.7c-5.4,5.3-11.7,9.6-19,12.6
		C1183.7,367.5,1176,369,1167.9,369z M1166.1,277.8h-13.7v64h13.7c4.3,0,8.4-0.8,12.1-2.5c3.7-1.7,7-4,9.8-6.9
		c2.8-2.9,5-6.3,6.6-10.1c1.6-3.8,2.4-8,2.4-12.4c0-4.3-0.8-8.5-2.4-12.4c-1.6-3.9-3.8-7.3-6.6-10.2c-2.8-2.9-6-5.2-9.8-6.9
		C1174.4,278.6,1170.4,277.8,1166.1,277.8z"/>
	<path class="st0" d="M1337.4,349.4c-5.7,7-12.7,12.4-21,16.1s-17,5.6-26,5.6c-8,0-15.8-1.6-23.5-4.8s-14.3-7.6-20-13.3
		c-5.7-5.7-10.1-12.3-13.3-20c-3.2-7.6-4.8-15.5-4.8-23.5c0-1.8,0.1-4.1,0.4-7c0.3-2.9,0.9-6.2,1.9-9.8c1-3.6,2.5-7.4,4.4-11.4
		c1.9-4,4.6-7.9,7.9-11.8c2.8-3.3,6-6.3,9.6-9c3.6-2.7,7.4-4.9,11.4-6.8c4-1.8,8.2-3.3,12.6-4.3c4.4-1,8.8-1.5,13.1-1.5
		c5,0,9.7,0.6,13.9,1.7s8.1,2.5,11.5,4c3.4,1.6,6.3,3.2,8.8,4.8c2.5,1.7,4.3,3.1,5.7,4.2c6.8,5.8,12.1,12.8,15.9,21
		c3.8,8.2,5.7,16.9,5.7,25.9c0,1.8-0.1,4.1-0.4,7c-0.3,2.9-0.9,6.1-1.9,9.6c-1,3.5-2.5,7.2-4.4,11.2
		C1343.3,341.6,1340.7,345.5,1337.4,349.4z M1321.6,298.2c-1.2-3.2-2.9-6.2-4.9-8.8c-2.1-2.6-4.5-4.9-7.2-6.8
		c-2.7-1.9-5.7-3.3-8.9-4.3c-3.2-1-6.6-1.5-10-1.5c-1,0-2.4,0.1-4.2,0.3c-1.8,0.2-3.7,0.7-5.8,1.3c-2.1,0.7-4.3,1.6-6.6,2.8
		c-2.3,1.2-4.6,2.8-6.7,4.8c-3.2,3.1-5.7,6.7-7.4,10.9c-1.7,4.1-2.5,8.4-2.5,12.9c0,1,0.1,2.4,0.2,4.2c0.2,1.8,0.6,3.7,1.3,5.8
		c0.7,2.1,1.6,4.3,2.9,6.7c1.3,2.3,3,4.6,5.3,6.7c3,3.1,6.6,5.5,10.8,7.2s8.4,2.5,12.6,2.5c3.2,0,6.2-0.4,8.8-1.2
		c2.6-0.8,4.9-1.7,6.9-2.8c2-1.1,3.7-2.3,5.1-3.4c1.4-1.2,2.5-2.1,3.3-2.9c0.8-0.8,1.7-1.8,2.8-3.2c1.1-1.3,2-3,2.9-4.9
		c0.9-1.9,1.7-4.1,2.3-6.5c0.7-2.4,1-5.1,1-8.1C1323.6,305.7,1322.9,301.8,1321.6,298.2z"/>
	<path class="st0" d="M1429.1,369l-44.3-64.5V369h-29.6V251h26.2c5.2,7.5,10.4,14.7,15.4,21.8c5,7.1,10,14.4,15,22l13.9,21.2v-65
		h29.7V369H1429.1z"/>
	<path class="st0" d="M1460.5,369V251h30.1V369H1460.5z"/>
	<path class="st0" d="M1559.3,363.3c-2.7,2-5.3,3.5-7.8,4.6c-2.5,1.1-4.8,1.8-7,2.3c-2.2,0.5-4.2,0.8-6,0.9s-3.4,0.2-4.8,0.2
		c-5.9,0-11-0.8-15.3-2.3s-7.9-3.5-10.9-5.8c-3-2.3-5.3-4.7-7.1-7.4c-1.8-2.6-3.1-5-3.8-7.3c-1-2.9-1.7-5.8-2-8.7
		c-0.3-2.9-0.6-6.2-0.7-9.9h28.7c0,2.9,0.2,5.6,0.7,8.1c0.5,2.5,2,4.5,4.6,5.9c0.6,0.3,1.3,0.7,2.2,1c0.9,0.3,2.1,0.5,3.5,0.5
		c3,0,5.5-0.9,7.4-2.8c1.9-1.9,2.8-4.3,2.8-7.2c0-3.6-1.1-6.3-3.3-8.1c-2.2-1.8-4.7-3.5-7.4-4.9l-5.5-2.2c-2.2-0.9-4.4-1.8-6.4-2.8
		c-2.1-0.9-4.2-2-6.3-3.1c-1.3-0.8-3.1-1.9-5.3-3.4c-2.2-1.5-4.3-3.5-6.3-6c-2-2.5-3.8-5.5-5.3-9c-1.5-3.5-2.3-7.6-2.3-12.3
		c0-1.3,0.1-2.9,0.2-4.8c0.2-1.8,0.6-3.8,1.3-6c0.7-2.2,1.8-4.4,3.2-6.8c1.4-2.3,3.3-4.7,5.8-7c2.7-2.6,5.5-4.6,8.4-6.1
		c2.9-1.5,5.7-2.6,8.4-3.4c2.7-0.8,5.1-1.3,7.3-1.5c2.2-0.2,3.9-0.3,5.3-0.3c1.3,0,3.1,0.1,5.4,0.2c2.3,0.2,4.9,0.8,7.8,1.8
		c3.6,1.2,6.7,2.7,9.3,4.5c2.6,1.8,4.8,3.7,6.5,5.7c1.7,2,3.1,4,4.3,5.9c1.1,2,1.9,3.6,2.5,4.9c0.2,0.7,0.4,1.3,0.7,1.8
		c0.2,0.6,0.4,1.1,0.5,1.7c0.2,0.6,0.4,1.1,0.4,1.8c0.1,0.6,0.2,1.2,0.4,1.8c0.2,1.2,0.3,2.4,0.3,3.4c-0.1,1.1,0,2.4,0.2,3.9h-27.9
		c0-1.6,0-2.7-0.1-3.3c-0.1-0.7-0.2-1.3-0.4-1.8c-0.6-2-1.7-3.6-3.3-4.7c-1.7-1.1-3.6-1.7-5.7-1.7c-2.8,0-5,0.8-6.7,2.5
		c-1.7,1.7-2.5,4-2.5,6.8c0,1.2,0.2,2.3,0.6,3.1c0.4,0.8,0.8,1.5,1.1,1.9c1.3,1.7,3.2,3.2,5.5,4.5c1.3,0.7,2.8,1.3,4.3,2
		c1.5,0.7,3.3,1.4,5.4,2.3c5.1,2.3,9.2,4.4,12.4,6.3c3.1,1.8,5.5,3.5,7,4.9c0.9,0.7,1.7,1.4,2.3,2.2c1,0.9,2,2.1,3,3.5
		c2.9,3.9,4.6,7.5,5.1,10.8c0.5,3.3,0.7,5.9,0.7,7.8c0,1.8-0.1,3.9-0.4,6.3c-0.3,2.5-0.9,5-2,7.8c-1.1,2.7-2.6,5.5-4.7,8.4
		C1565.6,357.8,1562.8,360.6,1559.3,363.3z"/>
	<path class="st0" d="M1677,369v-47.6c0-1.8,0-3.6,0-5.4c0-1.8,0-3.9,0.1-6.3c0.1-2.4,0.1-5.1,0.2-8.2c0.1-3.1,0.2-6.7,0.3-10.9
		c-1.3,4-2.5,7.5-3.3,10.4c-0.9,3-1.7,5.6-2.4,7.9c-0.7,2.3-1.4,4.4-2,6.3c-0.6,1.8-1.2,3.6-1.8,5.4c-1.6,4.3-3,8.7-4.3,13.1
		c-1.3,4.4-2.8,8.8-4.3,13.1c-1.2,3.6-2.5,7.2-3.8,10.9c-1.3,3.7-2.5,7.5-3.8,11.4h-21.9l-12.5-37.2c-1.1-2.9-2.1-5.8-3-8.6
		c-0.9-2.8-1.8-5.8-2.7-8.9l-7.2-23.9c0.1,4.3,0.2,8.1,0.2,11.4c0.1,3.2,0.1,6.1,0.2,8.6c0.1,2.5,0.1,4.7,0.1,6.7c0,2,0,3.8,0,5.6
		V369h-27.1V251h39.6c2.6,7.7,5,15.1,7.4,22.3c2.4,7.2,4.8,14.4,7.1,21.8c1.4,4.5,2.9,9,4.3,13.7c1.4,4.7,3.2,10.3,5.2,16.9
		c1.9-6.5,3.5-12,4.9-16.6c1.4-4.6,2.8-9.1,4.1-13.4c1.3-4.3,2.7-8.6,4.1-12.9c1.4-4.2,2.8-8.5,4.3-12.9c0.9-3,1.8-6,2.8-9
		c1-3,2.1-6.3,3.3-9.9h40.1V369H1677z"/>
</g>
</svg>
