<?xml version="1.0" encoding="utf-8"?>
<!-- Generator: Adobe Illustrator 22.0.1, SVG Export Plug-In . SVG Version: 6.00 Build 0)  -->
<svg version="1.1" id="Layer_1" xmlns="http://www.w3.org/2000/svg" xmlns:xlink="http://www.w3.org/1999/xlink" x="0px" y="0px"
	 viewBox="0 0 1376.4 239.3" style="enable-background:new 0 0 1376.4 239.3;" xml:space="preserve">
<style type="text/css">
	.st0{fill:#FFFFFF;}
</style>
<path class="st0" d="M474.1,150.1c2.2-11.6,4.4-23.2,6.6-34.8c4.2-22,8.4-44.1,12.4-66.2c0.7-4.1,2.2-5.5,6.4-5.4
	c8.3,0.3,16.7,0.1,25.4,0.1c0,50.8,0,100.9,0,151.4c-7.1,0-14.2,0-21.8,0c0-30.1,0-60.1,0-90.1c-0.5-0.1-1-0.1-1.5-0.2
	c-6.3,30.1-12.7,60.1-19.1,90.4c-6,0-11.8,0-18.3,0c-7-30.1-14.1-60.3-21.2-90.5c-0.4,0-0.8,0.1-1.1,0.1c0,29.9,0,59.8,0,90.2
	c-7.6,0-14.6,0-22.1,0c0-50.2,0-100.3,0-151.3c10.1,0,20.1-0.1,30.2,0.2c0.9,0,2.3,2.8,2.6,4.4c6.2,31.2,12.3,62.4,18.5,93.6
	c0.5,2.7,1.1,5.3,1.6,8C473.2,150.1,473.7,150.1,474.1,150.1z"/>
<path class="st0" d="M125,228.4c0.7-2.4,0.8-5,2-7c12.5-20.9,25.2-41.8,37.8-62.6c1.1-1.7,1.9-3.6,1.9-6c-4.2,6.7-8.3,13.4-12.5,20
	c-2.5,3.9-5.3,7.7-8.1,11.5c-0.8,1.1-1.8,2.7-2.8,2.8c-7.5,1-12.6,7.4-19.8,8.9c-1.6,0.3-3.7,0.6-4.9-0.1
	c-5.3-3.3-10.6-6.6-15.3-10.6c-2.1-1.8-2.7-5.4-4.6-7.7C94,171.9,89.2,166.2,84,161c-22.9-22.9-35.3-50.1-34.8-82.9
	c0.1-7.8,0-15.5,0-23.3c0-4.8,2.7-6.2,7.1-6.5c19.1-1.4,34.4,5.2,45.5,21c0.7,1,1.5,2,3,3.9c0.6-3.4,0.9-5.8,1.4-8.2
	c4.6-20,13.6-37.1,30.9-49.3c14-9.9,28.8-13.4,45-7.4s24.9,18,26.6,35.2c0.2,2.4,1.4,5.3,3.1,7c3.7,3.7,5.4,7,3.2,12.4
	c-3.9,9.2-6.3,19-10.6,27.9c-10,20.8-20.2,41.6-31.4,61.8c-11.2,20.3-23.7,39.9-35.6,59.9c-3.3,5.5-6.6,11-10,16.5
	C126.6,228.7,125.8,228.6,125,228.4z M127.9,150.1c-0.8,0.4-1.6,0.9-2.4,1.3c-3.5-4.7-7.7-9-10.4-14.1c-6.5-12.4-9.8-26.1-9.9-40
	c-0.1-8.9-4.8-14-10.3-19.1C89.7,73.3,83.4,72.8,77,76c-12.7,6.4-20.1,25.8-14.2,38.7c7.6,16.8,18.8,31.1,31.7,44.1
	c10.4,10.6,22.5,19.1,33.6,25.1c3.6-2.5,7.1-3.8,8.8-6.3c16.6-25.2,33.3-50.5,49.2-76.2c5.9-9.5,10.5-20,14.9-30.4
	c2.6-6.2,3.3-13.2,0.1-20.3c-9.7,1.7-18.8,4.9-25.3,12.2c-16.6,18.7-33,37.7-31.7,65.2c-12.6,2.9-15.2,1.4-19.3-9.9
	c-1.8-4.9-4.5-9.5-6.7-14.3c-0.6,0.3-1.2,0.5-1.8,0.8C120.1,119.9,124,135,127.9,150.1z M204.7,46.1c1.3-11.7-4.2-23.3-13.8-29.8
	c-15.2-10.3-37.2-9.9-51.4,1.8c-6.8,5.7-13.1,12.3-18.6,19.4c-8.4,10.7-11.8,23.6-12.9,37c-0.2,2.8,0.6,6.8,2.5,8.5
	c6.5,5.8,13.7,10.8,20.9,16.3c1.2-2.1,2.2-4,3.2-5.8c9.4-17.4,21.2-32.8,38.4-43.2C182.8,44.5,193,41.1,204.7,46.1z M53.2,98.6
	c15.1-25.1,25.1-29.9,48.3-23.9c-0.3-0.8-0.5-1.6-0.8-2.1C92.1,58,73.1,49,56.7,52c-2,0.4-4.5,3.1-5,5.1
	C48.6,70.7,50.1,84.2,53.2,98.6z M110.8,97.2c-4.3,9.5,3,36.1,12,43.9C118.7,126,114.9,112.2,110.8,97.2z"/>
<path class="st0" d="M1128.2,44.1c8.1,0,15.6,0,23.5,0c6.2,38.5,12.3,76.8,18.4,115c0.5,0,0.9,0.1,1.4,0.1
	c1.4-8.1,2.8-16.2,4.1-24.2c4.7-28.9,9.5-57.8,14-86.7c0.5-3.4,1.6-4.8,5.1-4.6c5.4,0.2,10.8,0.1,16.9,0.1
	c-2.5,15.3-4.9,29.9-7.3,44.5c-5.7,34.1-11.5,68.1-17,102.2c-0.6,3.9-1.9,5.3-5.9,5.2c-8-0.3-16-0.2-24,0c-3.3,0.1-4.7-0.9-5.3-4.4
	c-5.7-35.6-11.6-71.3-17.4-106.9c-1.8-10.8-3.6-21.6-5.3-32.3C1128.9,49.4,1128.6,46.9,1128.2,44.1z"/>
<path class="st0" d="M1058.2,161.1c-1.7,10.4-3.4,20-4.7,29.6c-0.5,3.7-1.9,5-5.6,4.8c-5.8-0.3-11.7-0.1-18.5-0.1
	c2-12.4,3.9-24.2,6.1-36c0.3-1.7,2.4-3,3.6-4.5c23.7-30.2,30.7-63.7,19.4-100.7c-0.5-1.7-1.4-3.2-2.1-4.8c-0.7-1.6-1.3-3.1-2.4-5.7
	c10.3,0,19.7-0.1,29.2,0.2c1,0,2.6,2.6,2.9,4.1c5.7,33.5,11.2,67,16.7,100.5c2.1,12.7,4.3,25.4,6.4,38.1c0.4,2.7,0.8,5.3,1.3,8.8
	c-6.9,0-13.3,0.2-19.6-0.2c-1.1-0.1-2.8-2.3-3.1-3.8c-1.7-8.6-3.2-17.3-4.3-26c-0.5-3.5-2-4.6-5.3-4.5
	C1071.8,161.2,1065.3,161.1,1058.2,161.1z M1061.8,138.2c6.2,0,11.6,0,17.5,0c-2.7-19.3-5.4-38.1-8-56.9c-0.4,0-0.8,0-1.3,0
	C1067.3,100.1,1064.6,118.8,1061.8,138.2z"/>
<path class="st0" d="M389.9,44c0,7.3,0,14.1,0,22c-5.6,0-10.9,0-16.3,0c-7.2,0-14.5-0.2-21.7,0.2c-1.5,0.1-4.1,2-4.1,3.1
	c-0.3,12.6-0.2,25.3-0.2,38.6c10.3,0,20.2,0,30.5,0c0,7.7,0,14.8,0,22.6c-9.8,0-19.6,0-30,0c0,14.4,0,28.1,0,42.4
	c11.7,0,23.2,0.3,34.6-0.1c5.9-0.2,8.1,1.4,7.4,7.5c-0.6,4.8-0.1,9.7-0.1,14.9c-21.8,0-42.9,0-64.7,0c-0.1-1.6-0.4-3.2-0.4-4.9
	c0-37.1-0.1-74.2,0.1-111.3c0-2.2,1.5-5.5,3.3-6.4c19.4-9.5,39-18.7,58.6-27.9C387.7,44.4,388.5,44.3,389.9,44z"/>
<path class="st0" d="M1230.5,195.1c0-50.4,0-100.5,0-151.3c2.4,0,5-0.7,6.8,0.1c13.7,6.4,27.3,13,40.9,19.6
	c-0.2,0.7-0.4,1.4-0.6,2.2c-8.2,0-16.3,0-24.7,0c0,14.5,0,28.1,0,42.4c10.2,0,20,0,30.6,0c0,6.9,0.3,13.1-0.2,19.2
	c-0.1,1.2-3.1,3-4.8,3.1c-8.4,0.3-16.7,0.1-25.5,0.1c0,14.3,0,28,0,42.4c13.9,0,27.5,0,41.5,0c0,7.7,0,14.8,0,22.2
	C1273.3,195.1,1252.3,195.1,1230.5,195.1z"/>
<path class="st0" d="M4.3,43.9c7.3,0,14.3,0,22,0c0,42.7,0,85.3,0,129c8.4,0,16.1,0,23.9,0c16.3,0,16.3,0,16.2,16.1
	c0,1.9-0.2,3.8-0.3,6.1c-20.7,0-41,0-61.8,0C4.3,144.8,4.3,94.7,4.3,43.9z"/>
<path class="st0" d="M830.4,169.4c-3,23.8-32.8,36.6-53.7,22.6c-10.6-7.1-16.5-17.1-16.6-30c-0.2-27.9-0.3-55.8,0-83.7
	c0.2-18.6,14.2-33.7,32.4-35.7c17.4-1.9,33.2,9.2,37.9,26.4c1.2,4.4,1,7.6-3.6,10.2c-5.8,3.4-11.2,7.6-17.7,12.1
	c0-4.9,0.1-8.7,0-12.5c-0.2-8.2-5.8-14.1-13.3-14c-7.4,0-13.1,6-13.2,14.2c-0.1,10.5,0.3,21.1-0.2,31.6c-0.2,3.8-1.4,8-3.5,11.2
	c-7.4,11.2-12.9,22.7-11.4,36.6c1.6,15.4,11.7,27.1,25.7,29.6c9.1,1.6,17.1-1.4,24.1-6.7C822,177.8,826.2,173.3,830.4,169.4z"/>
<path class="st0" d="M896.5,195.2c-8,0-15,0-22.7,0c0-42.8,0-85.4,0-128.8c-6,0-11.3,0-16.7,0c-0.1-0.5-0.3-1-0.4-1.5
	c2.4-1.3,4.8-2.7,7.3-3.9c8.8-4.3,17.5-8.6,26.3-12.7c11.3-5.2,15.7-5.7,29.4-4.1c0,7,0,14,0,21.8c-7.6,0-15.1,0-23.3,0
	C896.5,109.2,896.5,151.8,896.5,195.2z"/>
<path class="st0" d="M959.2,115.5c2,0.4,3.7,0.7,5.5,1c1.5,7.1,3.1,14.2,4.6,21.3c-10.5,1.3-10.5,1.3-10.5,12.2
	c0,12.9,0,25.7,0,38.6c0,2.1-0.2,4.2-0.3,6.5c-7.4,0-14.3,0-21.6,0c0-50.4,0-100.4,0-150.8c15.1,0,30.2,0,45.3,0
	c-3.8,7-7.2,13.5-11,19.7c-0.7,1.2-2.8,1.8-4.3,2.1c-2.4,0.3-4.9,0.1-7.8,0.1C959.2,83.1,959.2,99.2,959.2,115.5z"/>
<path class="st0" d="M743.6,195.5c-7.3,0-14.1,0-21.5,0c0-50.3,0-100.5,0-151c7.2,0,14.2,0,21.5,0
	C743.6,94.9,743.6,144.9,743.6,195.5z"/>
<path class="st0" d="M247.8,195.3c-2.8-17.1-5.6-33.7-8.2-50.2c-0.3-1.7,0.2-4.1,1.3-5.3c5.4-6.4,11.1-12.4,17.9-19.9
	c2.3,14.2,4.4,26.7,6.4,39.2c0.4,0,0.8,0.1,1.1,0.1c1.5-8.7,3-17.3,4.4-26c1.1-6.7,2.5-13.4,3.1-20.2c0.4-4.8,2.6-7.8,6.5-10.3
	c6-3.9,11.8-8.2,18.7-13c-6,36.1-11.8,70.9-17.7,105.7C270,195.3,259.2,195.3,247.8,195.3z"/>
<path class="st0" d="M569,196.1c-14.3-2.4-27-15.9-27.2-30.8c-0.5-39.6-0.2-79.2-0.2-118.8c0-0.5,0.3-1.1,0.6-1.9
	c6.9,0,13.8,0,21.6,0c0,2.5,0,4.8,0,7.1c0,35.3,0,70.6,0,105.9c0,5.7,0.6,10.8,5.3,14.8c1,0.9,1.4,3.1,1.4,4.6
	C570.2,183.2,569.6,189.4,569,196.1z"/>
<path class="st0" d="M630,153.8c7.6-0.5,14.8-1.1,21.7-1.6c1.6,5.2,2.6,10,4.6,14.4c2.9,6.6,7.8,9.3,13.9,8.3
	c5.8-0.9,10.4-6,11.4-12.5c1.4-9.8-2.5-17.5-9.2-24.1c-9.7-9.6-19.9-18.8-28.9-29c-11-12.5-13.3-27.4-9.1-43.3
	c0.3-1.3,0.8-2.6,1.3-3.9c0.3-0.7,0.8-1.3,1.7-2.9c5.6,4.9,11,9.6,16.2,14.4c0.9,0.8,1.4,2.4,1.3,3.6c-0.5,12.8,6.5,21.8,15.6,29.3
	c3.8,3.2,6,6.8,7.2,11.5c6.3,24.2,8.3,48.3,1.1,72.8c-1.5,5-4.1,6.7-9.1,6.9c-20.6,0.6-35.2-12.8-38.8-36
	C630.5,159.3,630.3,156.8,630,153.8z"/>
<path class="st0" d="M1333.6,173.1c6.9,0,13.3,0,19.7,0c6.4,0,12.8,0,19.7,0c0,7.5,0,14.5,0,21.9c-20.2,0-40.6,0-61.3,0
	c0-34.9,0-69.5,0-105.5c7.5,6.3,14.4,12,21.1,18.1c1.1,1,0.9,3.6,0.9,5.5c0.1,17.6,0,35.1,0,52.7
	C1333.6,167.9,1333.6,170.1,1333.6,173.1z"/>
<path class="st0" d="M1004.8,163.3c-23.2-7.7-35.1-24.5-35.6-46.8c1.3-0.1,2.6-0.3,3.9-0.4c8.2-0.7,13.3-5.8,13.6-14
	c0.3-7.2,0.2-14.4,0-21.6c-0.2-8.8-2.6-11.8-13.1-15.1c4.3-6.4,8.2-12.4,12.6-18.2c0.6-0.8,3.6-0.6,5.1,0.1
	c11.9,5.3,16.7,15.5,17.4,27.6c0.6,10.1,0.5,20.3,0.1,30.4c-0.3,7.8-3.4,14.9-9.1,20.4c-3,2.9-3.3,5.6-2.3,9.3
	C1000,144,1002.2,153.3,1004.8,163.3z"/>
<path class="st0" d="M613.1,81.8c0,3.4,0,6.9,0,10.3c0,23.2,0.1,46.4,0,69.6c-0.1,19.7-14.1,34.4-33.7,35.7c-2.1,0.1-4.2-0.2-7-0.4
	c0.6-7.6,1.2-14.7,1.7-21.6c13.1-1.6,16.7-5.8,16.7-18.4c0-12.5-0.2-25,0.1-37.4c0.1-3.7,0.9-7.8,2.8-11
	c5.4-9.4,11.5-18.4,17.3-27.6C611.7,81.3,612.4,81.6,613.1,81.8z"/>
<path class="st0" d="M237.8,134.7c-4.8-29-9.8-59.5-14.9-91c7.5,0,14.6-0.1,21.7,0.2c1,0,2.4,2.2,2.7,3.6
	c3.6,21.7,7.1,43.5,10.4,65.3c0.3,1.9-0.5,4.8-1.9,6.1C250,124.4,243.8,129.5,237.8,134.7z"/>
<path class="st0" d="M809.1,141c7.8,0,14.7,0,21.6,0c5.3,19.7-10.9,42.6-31.1,44c-16.7,1.2-30.2-13.9-29.1-32.8
	c0.6-10.4,4.9-19.4,12.1-29.3c0,10.1,0,18.5,0,26.9c0,4.3-0.2,8.6,0.1,12.9c0.4,7.4,6.2,12.6,13.5,12.5c7.1-0.1,12.6-5.2,12.8-12.5
	C809.3,155.7,809.1,148.7,809.1,141z"/>
<path class="st0" d="M702.6,76.5c-6.5,1.2-13.1,2.5-20.1,3.8c-2.5-7.9-3.5-16.9-14-18.1c-5-0.6-8.5,1.7-12.8,8.3
	c-5.6-4.7-11.2-9.3-16.7-13.9c7.7-12.1,24-17.3,39.5-12.9C692.9,47.9,702.6,60.8,702.6,76.5z"/>
<path class="st0" d="M1311.3,43.9c7.9,0,14.6,0,21.8,0c0,19.5,0,38.8,0,59.4c-7.4-6.4-14.1-12.1-20.7-18c-0.6-0.6-1.1-1.7-1.1-2.6
	C1311.2,70,1311.3,57.2,1311.3,43.9z"/>
<path class="st0" d="M275.8,101.9c3.2-20,6.3-38.8,9.4-57.9c6.9,0,13.7,0,21.4,0c-1.5,9.6-3.6,19-4.4,28.6
	c-0.7,9.4-4.5,15.9-13,20.1C284.8,94.9,280.9,98.4,275.8,101.9z"/>
<path class="st0" d="M681.5,117c15.3,13.9,26.2,29.6,21.5,51.6c-2.6,12.3-8.6,22.3-22.4,27.3C689.4,169.1,687.6,143.1,681.5,117z"/>
<path class="st0" d="M1036.7,151.3c5.5-33.5,10.9-66,16.3-98.9C1068.1,72.8,1058.4,133.4,1036.7,151.3z"/>
<path class="st0" d="M591.3,44.4c6.1,0,11.9-0.3,17.7,0.2c1.5,0.1,3.8,2.8,3.9,4.4c0.4,7.8,0.3,15.6,0.1,23.4c0,1.4-0.7,3.1-1.5,4.2
	c-6.6,9.1-13.4,18.2-20.2,27.4C591.3,84.5,591.3,64.9,591.3,44.4z"/>
<path class="st0" d="M1013,195.2c-8.3,0-15.7,0-23.4,0c-3.7-14.2-7.3-28.3-10.7-41.8c8.4,4.5,16.9,9,25.3,13.7c1,0.6,2.1,1.8,2.4,3
	C1008.7,178.2,1010.7,186.3,1013,195.2z"/>
<path class="st0" d="M325.5,43.8c17.9,0,35.6,0,54.1,0c-18.3,8.8-35.9,17.3-54.1,26.1C325.5,61.3,325.5,52.9,325.5,43.8z"/>
<path class="st0" d="M1294.8,44c0,7.3,0,14.1,0,22.7c-4.5-1.2-8.7-1.6-12.1-3.4c-11.7-6.1-23.2-12.7-35-19.2
	C1263.2,44,1278.7,44,1294.8,44z"/>
<path class="st0" d="M891.5,43.7c-14.8,7.4-28.1,14-42.3,21.1c0-6.6-0.2-12.4,0.2-18.2c0.1-1,2.1-2.8,3.3-2.8
	C865,43.6,877.4,43.7,891.5,43.7z"/>
<path class="st0" d="M810.9,94.3c6.4-4.6,12.9-9.2,20.2-14.4c0,5.8,0,10.5,0,15.6c-6.7,0-13.2,0-19.7,0
	C811.3,95.1,811.1,94.7,810.9,94.3z"/>
</svg>
