<?xml version="1.0" encoding="utf-8"?>
<!-- Generator: Adobe Illustrator 22.0.1, SVG Export Plug-In . SVG Version: 6.00 Build 0)  -->
<svg version="1.1" id="Layer_1" xmlns="http://www.w3.org/2000/svg" xmlns:xlink="http://www.w3.org/1999/xlink" x="0px" y="0px"
	 viewBox="0 0 1500 350" style="enable-background:new 0 0 1500 350;" xml:space="preserve">
<style type="text/css">
	.st0{fill:#FFFFFF;}
</style>
<g>
	<path class="st0" d="M0,217.1c0.6-1.5,1.5-3,1.9-4.6c9.6-39.8,52.5-62.7,92.9-50.5c9.4,2.8,9.2,2.6,10.2-7.4
		c4.4-42.8,49.4-74.1,90.8-57.6c10.4,4.2,10.6,3.8,13-6.8C220.8,38,268,0.9,321.7,0.1c30-0.5,56.3,7.9,79.2,27.1
		c2.2,1.8,6.6,3.2,5.5,6.4c-1.2,3.4-5.8,2.6-8.9,3c-31.2,3.9-60.8,13.1-88.5,27.8c-79.2,42.1-126.8,107.4-142.3,195.9
		c-2,11.2-3.3,22.5-3.3,33.9c0,4.3-1,7.9-6.3,7.8c-31.9-0.5-63.9,2.5-95.7-1.4c-30.2-3.6-49.3-22.2-59-50.7
		c-0.7-2.1-1.6-4.1-2.4-6.2C0,234.9,0,226,0,217.1z"/>
	<path class="st0" d="M1500,200.5c-3.5,9.2-10.7,12.6-19.9,12.8c-1.4,0-2.7,0.6-4.1,0.9c-10.7,2-16.3,7.5-17.9,19.1
		c-2.5,18.9-6.9,37.6-10.7,56.3c-2,9.7-15.5,14.9-23.5,9.2c-2.7-1.9-2.9-4.6-2.3-7.4c6-31.3,12.1-62.6,18.1-93.8
		c1.1-5.8,5.6-7.4,10.6-7.3c4.7,0.1,10.6-1.4,12.1,5.6c1,5,3.2,3,5.6,1.2c9.5-7.1,20.1-10.4,32-8.3
		C1500,192.7,1500,196.6,1500,200.5z"/>
	<path class="st0" d="M219.8,302.1c-22,0-21.3,0.1-18.9-22.6c4.8-46.3,20.9-88,50.8-123.7c41.2-49.2,93.8-77.9,158.2-83.8
		c1.4-0.1,2.8-0.2,4.1-0.3c21.3-2.5,21.3-2.5,26.4,18.9c4.4,18.7,4.4,18.9-14.4,20.1c-48.3,3.1-91.2,19.5-126.2,53.2
		c-34.4,33.1-54.7,73.8-58.1,121.9c-1.2,16.3-0.5,16.3-17,16.3C223.1,302.1,221.4,302.1,219.8,302.1z"/>
	<path class="st0" d="M431.4,148.8c18.9-0.4,35.9,3.1,52.7,8.3c8.1,2.5,13.2,7.4,15.9,15.5c3.6,10.7,5.2,21.5,5.1,32.7
		c-0.1,6.5-1.5,8.2-7.5,4.1c-15.6-10.7-33-16.7-51.7-19.4c-42.8-6.3-91.1,18-111.4,56.2c-8.1,15.2-13.3,31.1-14.4,48.3
		c-0.3,5.1-2.1,7.7-7.5,7.6c-8.9-0.2-17.8-0.1-26.6-0.1c-5.3,0-7.4-2.4-7.1-7.8c3.2-72.5,57.1-132.2,129.8-143.7
		C416.6,149.4,424.5,148.4,431.4,148.8z"/>
	<path class="st0" d="M766,292.3c-12,6.9-23.7,10.4-36.7,8.9c-15-1.7-23.4-10.2-22.9-25.2c1-27.1,8.5-53.1,13.8-79.4
		c1.2-5.9,10.1-8,19.6-5.9c7,1.6,5.5,6.7,4.6,11.3c-3.3,17.7-7,35.4-10.2,53.2c-1.2,6.7-3.9,14.5,2.4,19.6
		c6.8,5.5,14.9,2.7,22.2-0.1c8.1-3.2,13.6-7.9,15-17.8c2.8-18.9,7.2-37.6,11-56.4c1.8-8.9,16.4-14,23.9-8.6c2.5,1.8,2.5,4.2,2,6.7
		c-7.7,37.8-12.3,76.3-24.3,113.1c-11.1,33.9-38.1,40.4-70.6,34.8c-6-1-6.8-6-6-11c0.8-4.8,2.4-9.5,8.6-9.3
		c4.7,0.1,9.4,0.8,14.1,0.8C753.2,326.8,765.4,314.5,766,292.3z"/>
	<path class="st0" d="M681.7,300.3c-8.5,1.5-13.8-3.3-16.6-12.2c-2.6-8.2-5.6-16.3-8.9-24.2c-1.2-3-0.9-8.8-5.5-7.8
		c-4.4,1-9.8,3.1-11,9c-1.7,8.4-3.2,16.9-5.1,25.3c-1.9,8.9-17,14-23.9,8.2c-3.6-3.1-2-7.2-1.3-10.9c5.9-30.5,12-61,17.9-91.5
		c2.7-13.9,5.3-27.8,8.2-41.7c1.9-9.2,16.6-14.2,23.9-8.5c3.3,2.5,2.3,6.1,1.7,9.2c-4.3,22.4-8.7,44.7-13.2,67
		c-0.4,2.1-2.5,4.4-0.4,6.1c2.5,1.9,4.7-0.3,6.6-1.9c10.1-8.3,19.8-17.1,27.6-27.6c7.3-9.7,17.1-9.3,27.1-8c6.1,0.8,3.5,5.2,1.5,8
		c-8.4,11.8-17.7,22.9-28.6,32.4c-6.5,5.6-7.9,10.5-4,18.5c5.7,11.7,10.1,24.1,14.8,36.2C697.7,299,696.7,300.3,681.7,300.3z"/>
	<path class="st0" d="M1378.5,256c-9.2,0-18.3,0.3-27.4-0.1c-6.5-0.3-7.5,2.6-6.4,8.1c1.8,9.3,6.6,14.2,16.5,16.4
		c10,2.2,19.8-0.1,29.7-1.3c4-0.5,10-4.9,11.8,2.7c1.5,6.5-0.1,12.7-6.5,16.5c-1.6,1-3.6,1.6-5.4,2.1c-12.5,3.1-25.1,4.5-37.9,2.6
		c-22.9-3.4-33.3-14.4-34.9-37.4c-1.3-19.2,1.8-37.6,12.6-54.1c16.3-24.9,46.6-28,67.2-21.9c9,2.7,15.5,9,18.4,18
		c4.6,14.2,2.9,28.5-0.2,42.7c-1,4.5-4.8,5.7-9,5.7C1397.3,256,1387.9,255.9,1378.5,256C1378.5,256,1378.5,256,1378.5,256z
		 M1369.3,237.1c0,0.1,0,0.2,0,0.2c5.6,0,11.1,0,16.7,0c1.9,0,4.3,0.3,5.1-1.9c2.1-6.2,2.7-12.6,0-18.7c-2.3-5.4-6.7-7.8-12.5-8.2
		c-13.6-0.8-28.1,10.8-30,24c-0.5,3.6,1.2,4.5,4.1,4.6C1358.2,237.2,1363.8,237.1,1369.3,237.1z"/>
	<path class="st0" d="M1046.1,186.8c2.6,0,3.7,0,4.8,0c28.7,1.1,37.8,12.2,32.8,40.3c-2.3,12.8-4.7,25.7-7.3,38.4
		c-1.7,8.3-2.8,16.1,2.1,24.1c3.4,5.7-0.5,10-5.7,12.7c-6.9,3.6-17.1,1.5-21.7-5.2c-3-4.3-4.7-3.6-8.3-1.2
		c-11.8,7.7-24.6,9.8-38.3,6.1c-11.4-3.1-17.9-10.6-19.6-22.3c-2.7-18.1,5.8-33.5,23-42.2c13-6.5,27.1-7.8,41.3-8.5
		c3.7-0.2,8.9,2,9.5-4.8c0.5-6.5,0.2-12.5-7.4-14.8c-7.1-2.2-14.3-1.5-21.5-0.4c-3.8,0.6-7.6,1.8-11.4,2.3
		c-4.3,0.6-9.6,3.8-11.7-3.4c-1.9-6.7,1-13.6,7.3-15.7C1024.9,188.6,1036.1,187.2,1046.1,186.8z M1025.4,281.9
		c12-0.1,23.3-6.9,25.2-16.2c4.1-19.2,6.7-19.9-15.1-16.6c-9.2,1.4-17.8,4.7-22.2,14C1008.3,273.9,1013.6,282,1025.4,281.9z"/>
	<path class="st0" d="M1197.2,220.5c-3.1,21.7-8.4,47.2-13.9,72.7c-1.4,6.6-10.4,9.3-19.8,6.8c-7.4-1.9-5.3-7.5-4.4-12.2
		c3.4-18.6,7.3-37,10.5-55.6c3-17.4-4.8-24.2-21.9-19.1c-12.5,3.7-22.1,9.6-23.6,25.1c-1.7,17.1-6.1,33.8-9.4,50.7
		c-2,10-14.1,15.3-23.1,10.3c-3.4-1.9-3.5-4.7-2.9-7.8c5.9-30.8,11.8-61.6,17.6-92.4c1.1-5.8,4.6-8.9,10.4-8.7
		c5.2,0.2,11.5-2,13.4,6.2c1.3,5.5,4.2,1.6,6.1,0.4c10.1-6.3,20.9-10.1,33-9.9C1188.3,187.4,1197.7,197.1,1197.2,220.5z"/>
	<path class="st0" d="M1282.4,300.3c-11.7,0-13.4-1.9-11.4-12.5c3.5-19.4,7.6-38.7,10.8-58.1c2.3-14-3.9-19.7-18-17.5
		c-8.2,1.2-15.1,5.2-21.8,9.9c-3.1,2.2-3.6,5.3-4.3,8.6c-3.7,19.4-7.3,38.7-11.1,58c-2,10.3-14.8,15.7-23.7,10.3
		c-3.3-2-3.1-5-2.5-8.1c5.9-30.8,11.9-61.5,17.9-92.3c1-5,3.7-8,9-8.1c5.1-0.1,11.6-2.3,13.9,4.1c2.2,6,4.5,3.8,7.7,1.8
		c10.7-6.6,22.1-10.1,34.8-9.4c16.5,0.9,27.2,11.9,25.7,28.4c-2.4,26.3-9.1,51.9-14,77.8C1294,300.8,1287,299.9,1282.4,300.3z"/>
	<path class="st0" d="M355.5,295.8c0.6-33,30.6-65.8,63.8-70.2c26.3-3.5,49.3,2.7,68.6,21.6c4.1,4.1,4.9,7.4,1.2,12.1
		c-4.9,6.4-9.9,12.6-15.6,18.4c-5.1,5.1-8.8,5.5-14.3-0.3c-16.2-16.9-39.9-16-54.8,1.1c-4,4.6-6,10-7.1,15.7c-1,5.6-3.8,8.1-9.6,7.9
		c-8.6-0.3-17.2-0.1-25.8-0.1C357.9,302.1,354.9,300.8,355.5,295.8z"/>
	<path class="st0" d="M869,187.1c6.4-0.2,13.5,0.9,20.5,2.9c6.1,1.8,7.8,5.8,6.3,11.5c-1.5,5.6-3.4,10.7-11.2,9.1
		c-7.6-1.5-15.1-3.7-23.1-2.2c-3.9,0.7-7.6,1.7-10.6,4.5c-6.3,5.7-5.5,14,2.1,17.8c4.9,2.5,10.4,3.9,15.6,5.7
		c10.7,3.6,20.5,8.1,22.2,20.9c1.8,13.8-1.3,26.1-12.3,35.4c-10,8.5-22.3,10.9-35,11c-9.2,0.1-18.3-1-27.2-3.5
		c-7.8-2.3-7.4-7.6-5.7-13.9c1.7-6.3,4.9-9,11.5-6.9c6.9,2.2,13.9,3.7,21.2,3.7c4.8,0,9.4-0.9,13.8-2.8c5.1-2.2,7.9-6.2,8-11.7
		c0.2-5.2-3.4-8-7.8-9.7c-4.7-1.8-9.4-3.5-14.2-4.9c-12-3.6-21.1-10.3-22.7-23.7c-1.7-13.6,2.2-25.3,13.6-33.8
		C844.4,189.1,856,186.9,869,187.1z"/>
	<path class="st0" d="M582.1,187c5-0.2,11.2,0.9,17.5,2.2c7.4,1.6,10.6,5.3,8.6,13c-1.9,7.2-5.7,10.3-13.4,8
		c-7-2.1-14.1-2.8-21.4-1.6c-3.9,0.6-7.6,1.7-10.5,4.6c-5.9,5.9-4.6,14.2,3.1,17.7c4.5,2.1,9.3,3.6,14.1,5.1
		c12.7,3.9,23,9.7,23.9,25c0.9,15.3-6.6,30.1-19.9,36.5c-18.3,8.9-37.2,7.4-56.1,2.2c-7.7-2.1-5.8-8.4-4.6-13.8
		c1.3-5.9,4.7-8.4,11-6.7c5.3,1.4,10.8,2.6,16.3,3.4c3.2,0.5,6.7,0.5,9.9,0.1c10.4-1.3,16.7-5.8,17.3-12.8
		c0.8-10-7.6-10.9-14.1-13.5c-2.8-1.1-5.8-1.9-8.7-2.8c-11.6-3.8-20.2-10.5-21.8-23.5c-1.7-13.7,2.2-25.4,13.6-33.7
		C556.8,189.1,568.5,187,582.1,187z"/>
	<path class="st0" d="M899.5,252c1.4-22.8,9.9-46.5,36.9-59.3c15.2-7.2,31.2-7.3,47.2-3.4c4.3,1.1,9.2,2.9,9.6,8
		c0.5,5.3-1.6,10.4-4.9,14.7c-1.1,1.5-2.9,1.4-4.6,1.1c-2.5-0.5-4.9-0.8-7.3-1.5c-38.1-10-55.3,27.7-48.7,54.3
		c2.3,9.5,8.7,14,18.7,14.9c7.9,0.7,15.5-1.2,23.1-2.2c5.2-0.7,7.1,1.5,6.8,6.5c-0.5,10.4-3.6,14.4-14,16.5c-5.2,1-10.4,1.8-15.7,2
		C914.6,304.8,898.5,288.8,899.5,252z"/>
</g>
</svg>
