<?xml version="1.0" encoding="utf-8"?>
<!-- Generator: Adobe Illustrator 21.1.0, SVG Export Plug-In . SVG Version: 6.00 Build 0)  -->
<svg version="1.1" id="Layer_1" xmlns="http://www.w3.org/2000/svg" xmlns:xlink="http://www.w3.org/1999/xlink" x="0px" y="0px"
	 viewBox="0 0 1540 375" style="enable-background:new 0 0 1540 375;" xml:space="preserve">
<style type="text/css">
	.st0{fill:#FFFFFF;}
</style>
<g>
	<path class="st0" d="M164.5,96.4v272.3H68.1V95.9H0.3V8.7h233.6v87.7H164.5z"/>
	<path class="st0" d="M446,368.7V236.1h-98.9v132.6h-97.9V8.7h97.9v133.6h98.4V8.7h97.4v360.1H446z"/>
	<path class="st0" d="M800,368.7l-17.3-49.5H669.9l-16.3,49.5H543.4L687.8,6.6h79.1l145.9,362.1H800z M725,145.8l-29.1,92.3h60.2
		L725,145.8z"/>
	<path class="st0" d="M1134.5,368.7l-125.5-183.1v183.1h-95.9V8.7h84.1c15.6,22.4,31,44.4,46.2,65.8c15.1,21.4,30.3,43.7,45.6,66.8
		l33.7,51.5V8.7h96.4v360.1H1134.5z"/>
	<path class="st0" d="M1419.1,190.2l117.8,178.5h-118.8l-85.7-136.2v136.2h-97.9V8.7h97.9v145.9l96.4-145.9h111.7L1419.1,190.2z"/>
</g>
</svg>
