<?xml version="1.0" encoding="utf-8"?>
<!-- Generator: Adobe Illustrator 21.1.0, SVG Export Plug-In . SVG Version: 6.00 Build 0)  -->
<svg version="1.1" id="Layer_1" xmlns="http://www.w3.org/2000/svg" xmlns:xlink="http://www.w3.org/1999/xlink" x="0px" y="0px"
	 viewBox="0 0 922 375" style="enable-background:new 0 0 922 375;" xml:space="preserve">
<style type="text/css">
	.st0{fill:#FFFFFF;}
</style>
<g>
	<path class="st0" d="M207.9,234.6v134.1H109V236.1L1.4,8.7H109l43.1,103c1.4,3.4,2.6,6.7,3.8,9.9c1.2,3.2,2.5,6.7,3.8,10.5
		c2.7-6.1,5.2-12.1,7.4-17.9c2.2-5.8,4.7-11.7,7.4-17.8l36.9-87.7H314L207.9,234.6z"/>
	<path class="st0" d="M596.6,309c-17.3,21.4-38.7,37.8-64,49.2c-25.3,11.4-51.8,17.1-79.3,17.1c-24.5,0-48.4-4.8-71.7-14.5
		c-23.3-9.7-43.6-23.2-60.9-40.5c-17.3-17.3-30.9-37.7-40.5-60.9c-9.7-23.3-14.5-47.2-14.5-71.7c0-5.4,0.4-12.6,1.3-21.4
		c0.8-8.8,2.8-18.8,5.9-29.8c3.1-11,7.6-22.6,13.5-34.7c5.9-12.1,14-24,24.2-36C328.1,45,349.6,28.9,375,17.3
		C400.3,5.8,426.4,0,453.3,0c15.3,0,29.5,1.7,42.6,5.1c13.1,3.4,24.8,7.5,35.2,12.2c10.4,4.8,19.3,9.7,26.8,14.8
		c7.5,5.1,13.3,9.4,17.3,12.8c20.7,17.7,36.9,39.1,48.5,64.3c11.6,25.2,17.3,51.5,17.3,79c0,5.4-0.4,12.6-1.3,21.4
		c-0.9,8.8-2.8,18.6-5.9,29.3c-3.1,10.7-7.6,22.1-13.5,34.2C614.3,285.2,606.4,297.2,596.6,309z M536.4,156.6
		c-6.5-17-17.3-30.8-32.6-41.3c-15.3-10.5-32.1-15.8-50.5-15.8c-5.8,0-14.6,1.5-26.5,4.6c-11.9,3.1-23.8,10-35.7,20.9
		c-8.5,8.2-15,17.8-19.6,28.8c-4.6,11.1-6.9,22.5-6.9,34.4c0,2.7,0.3,6.5,0.8,11.2c0.5,4.8,1.6,9.9,3.3,15.6
		c1.7,5.6,4.3,11.6,7.9,17.9c3.6,6.3,8.2,12.3,14,18.1c8.2,8.2,17.8,14.5,28.8,19.1c11,4.6,22.4,6.9,33.9,6.9c8.5,0,16.3-1,23.5-3.1
		c7.1-2,13.3-4.6,18.6-7.6c5.3-3.1,9.9-6.2,13.8-9.4c3.9-3.2,6.9-5.9,8.9-7.9s4.4-4.8,7.1-8.4c2.7-3.6,5.4-7.9,7.9-13
		s4.7-11,6.4-17.6c1.7-6.6,2.5-13.8,2.5-21.7C542,177.6,540.1,167.1,536.4,156.6z"/>
	<path class="st0" d="M916.3,277.4c-1,3.7-2.4,8.5-4.1,14.3c-1.7,5.8-4.3,12-7.9,18.6c-3.6,6.6-8.2,13.4-14,20.4
		c-5.8,7-13.3,13.7-22.4,20.1c-7.8,5.8-18.2,11.4-31.1,16.8c-12.9,5.4-30.4,8.2-52.5,8.2c-20.7,0-38.5-2.8-53.3-8.4
		s-27.1-12.7-37-21.2c-9.9-8.5-17.7-17.7-23.5-27.5c-5.8-9.9-9.9-19-12.2-27.5c-1.4-4.1-2.5-8.2-3.3-12.5c-0.9-4.2-1.5-8.9-2-14
		c-0.5-5.1-0.9-10.8-1.3-17.1c-0.3-6.3-0.5-13.7-0.5-22.2V8.7h97.4v227.5c0,8.5,0.9,16.1,2.8,22.7c1.9,6.6,6.2,12.3,13,17.1
		c2.4,1.4,4.6,2.5,6.6,3.3c2,0.9,3.9,1.5,5.6,1.8c1.7,0.3,3.4,0.5,5.1,0.5c1.7,0,3.1,0,4.1,0c10.9,0,20-3.4,27.3-10.2
		c7.3-6.8,11-15.3,11-25.5v-11.7V8.7h97.4v204c0,10.2-0.2,21-0.5,32.4C920.6,256.4,919.1,267.2,916.3,277.4z"/>
</g>
</svg>
